<?xml version="1.0" encoding="utf-8"?>
<svg xmlns="http://www.w3.org/2000/svg" version="1.1" width="603px" height="414px" style="shape-rendering:geometricPrecision; text-rendering:geometricPrecision; image-rendering:optimizeQuality; fill-rule:evenodd; clip-rule:evenodd">
  <g>
    <path style="opacity: 0.899; fill: rgb(231, 231, 231);" d="M 239.5,108.5 C 238.51,102.355 238.177,96.0221 238.5,89.5C 220.164,89.3334 201.83,89.5001 183.5,90C 177.652,90.1728 171.985,90.6728 166.5,91.5C 163.14,91.6159 159.807,91.9492 156.5,92.5C 163.329,89.2476 170.663,87.7476 178.5,88C 198.5,87.3333 218.5,87.3333 238.5,88C 239.479,94.7445 239.812,101.578 239.5,108.5 Z"/>
  </g>
  <g>
    <path style="opacity: 0.82; fill: rgb(231, 231, 231);" d="M 451.5,95.5 C 448.482,95.2962 445.482,94.9629 442.5,94.5C 442.196,93.8501 441.863,93.1835 441.5,92.5C 434.863,91.4571 428.196,90.6238 421.5,90C 402.167,89.3333 382.833,89.3333 363.5,90C 362.518,98.081 362.184,106.248 362.5,114.5C 362.167,114.5 361.833,114.5 361.5,114.5C 361.183,105.582 361.516,96.7489 362.5,88C 386.522,87.1337 410.522,87.467 434.5,89C 440.657,90.0863 446.324,92.253 451.5,95.5 Z"/>
  </g>
  <g>
    <path style="opacity: 1; fill: rgb(231, 231, 231);" d="M 239.5,108.5 C 238.612,111.054 238.279,113.721 238.5,116.5C 222.167,116.5 205.833,116.5 189.5,116.5C 186.482,116.335 183.482,116.502 180.5,117C 179.624,118.585 178.291,119.585 176.5,120C 176.833,120.333 177.167,120.667 177.5,121C 176.552,121.483 175.552,121.649 174.5,121.5C 174.5,123.167 174.5,124.833 174.5,126.5C 173.85,128.435 173.517,130.435 173.5,132.5C 172.833,135.167 172.167,137.833 171.5,140.5C 170.427,134.885 170.26,129.218 171,123.5C 171.667,121.5 173,120.167 175,119.5C 175.236,117.155 176.07,115.155 177.5,113.5C 178.8,112.892 180.133,112.225 181.5,111.5C 183.13,112.421 184.797,113.255 186.5,114C 202.497,114.5 218.497,114.667 234.5,114.5C 236.815,106.951 237.148,99.2844 235.5,91.5C 212.5,91.5 189.5,91.5 166.5,91.5C 171.985,90.6728 177.652,90.1728 183.5,90C 201.83,89.5001 220.164,89.3334 238.5,89.5C 238.177,96.0221 238.51,102.355 239.5,108.5 Z"/>
  </g>
  <g>
    <path style="opacity: 1; fill: rgb(231, 231, 231);" d="M 442.5,94.5 C 445.482,94.9629 448.482,95.2962 451.5,95.5C 454.248,99.8774 458.248,102.211 463.5,102.5C 464.697,106.031 466.697,109.031 469.5,111.5C 470.308,113.423 470.808,115.423 471,117.5C 472.11,119.037 473.61,119.703 475.5,119.5C 475.248,122.32 475.748,124.986 477,127.5C 477.333,127.167 477.667,126.833 478,126.5C 478.667,133.167 478.667,139.833 478,146.5C 477.411,144.137 475.911,143.137 473.5,143.5C 473.477,145.6 474.144,147.433 475.5,149C 475.43,149.765 475.097,150.265 474.5,150.5C 473.109,148.208 472.109,145.708 471.5,143C 473.02,137.211 474.02,130.378 474.5,122.5C 471.208,122.428 468.708,124.094 467,127.5C 466.546,125.464 465.713,123.63 464.5,122C 464.667,121.5 464.833,121 465,120.5C 468.11,121.673 468.277,121.173 465.5,119C 466.91,118.632 467.91,117.799 468.5,116.5C 467.009,115.756 465.509,115.09 464,114.5C 464.089,109.48 461.923,108.48 457.5,111.5C 456.571,110.311 456.238,108.978 456.5,107.5C 454.723,107.214 453.056,106.547 451.5,105.5C 450.558,105.608 449.725,105.941 449,106.5C 445.924,105.712 442.758,105.212 439.5,105C 442.069,103.122 441.736,101.622 438.5,100.5C 437.554,100.987 436.554,101.32 435.5,101.5C 428.974,99.8299 422.307,98.9966 415.5,99C 416.833,98.6667 418.167,98.3333 419.5,98C 417.579,97.6397 415.912,96.8064 414.5,95.5C 406.581,95.6247 399.081,95.6247 392,95.5C 390.82,94.3159 389.32,93.6493 387.5,93.5C 382.841,94.0659 378.174,94.5659 373.5,95C 376.711,96.1532 380.044,96.8198 383.5,97C 379.274,98.2521 375.941,100.752 373.5,104.5C 379.491,104.994 385.658,105.661 392,106.5C 393.68,105.397 395.18,105.73 396.5,107.5C 395.145,108.675 395.312,109.675 397,110.5C 397.667,109.167 398.333,107.833 399,106.5C 399.49,107.793 399.657,109.127 399.5,110.5C 403.167,110.5 406.833,110.5 410.5,110.5C 410.473,112.199 409.806,113.533 408.5,114.5C 393.83,114.667 379.163,114.5 364.5,114C 363.167,106.333 363.167,98.6667 364.5,91C 390.67,89.5421 416.67,90.7088 442.5,94.5 Z"/>
  </g>
  <g>
    <path style="opacity: 1; fill: rgb(231, 231, 231);" d="M 177.5,113.5 C 176.07,115.155 175.236,117.155 175,119.5C 173,120.167 171.667,121.5 171,123.5C 170.26,129.218 170.427,134.885 171.5,140.5C 171.5,141.833 171.5,143.167 171.5,144.5C 171.472,148.155 173.139,150.822 176.5,152.5C 174.46,156.977 175.96,159.31 181,159.5C 182.092,158.704 183.259,158.037 184.5,157.5C 186.691,158.743 189.024,159.576 191.5,160C 192.833,160.667 192.833,161.333 191.5,162C 196.13,161.969 200.796,161.802 205.5,161.5C 209.358,161.579 213.024,162.246 216.5,163.5C 218.707,161.69 221.041,161.357 223.5,162.5C 218.038,165.061 218.371,165.894 224.5,165C 225.191,163.933 225.691,162.766 226,161.5C 227.504,165.039 227.837,168.705 227,172.5C 226.047,174.592 224.714,174.925 223,173.5C 222.5,174 222,174.5 221.5,175C 208.676,177.413 195.843,177.913 183,176.5C 180.595,177.274 178.095,177.774 175.5,178C 174.944,178.383 174.611,178.883 174.5,179.5C 173.167,179.5 171.833,179.5 170.5,179.5C 170.423,178.25 169.756,177.417 168.5,177C 165.144,175.814 161.811,175.647 158.5,176.5C 158.463,168.923 154.63,163.923 147,161.5C 144.967,161.132 142.8,161.132 140.5,161.5C 139.713,160.758 139.047,159.925 138.5,159C 139.76,157.186 139.76,155.353 138.5,153.5C 136.787,152.122 135.453,150.455 134.5,148.5C 131.893,147.682 129.226,147.182 126.5,147C 127.416,146.626 128.25,146.126 129,145.5C 129.176,139.362 130.009,133.362 131.5,127.5C 132.978,127.762 134.311,127.429 135.5,126.5C 129.487,124.464 128.987,121.464 134,117.5C 135.666,118.34 135.833,117.84 134.5,116C 136.135,115.46 137.468,115.96 138.5,117.5C 140.603,115.12 141.77,115.787 142,119.5C 142.333,119.167 142.667,118.833 143,118.5C 143.073,115.082 142.74,111.749 142,108.5C 143.856,110.406 146.023,111.24 148.5,111C 150.683,108.65 153.016,106.483 155.5,104.5C 161.364,104.144 166.698,102.31 171.5,99C 170.167,98.6667 168.833,98.3333 167.5,98C 170.117,97.1785 172.784,96.6785 175.5,96.5C 175.5,95.5 175.5,94.5 175.5,93.5C 178.187,93.3359 180.854,93.5026 183.5,94C 182.692,94.3076 182.025,94.8076 181.5,95.5C 183.167,95.8333 184.833,96.1667 186.5,96.5C 196.357,95.4968 206.023,95.4968 215.5,96.5C 216.167,96.6667 216.833,96.8333 217.5,97C 215.779,97.7393 214.113,98.5726 212.5,99.5C 215.92,99.9155 219.587,100.415 223.5,101C 218.705,101.205 214.705,103.038 211.5,106.5C 199.636,107.003 187.97,108.337 176.5,110.5C 178.435,111.213 178.768,112.213 177.5,113.5 Z"/>
  </g>
  <g>
    <path style="opacity: 1; fill: rgb(231, 231, 231);" d="M 320.5,182.5 C 319.791,183.404 318.791,183.737 317.5,183.5C 315.708,182.691 313.708,182.191 311.5,182C 297.821,181.833 284.154,181.333 270.5,180.5C 269.342,151.209 269.175,121.875 270,92.5C 270.5,92 271,91.5 271.5,91C 291.164,90.5 310.831,90.3334 330.5,90.5C 330.802,120.858 330.469,151.192 329.5,181.5C 326.287,181.19 323.287,181.523 320.5,182.5 Z"/>
  </g>
  <g>
    <path style="opacity: 1; fill: rgb(231, 231, 231);" d="M 451.5,95.5 C 456.165,96.8278 460.165,99.1611 463.5,102.5C 458.248,102.211 454.248,99.8774 451.5,95.5 Z"/>
  </g>
  <g>
    <path style="opacity: 1; fill: rgb(231, 231, 231);" d="M 156.5,92.5 C 155.345,94.8251 153.345,95.9918 150.5,96C 148.508,98.6684 145.842,100.168 142.5,100.5C 141.713,101.242 141.047,102.075 140.5,103C 137.606,104.732 134.606,106.232 131.5,107.5C 138.029,99.7255 146.363,94.7255 156.5,92.5 Z"/>
  </g>
  <g>
    <path style="opacity: 1; fill: rgb(231, 231, 231);" d="M 166.5,91.5 C 189.5,91.5 212.5,91.5 235.5,91.5C 237.148,99.2844 236.815,106.951 234.5,114.5C 218.497,114.667 202.497,114.5 186.5,114C 184.797,113.255 183.13,112.421 181.5,111.5C 180.133,112.225 178.8,112.892 177.5,113.5C 178.768,112.213 178.435,111.213 176.5,110.5C 187.97,108.337 199.636,107.003 211.5,106.5C 214.705,103.038 218.705,101.205 223.5,101C 219.587,100.415 215.92,99.9155 212.5,99.5C 214.113,98.5726 215.779,97.7393 217.5,97C 216.833,96.8333 216.167,96.6667 215.5,96.5C 206.023,95.4968 196.357,95.4968 186.5,96.5C 184.833,96.1667 183.167,95.8333 181.5,95.5C 182.025,94.8076 182.692,94.3076 183.5,94C 180.854,93.5026 178.187,93.3359 175.5,93.5C 175.5,94.5 175.5,95.5 175.5,96.5C 172.784,96.6785 170.117,97.1785 167.5,98C 168.833,98.3333 170.167,98.6667 171.5,99C 166.698,102.31 161.364,104.144 155.5,104.5C 153.016,106.483 150.683,108.65 148.5,111C 146.023,111.24 143.856,110.406 142,108.5C 142.74,111.749 143.073,115.082 143,118.5C 142.667,118.833 142.333,119.167 142,119.5C 141.77,115.787 140.603,115.12 138.5,117.5C 137.468,115.96 136.135,115.46 134.5,116C 135.833,117.84 135.666,118.34 134,117.5C 128.987,121.464 129.487,124.464 135.5,126.5C 134.311,127.429 132.978,127.762 131.5,127.5C 130.009,133.362 129.176,139.362 129,145.5C 128.25,146.126 127.416,146.626 126.5,147C 129.226,147.182 131.893,147.682 134.5,148.5C 135.453,150.455 136.787,152.122 138.5,153.5C 139.76,155.353 139.76,157.186 138.5,159C 139.047,159.925 139.713,160.758 140.5,161.5C 142.8,161.132 144.967,161.132 147,161.5C 154.63,163.923 158.463,168.923 158.5,176.5C 161.811,175.647 165.144,175.814 168.5,177C 169.756,177.417 170.423,178.25 170.5,179.5C 165.567,178.639 160.567,177.972 155.5,177.5C 154.321,175.095 154.321,173.095 155.5,171.5C 153.769,170.657 151.935,170.657 150,171.5C 145.273,170.602 142.44,167.935 141.5,163.5C 138.412,163.623 135.745,162.623 133.5,160.5C 134.571,158.675 133.904,157.508 131.5,157C 132.167,156.333 132.833,155.667 133.5,155C 126.929,153.93 123.263,150.096 122.5,143.5C 122.476,137.28 122.643,130.947 123,124.5C 123.802,121.319 125.469,118.653 128,116.5C 128.49,115.207 128.657,113.873 128.5,112.5C 130.047,111.232 131.047,109.565 131.5,107.5C 134.606,106.232 137.606,104.732 140.5,103C 141.047,102.075 141.713,101.242 142.5,100.5C 145.842,100.168 148.508,98.6684 150.5,96C 153.345,95.9918 155.345,94.8251 156.5,92.5C 159.807,91.9492 163.14,91.6159 166.5,91.5 Z"/>
  </g>
  <g>
    <path style="opacity: 0.97; fill: rgb(231, 231, 231);" d="M 442.5,94.5 C 416.67,90.7088 390.67,89.5421 364.5,91C 363.167,98.6667 363.167,106.333 364.5,114C 379.163,114.5 393.83,114.667 408.5,114.5C 412.24,114.241 415.906,114.574 419.5,115.5C 421.842,119.264 424.675,122.598 428,125.5C 428.334,127.847 428.167,130.181 427.5,132.5C 426.144,126.469 422.81,121.802 417.5,118.5C 417.047,117.542 416.381,116.708 415.5,116C 397.662,115.832 379.995,115.332 362.5,114.5C 362.184,106.248 362.518,98.081 363.5,90C 382.833,89.3333 402.167,89.3333 421.5,90C 428.196,90.6238 434.863,91.4571 441.5,92.5C 441.863,93.1835 442.196,93.8501 442.5,94.5 Z"/>
  </g>
  <g>
    <path style="opacity: 0.427; fill: rgb(231, 231, 231);" d="M 361.5,114.5 C 361.833,114.5 362.167,114.5 362.5,114.5C 379.995,115.332 397.662,115.832 415.5,116C 416.381,116.708 417.047,117.542 417.5,118.5C 398.556,117.286 379.89,115.952 361.5,114.5 Z"/>
  </g>
  <g>
    <path style="opacity: 1; fill: rgb(231, 231, 231);" d="M 474.5,150.5 C 473.821,152.814 472.488,153.147 470.5,151.5C 470.302,154.785 468.635,156.452 465.5,156.5C 465.033,158.711 464.033,160.711 462.5,162.5C 461.325,161.145 460.325,161.312 459.5,163C 460.833,163.667 460.833,164.333 459.5,165C 457.5,165.333 455.5,165.667 453.5,166C 455.632,166.918 456.299,168.251 455.5,170C 452.454,169.686 449.454,169.853 446.5,170.5C 446.968,172.134 447.968,173.3 449.5,174C 448.101,174.595 446.768,174.428 445.5,173.5C 442.581,176.561 439.248,178.895 435.5,180.5C 412.498,180.667 389.498,180.5 366.5,180C 365.107,178.829 364.273,177.329 364,175.5C 363.333,170.167 363.333,164.833 364,159.5C 364.5,158.333 365.333,157.5 366.5,157C 383.833,156.667 401.167,156.333 418.5,156C 422.716,152.323 426.05,148.156 428.5,143.5C 428.815,139.629 428.482,135.962 427.5,132.5C 428.167,130.181 428.334,127.847 428,125.5C 424.675,122.598 421.842,119.264 419.5,115.5C 415.906,114.574 412.24,114.241 408.5,114.5C 409.806,113.533 410.473,112.199 410.5,110.5C 406.833,110.5 403.167,110.5 399.5,110.5C 399.657,109.127 399.49,107.793 399,106.5C 398.333,107.833 397.667,109.167 397,110.5C 395.312,109.675 395.145,108.675 396.5,107.5C 395.18,105.73 393.68,105.397 392,106.5C 385.658,105.661 379.491,104.994 373.5,104.5C 375.941,100.752 379.274,98.2521 383.5,97C 380.044,96.8198 376.711,96.1532 373.5,95C 378.174,94.5659 382.841,94.0659 387.5,93.5C 389.32,93.6493 390.82,94.3159 392,95.5C 399.081,95.6247 406.581,95.6247 414.5,95.5C 415.912,96.8064 417.579,97.6397 419.5,98C 418.167,98.3333 416.833,98.6667 415.5,99C 422.307,98.9966 428.974,99.8299 435.5,101.5C 436.554,101.32 437.554,100.987 438.5,100.5C 441.736,101.622 442.069,103.122 439.5,105C 442.758,105.212 445.924,105.712 449,106.5C 449.725,105.941 450.558,105.608 451.5,105.5C 453.056,106.547 454.723,107.214 456.5,107.5C 456.238,108.978 456.571,110.311 457.5,111.5C 461.923,108.48 464.089,109.48 464,114.5C 465.509,115.09 467.009,115.756 468.5,116.5C 467.91,117.799 466.91,118.632 465.5,119C 468.277,121.173 468.11,121.673 465,120.5C 464.833,121 464.667,121.5 464.5,122C 465.713,123.63 466.546,125.464 467,127.5C 468.708,124.094 471.208,122.428 474.5,122.5C 474.02,130.378 473.02,137.211 471.5,143C 472.109,145.708 473.109,148.208 474.5,150.5 Z"/>
  </g>
  <g>
    <path style="opacity: 0.769; fill: rgb(231, 231, 231);" d="M 131.5,107.5 C 131.047,109.565 130.047,111.232 128.5,112.5C 120.917,121.273 117.917,131.607 119.5,143.5C 116.973,132.842 118.806,122.842 125,113.5C 126.731,110.932 128.898,108.932 131.5,107.5 Z"/>
  </g>
  <g>
    <path style="opacity: 0.988; fill: rgb(231, 231, 231);" d="M 189.5,116.5 C 183.044,117.567 178.044,120.9 174.5,126.5C 174.5,124.833 174.5,123.167 174.5,121.5C 175.552,121.649 176.552,121.483 177.5,121C 177.167,120.667 176.833,120.333 176.5,120C 178.291,119.585 179.624,118.585 180.5,117C 183.482,116.502 186.482,116.335 189.5,116.5 Z"/>
  </g>
  <g>
    <path style="opacity: 0.674; fill: rgb(231, 231, 231);" d="M 331.5,88.5 C 332.19,98.0381 332.857,107.705 333.5,117.5C 332.167,129.5 332.167,141.5 333.5,153.5C 332.857,163.295 332.19,172.962 331.5,182.5C 331.5,151.167 331.5,119.833 331.5,88.5 Z"/>
  </g>
  <g>
    <path style="opacity: 0.865; fill: rgb(231, 231, 231);" d="M 476.5,116.5 C 482.039,125.769 483.539,135.769 481,146.5C 480.392,148.066 479.558,149.4 478.5,150.5C 480.368,142.942 480.868,135.275 480,127.5C 477.752,124.176 476.586,120.509 476.5,116.5 Z"/>
  </g>
  <g>
    <path style="opacity: 1; fill: rgb(231, 231, 231);" d="M 173.5,132.5 C 172.609,141.385 175.942,148.051 183.5,152.5C 182.504,152.414 181.671,152.748 181,153.5C 177.306,150.971 174.14,147.971 171.5,144.5C 171.5,143.167 171.5,141.833 171.5,140.5C 172.167,137.833 172.833,135.167 173.5,132.5 Z"/>
  </g>
  <g>
    <path style="opacity: 0.992; fill: rgb(231, 231, 231);" d="M 331.5,88.5 C 331.5,119.833 331.5,151.167 331.5,182.5C 327.833,182.5 324.167,182.5 320.5,182.5C 323.287,181.523 326.287,181.19 329.5,181.5C 330.469,151.192 330.802,120.858 330.5,90.5C 310.831,90.3334 291.164,90.5 271.5,91C 271,91.5 270.5,92 270,92.5C 269.175,121.875 269.342,151.209 270.5,180.5C 284.154,181.333 297.821,181.833 311.5,182C 313.708,182.191 315.708,182.691 317.5,183.5C 300.816,183.706 284.15,183.373 267.5,182.5C 267.167,151.16 267.5,119.826 268.5,88.5C 289.627,87.1733 310.627,87.1733 331.5,88.5 Z"/>
  </g>
  <g>
    <path style="opacity: 1; fill: rgb(231, 231, 231);" d="M 325.5,92.5 C 326.497,92.4701 327.164,92.9701 327.5,94C 326.307,97.0138 325.641,100.181 325.5,103.5C 325.378,106.691 325.878,109.691 327,112.5C 327.833,133.175 327.666,153.841 326.5,174.5C 325.694,166.844 325.027,159.177 324.5,151.5C 325.895,146.896 325.561,142.396 323.5,138C 323.948,129.206 323.948,120.373 323.5,111.5C 322.914,111.709 322.414,112.043 322,112.5C 321.667,133.5 321.333,154.5 321,175.5C 320.5,176 320,176.5 319.5,177C 311.964,177.216 304.464,177.716 297,178.5C 289.956,177.868 282.956,177.201 276,176.5C 275.768,174.717 276.268,173.05 277.5,171.5C 275.332,168.168 273.998,164.835 273.5,161.5C 274.328,160.585 275.328,159.919 276.5,159.5C 276.935,155.388 277.935,151.555 279.5,148C 278.484,147.481 277.818,146.647 277.5,145.5C 280.679,139.031 280.012,133.198 275.5,128C 276.98,125.753 277.647,123.253 277.5,120.5C 277.315,115.518 277.148,110.518 277,105.5C 277.333,104.833 277.667,104.167 278,103.5C 278.333,106.167 278.667,108.833 279,111.5C 279.178,108.458 280.012,105.625 281.5,103C 280.293,101.7 279.626,100.2 279.5,98.5C 281.827,98.7529 283.827,98.0863 285.5,96.5C 284.271,95.7189 282.938,95.2189 281.5,95C 284.047,94.3405 286.547,94.5071 289,95.5C 289.95,94.9777 290.784,94.311 291.5,93.5C 292.696,93.8457 292.696,94.3457 291.5,95C 292.333,95.1667 293.167,95.3333 294,95.5C 302.175,94.5175 311.175,94.5175 321,95.5C 323.183,95.4779 324.683,94.4779 325.5,92.5 Z"/>
  </g>
  <g>
    <path style="opacity: 1; fill: rgb(231, 231, 231);" d="M 128.5,112.5 C 128.657,113.873 128.49,115.207 128,116.5C 125.469,118.653 123.802,121.319 123,124.5C 122.643,130.947 122.476,137.28 122.5,143.5C 123.263,150.096 126.929,153.93 133.5,155C 132.833,155.667 132.167,156.333 131.5,157C 133.904,157.508 134.571,158.675 133.5,160.5C 135.745,162.623 138.412,163.623 141.5,163.5C 142.44,167.935 145.273,170.602 150,171.5C 151.935,170.657 153.769,170.657 155.5,171.5C 154.321,173.095 154.321,175.095 155.5,177.5C 160.567,177.972 165.567,178.639 170.5,179.5C 171.833,179.5 173.167,179.5 174.5,179.5C 194.326,180.497 214.326,180.83 234.5,180.5C 218.342,181.496 202.009,181.83 185.5,181.5C 184.508,181.328 183.842,181.662 183.5,182.5C 169.196,183.308 155.862,180.308 143.5,173.5C 141.404,170.738 138.738,168.738 135.5,167.5C 126.695,161.909 121.361,153.909 119.5,143.5C 117.917,131.607 120.917,121.273 128.5,112.5 Z"/>
  </g>
  <g>
    <path style="opacity: 0.044; fill: rgb(231, 231, 231);" d="M 410.5,153.5 C 394.265,154.18 377.931,154.847 361.5,155.5C 377.466,153.515 393.799,152.848 410.5,153.5 Z"/>
  </g>
  <g>
    <path style="opacity: 0.746; fill: rgb(231, 231, 231);" d="M 183.5,152.5 C 201.823,153.1 220.157,153.767 238.5,154.5C 239.714,163.809 239.714,173.142 238.5,182.5C 236.167,182.5 233.833,182.5 231.5,182.5C 215.991,182.83 200.658,182.496 185.5,181.5C 202.009,181.83 218.342,181.496 234.5,180.5C 235.496,180.586 236.329,180.252 237,179.5C 237.813,171.92 237.647,164.42 236.5,157C 220.925,155.697 205.259,155.03 189.5,155C 187.389,154.155 185.389,153.322 183.5,152.5 Z"/>
  </g>
  <g>
    <path style="opacity: 1; fill: rgb(231, 231, 231);" d="M 428.5,143.5 C 426.05,148.156 422.716,152.323 418.5,156C 401.167,156.333 383.833,156.667 366.5,157C 365.333,157.5 364.5,158.333 364,159.5C 363.333,164.833 363.333,170.167 364,175.5C 364.273,177.329 365.107,178.829 366.5,180C 389.498,180.5 412.498,180.667 435.5,180.5C 429.762,182.134 423.762,182.967 417.5,183C 399.79,183.806 382.123,183.639 364.5,182.5C 362.277,173.75 361.943,164.917 363.5,156C 381.5,155.667 399.5,155.333 417.5,155C 421.325,151.06 424.992,147.227 428.5,143.5 Z"/>
  </g>
  <g>
    <path style="opacity: 0.992; fill: rgb(231, 231, 231);" d="M 478.5,150.5 C 476.009,157.988 471.342,163.655 464.5,167.5C 464.162,163.849 465.828,162.183 469.5,162.5C 472.125,159.273 474.292,155.606 476,151.5C 476.671,150.748 477.504,150.414 478.5,150.5 Z"/>
  </g>
  <g>
    <path style="opacity: 1; fill: rgb(231, 231, 231);" d="M 171.5,144.5 C 174.14,147.971 177.306,150.971 181,153.5C 181.671,152.748 182.504,152.414 183.5,152.5C 185.389,153.322 187.389,154.155 189.5,155C 205.259,155.03 220.925,155.697 236.5,157C 237.647,164.42 237.813,171.92 237,179.5C 236.329,180.252 235.496,180.586 234.5,180.5C 214.326,180.83 194.326,180.497 174.5,179.5C 174.611,178.883 174.944,178.383 175.5,178C 178.095,177.774 180.595,177.274 183,176.5C 195.843,177.913 208.676,177.413 221.5,175C 222,174.5 222.5,174 223,173.5C 224.714,174.925 226.047,174.592 227,172.5C 227.837,168.705 227.504,165.039 226,161.5C 225.691,162.766 225.191,163.933 224.5,165C 218.371,165.894 218.038,165.061 223.5,162.5C 221.041,161.357 218.707,161.69 216.5,163.5C 213.024,162.246 209.358,161.579 205.5,161.5C 200.796,161.802 196.13,161.969 191.5,162C 192.833,161.333 192.833,160.667 191.5,160C 189.024,159.576 186.691,158.743 184.5,157.5C 183.259,158.037 182.092,158.704 181,159.5C 175.96,159.31 174.46,156.977 176.5,152.5C 173.139,150.822 171.472,148.155 171.5,144.5 Z"/>
  </g>
  <g>
    <path style="opacity: 1; fill: rgb(231, 231, 231);" d="M 463.5,102.5 C 467.447,104.945 470.947,107.945 474,111.5C 475.094,113.078 475.928,114.745 476.5,116.5C 476.586,120.509 477.752,124.176 480,127.5C 480.868,135.275 480.368,142.942 478.5,150.5C 477.504,150.414 476.671,150.748 476,151.5C 474.292,155.606 472.125,159.273 469.5,162.5C 465.828,162.183 464.162,163.849 464.5,167.5C 456.573,175.289 446.907,179.623 435.5,180.5C 439.248,178.895 442.581,176.561 445.5,173.5C 446.768,174.428 448.101,174.595 449.5,174C 447.968,173.3 446.968,172.134 446.5,170.5C 449.454,169.853 452.454,169.686 455.5,170C 456.299,168.251 455.632,166.918 453.5,166C 455.5,165.667 457.5,165.333 459.5,165C 460.833,164.333 460.833,163.667 459.5,163C 460.325,161.312 461.325,161.145 462.5,162.5C 464.033,160.711 465.033,158.711 465.5,156.5C 468.635,156.452 470.302,154.785 470.5,151.5C 472.488,153.147 473.821,152.814 474.5,150.5C 475.097,150.265 475.43,149.765 475.5,149C 474.144,147.433 473.477,145.6 473.5,143.5C 475.911,143.137 477.411,144.137 478,146.5C 478.667,139.833 478.667,133.167 478,126.5C 477.667,126.833 477.333,127.167 477,127.5C 475.748,124.986 475.248,122.32 475.5,119.5C 473.61,119.703 472.11,119.037 471,117.5C 470.808,115.423 470.308,113.423 469.5,111.5C 466.697,109.031 464.697,106.031 463.5,102.5 Z"/>
  </g>
  <g>
    <path style="opacity: 0.596; fill: rgb(231, 231, 231);" d="M 135.5,167.5 C 138.738,168.738 141.404,170.738 143.5,173.5C 140.109,172.471 137.443,170.471 135.5,167.5 Z"/>
  </g>
  <g>
    <path style="opacity: 0.429; fill: rgb(231, 231, 231);" d="M 427.5,132.5 C 428.482,135.962 428.815,139.629 428.5,143.5C 424.992,147.227 421.325,151.06 417.5,155C 399.5,155.333 381.5,155.667 363.5,156C 361.943,164.917 362.277,173.75 364.5,182.5C 363.5,182.5 362.5,182.5 361.5,182.5C 361.5,173.5 361.5,164.5 361.5,155.5C 377.931,154.847 394.265,154.18 410.5,153.5C 421.573,151.08 427.24,144.08 427.5,132.5 Z"/>
  </g>
  <g>
    <path style="opacity: 0.016; fill: rgb(231, 231, 231);" d="M 183.5,182.5 C 183.842,181.662 184.508,181.328 185.5,181.5C 200.658,182.496 215.991,182.83 231.5,182.5C 215.598,183.823 199.598,183.823 183.5,182.5 Z"/>
  </g>
  <g>
    <path style="opacity: 0.851; fill: rgb(231, 231, 231);" d="M 256.5,195.5 C 234.833,196.167 213.167,196.833 191.5,197.5C 159.5,197.5 127.5,197.5 95.5,197.5C 95.9175,196.778 96.5842,196.278 97.5,196C 150.499,195.5 203.499,195.333 256.5,195.5 Z"/>
  </g>
  <g>
    <path style="opacity: 0.762; fill: rgb(231, 231, 231);" d="M 256.5,195.5 C 257.167,195.5 257.833,195.5 258.5,195.5C 284.833,196.167 311.167,196.833 337.5,197.5C 288.833,197.5 240.167,197.5 191.5,197.5C 213.167,196.833 234.833,196.167 256.5,195.5 Z"/>
  </g>
  <g>
    <path style="opacity: 0.875; fill: rgb(231, 231, 231);" d="M 258.5,195.5 C 340.143,195.721 421.809,195.887 503.5,196C 504.416,196.278 505.082,196.778 505.5,197.5C 449.5,197.5 393.5,197.5 337.5,197.5C 311.167,196.833 284.833,196.167 258.5,195.5 Z"/>
  </g>
  <g>
    <path style="opacity: 1; fill: rgb(231, 231, 231);" d="M 95.5,197.5 C 127.5,197.5 159.5,197.5 191.5,197.5C 240.167,197.5 288.833,197.5 337.5,197.5C 393.5,197.5 449.5,197.5 505.5,197.5C 507.081,199.142 507.747,201.142 507.5,203.5C 506.167,202.167 504.833,200.833 503.5,199.5C 367.668,198.5 231.668,198.167 95.5,198.5C 95.1207,203.126 93.2873,207.126 90,210.5C 89.5065,212.134 89.3398,213.801 89.5,215.5C 87.4619,219.666 85.6286,223.999 84,228.5C 82.1459,231.218 79.9792,233.551 77.5,235.5C 83.3136,222.716 89.3136,210.049 95.5,197.5 Z"/>
  </g>
  <g>
    <path style="opacity: 1; fill: rgb(231, 231, 231);" d="M 503.5,199.5 C 498.116,200.606 492.783,201.606 487.5,202.5C 481.762,202.27 476.095,201.603 470.5,200.5C 467.041,201.304 463.541,201.971 460,202.5C 380.744,202.664 298.411,202.331 213,201.5C 208.603,202.85 204.103,203.517 199.5,203.5C 189.003,201.841 178.337,200.841 167.5,200.5C 148.464,201.07 129.464,201.736 110.5,202.5C 106.894,200.135 103.561,200.301 100.5,203C 101.167,203.333 101.833,203.667 102.5,204C 97.4786,205.864 94.1452,209.364 92.5,214.5C 91.5832,215.127 90.5832,215.461 89.5,215.5C 89.3398,213.801 89.5065,212.134 90,210.5C 93.2873,207.126 95.1207,203.126 95.5,198.5C 231.668,198.167 367.668,198.5 503.5,199.5 Z"/>
  </g>
  <g>
    <path style="opacity: 1; fill: rgb(231, 231, 231);" d="M 503.5,199.5 C 504.833,200.833 506.167,202.167 507.5,203.5C 508.637,209.743 510.471,215.743 513,221.5C 514.333,223.167 515.667,224.833 517,226.5C 519.883,234.376 523.216,242.043 527,249.5C 527.671,250.252 528.504,250.586 529.5,250.5C 529.5,250.833 529.5,251.167 529.5,251.5C 530.718,260.36 534.051,268.36 539.5,275.5C 539.929,279.677 540.929,283.677 542.5,287.5C 541.271,292.742 542.937,296.575 547.5,299C 545.321,300.848 543.487,303.015 542,305.5C 536.922,304.99 531.589,304.99 526,305.5C 525.667,304.833 525.333,304.167 525,303.5C 523.75,304.573 522.416,304.573 521,303.5C 519.715,303.95 518.548,304.617 517.5,305.5C 511.582,304.207 505.582,303.374 499.5,303C 496.989,300.157 494.156,297.657 491,295.5C 490.887,293.026 489.887,291.026 488,289.5C 487.333,288.167 487.333,286.833 488,285.5C 489.757,284.881 490.924,283.714 491.5,282C 490.186,278.617 489.353,275.117 489,271.5C 487.396,268.227 485.063,265.561 482,263.5C 480.7,264.707 479.2,265.374 477.5,265.5C 477.863,262.437 478.53,259.437 479.5,256.5C 479.059,253.559 477.393,251.726 474.5,251C 475.447,248.403 476.28,245.903 477,243.5C 472.709,242.457 468.209,241.123 463.5,239.5C 463.398,236.254 462.398,233.42 460.5,231C 462.172,227.303 461.005,224.803 457,223.5C 456.223,228.964 453.057,230.964 447.5,229.5C 447.688,227.897 447.188,226.563 446,225.5C 442.621,227.923 439.121,228.09 435.5,226C 436.902,224.658 436.569,223.824 434.5,223.5C 431.794,225.53 429.294,225.53 427,223.5C 422.035,224.268 416.869,224.434 411.5,224C 412.563,222.812 413.897,222.312 415.5,222.5C 415.52,220.857 414.853,219.524 413.5,218.5C 409.654,217.809 406.654,216.809 404.5,215.5C 395.625,217.106 386.292,217.939 376.5,218C 371.848,220.825 366.848,222.825 361.5,224C 363.394,225.079 363.727,226.413 362.5,228C 357.049,228.897 352.382,231.064 348.5,234.5C 345.626,236.935 342.293,238.269 338.5,238.5C 338.36,240.124 339.027,241.29 340.5,242C 338.833,242.333 337.167,242.667 335.5,243C 335.854,244.626 335.854,246.459 335.5,248.5C 331.917,248.908 328.583,250.075 325.5,252C 324.399,254.472 323.399,256.972 322.5,259.5C 321.624,259.369 320.957,259.702 320.5,260.5C 321.077,262.106 321.41,263.772 321.5,265.5C 320.786,278.168 320.119,290.835 319.5,303.5C 314.13,303.842 308.797,304.509 303.5,305.5C 298.658,304.898 293.825,304.232 289,303.5C 287.106,303.58 285.273,303.913 283.5,304.5C 283.957,289.08 283.29,273.747 281.5,258.5C 279.349,257.095 277.682,255.261 276.5,253C 274.559,252.696 272.893,251.863 271.5,250.5C 270.777,247.93 269.61,245.597 268,243.5C 264.943,244.451 261.777,244.784 258.5,244.5C 258.5,243.5 258.5,242.5 258.5,241.5C 254.726,241.516 253.726,239.85 255.5,236.5C 255,236.167 254.5,235.833 254,235.5C 251.547,236.493 249.047,236.66 246.5,236C 240.249,234.631 234.249,232.631 228.5,230C 225.183,229.502 221.85,229.335 218.5,229.5C 206.469,229.251 194.469,229.584 182.5,230.5C 178.486,230.334 174.486,230.501 170.5,231C 168.416,231.697 166.749,232.864 165.5,234.5C 165.167,234.5 164.833,234.5 164.5,234.5C 158.339,234.853 152.339,236.02 146.5,238C 146.335,239.117 146.002,240.284 145.5,241.5C 142.453,242.875 141.12,245.208 141.5,248.5C 141.5,248.833 141.5,249.167 141.5,249.5C 139.516,249.383 137.85,250.05 136.5,251.5C 132.071,258.597 128.071,265.93 124.5,273.5C 123.548,275.045 123.215,276.712 123.5,278.5C 122.325,278.281 121.325,278.614 120.5,279.5C 119.035,284.12 116.368,287.786 112.5,290.5C 111.754,291.736 111.421,293.07 111.5,294.5C 108.387,296.191 106.053,298.691 104.5,302C 103.167,302.333 101.833,302.667 100.5,303C 101.833,304 101.833,305 100.5,306C 83.1699,306.5 65.8365,306.667 48.5,306.5C 48.2222,304.654 48.8888,303.32 50.5,302.5C 51.487,299.232 51.8204,295.898 51.5,292.5C 51.5,292.167 51.5,291.833 51.5,291.5C 54.1357,288.7 56.9691,286.033 60,283.5C 62.2895,277.956 64.9561,272.623 68,267.5C 70.0772,262.434 70.9105,257.101 70.5,251.5C 72.6237,250.969 74.1237,249.635 75,247.5C 76.7387,243.689 77.572,239.689 77.5,235.5C 79.9792,233.551 82.1459,231.218 84,228.5C 85.6286,223.999 87.4619,219.666 89.5,215.5C 90.5832,215.461 91.5832,215.127 92.5,214.5C 94.1452,209.364 97.4786,205.864 102.5,204C 101.833,203.667 101.167,203.333 100.5,203C 103.561,200.301 106.894,200.135 110.5,202.5C 129.464,201.736 148.464,201.07 167.5,200.5C 178.337,200.841 189.003,201.841 199.5,203.5C 204.103,203.517 208.603,202.85 213,201.5C 298.411,202.331 380.744,202.664 460,202.5C 463.541,201.971 467.041,201.304 470.5,200.5C 476.095,201.603 481.762,202.27 487.5,202.5C 492.783,201.606 498.116,200.606 503.5,199.5 Z"/>
  </g>
  <g>
    <path style="opacity: 1; fill: rgb(231, 231, 231);" d="M 542.5,287.5 C 543.391,288.11 544.391,288.443 545.5,288.5C 546.674,289.514 547.34,290.847 547.5,292.5C 548.648,297.43 549.315,302.43 549.5,307.5C 531.497,307.667 513.497,307.5 495.5,307C 494.756,305.961 493.756,305.461 492.5,305.5C 491.326,304.486 490.66,303.153 490.5,301.5C 490.804,300.85 491.137,300.183 491.5,299.5C 488.128,294.981 485.961,289.981 485,284.5C 481.644,281.124 479.31,277.124 478,272.5C 477.329,271.748 476.496,271.414 475.5,271.5C 474.799,267.699 473.632,264.032 472,260.5C 470.729,259.117 469.229,258.117 467.5,257.5C 467.5,257.167 467.5,256.833 467.5,256.5C 466.626,253.081 465.46,249.748 464,246.5C 463.184,245.177 462.017,244.511 460.5,244.5C 459.29,244.068 458.29,243.401 457.5,242.5C 456.847,241.193 456.18,239.86 455.5,238.5C 451.856,236.174 447.856,234.841 443.5,234.5C 443.167,234.5 442.833,234.5 442.5,234.5C 440.961,232.471 438.961,230.971 436.5,230C 432.23,228.925 427.897,228.425 423.5,228.5C 424.609,227.71 425.942,227.21 427.5,227C 408.8,223.533 390.133,223.7 371.5,227.5C 370.558,227.392 369.725,227.059 369,226.5C 367.612,228.702 366.112,230.702 364.5,232.5C 361.552,232.777 358.719,232.444 356,231.5C 354.812,232.563 354.312,233.897 354.5,235.5C 352.5,235.167 350.5,234.833 348.5,234.5C 352.382,231.064 357.049,228.897 362.5,228C 363.727,226.413 363.394,225.079 361.5,224C 366.848,222.825 371.848,220.825 376.5,218C 386.292,217.939 395.625,217.106 404.5,215.5C 406.654,216.809 409.654,217.809 413.5,218.5C 414.853,219.524 415.52,220.857 415.5,222.5C 413.897,222.312 412.563,222.812 411.5,224C 416.869,224.434 422.035,224.268 427,223.5C 429.294,225.53 431.794,225.53 434.5,223.5C 436.569,223.824 436.902,224.658 435.5,226C 439.121,228.09 442.621,227.923 446,225.5C 447.188,226.563 447.688,227.897 447.5,229.5C 453.057,230.964 456.223,228.964 457,223.5C 461.005,224.803 462.172,227.303 460.5,231C 462.398,233.42 463.398,236.254 463.5,239.5C 468.209,241.123 472.709,242.457 477,243.5C 476.28,245.903 475.447,248.403 474.5,251C 477.393,251.726 479.059,253.559 479.5,256.5C 478.53,259.437 477.863,262.437 477.5,265.5C 479.2,265.374 480.7,264.707 482,263.5C 485.063,265.561 487.396,268.227 489,271.5C 489.353,275.117 490.186,278.617 491.5,282C 490.924,283.714 489.757,284.881 488,285.5C 487.333,286.833 487.333,288.167 488,289.5C 489.887,291.026 490.887,293.026 491,295.5C 494.156,297.657 496.989,300.157 499.5,303C 505.582,303.374 511.582,304.207 517.5,305.5C 518.548,304.617 519.715,303.95 521,303.5C 522.416,304.573 523.75,304.573 525,303.5C 525.333,304.167 525.667,304.833 526,305.5C 531.589,304.99 536.922,304.99 542,305.5C 543.487,303.015 545.321,300.848 547.5,299C 542.937,296.575 541.271,292.742 542.5,287.5 Z"/>
  </g>
  <g>
    <path style="opacity: 0.996; fill: rgb(231, 231, 231);" d="M 423.5,228.5 C 403.461,224.94 383.794,226.273 364.5,232.5C 366.112,230.702 367.612,228.702 369,226.5C 369.725,227.059 370.558,227.392 371.5,227.5C 390.133,223.7 408.8,223.533 427.5,227C 425.942,227.21 424.609,227.71 423.5,228.5 Z"/>
  </g>
  <g>
    <path style="opacity: 1; fill: rgb(231, 231, 231);" d="M 423.5,228.5 C 427.897,228.425 432.23,228.925 436.5,230C 438.961,230.971 440.961,232.471 442.5,234.5C 436.101,232.324 429.768,230.324 423.5,228.5 Z"/>
  </g>
  <g>
    <path style="opacity: 0.514; fill: rgb(231, 231, 231);" d="M 182.5,230.5 C 176.947,231.784 171.28,233.117 165.5,234.5C 166.749,232.864 168.416,231.697 170.5,231C 174.486,230.501 178.486,230.334 182.5,230.5 Z"/>
  </g>
  <g>
    <path style="opacity: 1; fill: rgb(231, 231, 231);" d="M 507.5,203.5 C 508.931,204.903 510.098,206.569 511,208.5C 517.152,222.614 523.319,236.614 529.5,250.5C 528.504,250.586 527.671,250.252 527,249.5C 523.216,242.043 519.883,234.376 517,226.5C 515.667,224.833 514.333,223.167 513,221.5C 510.471,215.743 508.637,209.743 507.5,203.5 Z"/>
  </g>
  <g>
    <path style="opacity: 1; fill: rgb(231, 231, 231);" d="M 218.5,229.5 C 221.85,229.335 225.183,229.502 228.5,230C 234.249,232.631 240.249,234.631 246.5,236C 249.047,236.66 251.547,236.493 254,235.5C 254.5,235.833 255,236.167 255.5,236.5C 253.726,239.85 254.726,241.516 258.5,241.5C 258.5,242.5 258.5,243.5 258.5,244.5C 252.482,241.768 246.482,238.935 240.5,236C 233.079,233.688 225.746,231.522 218.5,229.5 Z"/>
  </g>
  <g>
    <path style="opacity: 1; fill: rgb(231, 231, 231);" d="M 364.5,232.5 C 354.387,236.928 344.72,242.262 335.5,248.5C 335.854,246.459 335.854,244.626 335.5,243C 337.167,242.667 338.833,242.333 340.5,242C 339.027,241.29 338.36,240.124 338.5,238.5C 342.293,238.269 345.626,236.935 348.5,234.5C 350.5,234.833 352.5,235.167 354.5,235.5C 354.312,233.897 354.812,232.563 356,231.5C 358.719,232.444 361.552,232.777 364.5,232.5 Z"/>
  </g>
  <g>
    <path style="opacity: 1; fill: rgb(231, 231, 231);" d="M 164.5,234.5 C 158.921,237.289 153.255,240.123 147.5,243C 145.304,244.699 143.304,246.533 141.5,248.5C 141.12,245.208 142.453,242.875 145.5,241.5C 146.002,240.284 146.335,239.117 146.5,238C 152.339,236.02 158.339,234.853 164.5,234.5 Z"/>
  </g>
  <g>
    <path style="opacity: 1; fill: rgb(231, 231, 231);" d="M 443.5,234.5 C 447.856,234.841 451.856,236.174 455.5,238.5C 456.18,239.86 456.847,241.193 457.5,242.5C 452.825,239.83 448.159,237.163 443.5,234.5 Z"/>
  </g>
  <g>
    <path style="opacity: 0.459; fill: rgb(231, 231, 231);" d="M 460.5,244.5 C 462.017,244.511 463.184,245.177 464,246.5C 465.46,249.748 466.626,253.081 467.5,256.5C 464.663,252.831 462.33,248.831 460.5,244.5 Z"/>
  </g>
  <g>
    <path style="opacity: 1; fill: rgb(231, 231, 231);" d="M 77.5,235.5 C 77.572,239.689 76.7387,243.689 75,247.5C 74.1237,249.635 72.6237,250.969 70.5,251.5C 72.0713,245.77 74.4046,240.436 77.5,235.5 Z"/>
  </g>
  <g>
    <path style="opacity: 0.996; fill: rgb(231, 231, 231);" d="M 467.5,257.5 C 469.229,258.117 470.729,259.117 472,260.5C 473.632,264.032 474.799,267.699 475.5,271.5C 472.651,266.971 469.984,262.304 467.5,257.5 Z"/>
  </g>
  <g>
    <path style="opacity: 1; fill: rgb(231, 231, 231);" d="M 141.5,249.5 C 135.736,259.37 129.736,269.037 123.5,278.5C 123.215,276.712 123.548,275.045 124.5,273.5C 128.071,265.93 132.071,258.597 136.5,251.5C 137.85,250.05 139.516,249.383 141.5,249.5 Z"/>
  </g>
  <g>
    <path style="opacity: 0.996; fill: rgb(231, 231, 231);" d="M 529.5,251.5 C 533.809,259.093 537.142,267.093 539.5,275.5C 534.051,268.36 530.718,260.36 529.5,251.5 Z"/>
  </g>
  <g>
    <path style="opacity: 1; fill: rgb(231, 231, 231);" d="M 70.5,251.5 C 70.9105,257.101 70.0772,262.434 68,267.5C 64.9561,272.623 62.2895,277.956 60,283.5C 56.9691,286.033 54.1357,288.7 51.5,291.5C 57.4564,277.952 63.7897,264.619 70.5,251.5 Z"/>
  </g>
  <g>
    <path style="opacity: 1; fill: rgb(231, 231, 231);" d="M 539.5,275.5 C 540.79,276.058 541.623,277.058 542,278.5C 543.075,281.894 544.242,285.228 545.5,288.5C 544.391,288.443 543.391,288.11 542.5,287.5C 540.929,283.677 539.929,279.677 539.5,275.5 Z"/>
  </g>
  <g>
    <path style="opacity: 0.945; fill: rgb(231, 231, 231);" d="M 123.5,278.5 C 120.247,285.348 116.247,291.681 111.5,297.5C 111.5,296.5 111.5,295.5 111.5,294.5C 111.421,293.07 111.754,291.736 112.5,290.5C 116.368,287.786 119.035,284.12 120.5,279.5C 121.325,278.614 122.325,278.281 123.5,278.5 Z"/>
  </g>
  <g>
    <path style="opacity: 0.984; fill: rgb(231, 231, 231);" d="M 475.5,271.5 C 476.496,271.414 477.329,271.748 478,272.5C 479.31,277.124 481.644,281.124 485,284.5C 485.961,289.981 488.128,294.981 491.5,299.5C 491.137,300.183 490.804,300.85 490.5,301.5C 485.002,291.838 480.002,281.838 475.5,271.5 Z"/>
  </g>
  <g>
    <path style="opacity: 1; fill: rgb(231, 231, 231);" d="M 322.5,259.5 C 322.953,275.238 322.453,290.904 321,306.5C 307.53,307.826 294.03,307.826 280.5,306.5C 279.667,291.178 279.167,275.844 279,260.5C 278.617,259.944 278.117,259.611 277.5,259.5C 271.309,254.248 264.976,249.248 258.5,244.5C 261.777,244.784 264.943,244.451 268,243.5C 269.61,245.597 270.777,247.93 271.5,250.5C 272.893,251.863 274.559,252.696 276.5,253C 277.682,255.261 279.349,257.095 281.5,258.5C 283.29,273.747 283.957,289.08 283.5,304.5C 285.273,303.913 287.106,303.58 289,303.5C 293.825,304.232 298.658,304.898 303.5,305.5C 308.797,304.509 314.13,303.842 319.5,303.5C 320.119,290.835 320.786,278.168 321.5,265.5C 321.41,263.772 321.077,262.106 320.5,260.5C 320.957,259.702 321.624,259.369 322.5,259.5 Z"/>
  </g>
  <g>
    <path style="opacity: 0.937; fill: rgb(231, 231, 231);" d="M 111.5,297.5 C 110.261,300.589 108.761,303.589 107,306.5C 105.67,307.582 104.17,308.249 102.5,308.5C 102.821,306.952 103.821,306.285 105.5,306.5C 106.478,303.869 107.478,301.202 108.5,298.5C 109.325,297.614 110.325,297.281 111.5,297.5 Z"/>
  </g>
  <g>
    <path style="opacity: 0.974; fill: rgb(231, 231, 231);" d="M 51.5,292.5 C 51.8204,295.898 51.487,299.232 50.5,302.5C 48.8888,303.32 48.2222,304.654 48.5,306.5C 65.8365,306.667 83.1699,306.5 100.5,306C 101.833,305 101.833,304 100.5,303C 101.833,302.667 103.167,302.333 104.5,302C 106.053,298.691 108.387,296.191 111.5,294.5C 111.5,295.5 111.5,296.5 111.5,297.5C 110.325,297.281 109.325,297.614 108.5,298.5C 107.478,301.202 106.478,303.869 105.5,306.5C 103.821,306.285 102.821,306.952 102.5,308.5C 83.8269,308.765 65.1603,308.932 46.5,309C 45.572,308.612 44.9054,307.945 44.5,307C 46.3725,301.848 48.7058,297.014 51.5,292.5 Z"/>
  </g>
  <g>
    <path style="opacity: 0.562; fill: rgb(231, 231, 231);" d="M 335.5,248.5 C 332.128,251.942 328.628,255.275 325,258.5C 324.667,274.833 324.333,291.167 324,307.5C 323.5,308 323,308.5 322.5,309C 308.5,309.667 294.5,309.667 280.5,309C 279.584,308.626 278.75,308.126 278,307.5C 277.5,291.503 277.333,275.503 277.5,259.5C 278.117,259.611 278.617,259.944 279,260.5C 279.167,275.844 279.667,291.178 280.5,306.5C 294.03,307.826 307.53,307.826 321,306.5C 322.453,290.904 322.953,275.238 322.5,259.5C 323.399,256.972 324.399,254.472 325.5,252C 328.583,250.075 331.917,248.908 335.5,248.5 Z"/>
  </g>
  <g>
    <path style="opacity: 0.569; fill: rgb(231, 231, 231);" d="M 547.5,292.5 C 551.106,297.506 553.44,303.173 554.5,309.5C 534.495,308.523 514.495,308.356 494.5,309C 493.177,308.184 492.511,307.017 492.5,305.5C 493.756,305.461 494.756,305.961 495.5,307C 513.497,307.5 531.497,307.667 549.5,307.5C 549.315,302.43 548.648,297.43 547.5,292.5 Z"/>
  </g>
</svg>