<?xml version="1.0" encoding="utf-8"?>
<svg version="1.1" id="Layer_1" xmlns="http://www.w3.org/2000/svg" x="0px" y="0px" viewBox="0 0 531.2 653" style="enable-background:new 0 0 531.2 653;">
  <style type="text/css">
	.st0{fill:#F1DE0F;}
	.st1{fill:#BCA21F;}
	.st2{fill:#009D3C;}
	.st3{fill:#00ACE6;}
	.st4{fill:#DD292C;}
	.st5{fill:#FEFEFE;}
	.st6{fill:#FDFDFD;}
	.st7{fill:#DC292C;}
	.st8{fill:#B89F1E;}
	.st9{fill:#BAA01E;}
	.st10{fill:#00ABE5;}
	.st11{fill:#DA282B;}
	.st12{fill:#BBA11F;}
	.st13{fill:#BAA11E;}
	.st14{fill:#DB282B;}
	.st15{fill:#F1D6B6;}
	.st16{fill:#F0D5B6;}
	.st17{fill:#B99F1E;}
	.st18{fill:#BAA11F;}
	.st19{fill:#F2D7B7;}
	.st20{fill:#F2D6B7;}
	.st21{fill:#B79E1E;}
	.st22{fill:#B59C1D;}
	.st23{fill:#F1F1F1;}
	.st24{fill:#F6F6F6;}
	.st25{fill:#D9282B;}
	.st26{fill:#EDDA0F;}
	.st27{fill:#AD951D;}
	.st28{fill:#B69D1E;}
	.st29{fill:#EDD2B3;}
	.st30{fill:#B0981D;}
	.st31{fill:#E8D60E;}
	.st32{fill:#ECD2B3;}
	.st33{fill:#B9A01E;}
	.st34{fill:#D7282B;}
	.st35{fill:#A9921C;}
	.st36{fill:#EACFB1;}
	.st37{fill:#B49B1D;}
	.st38{fill:#B59C1E;}
	.st39{fill:#B49C1E;}
	.st40{fill:#C1AB8C;}
	.st41{fill:#D4272A;}
	.st42{fill:#C92528;}
	.st43{fill:#9A8519;}
	.st44{fill:#A7901B;}
	.st45{fill:#C22426;}
	.st46{fill:#9B8619;}
	.st47{fill:#771617;}
	.st48{fill:#C4AE95;}
	.st49{fill:#C2AD94;}
	.st50{fill:#332D26;}
	.st51{fill:#0D0702;}
	.st52{fill:#161E13;}
	.st53{fill:#141D14;}
	.st54{fill:#070A06;}
	.st55{fill:#100803;}
	.st56{fill:#090D08;}
	.st57{fill:#0A100B;}
	.st58{fill:#0E130C;}
	.st59{fill:#201006;}
	.st60{fill:#242424;}
	.st61{fill:#2B2B2B;}
	.st62{fill:#343434;}
	.st63{fill:#4A4A4A;}
	.st64{fill:#121212;}
	.st65{fill:#2E2E2E;}
	.st66{fill:#383838;}
	.st67{fill:#1D1D1D;}
	.st68{fill:#555555;}
	.st69{fill:#323232;}
	.st70{fill:#080701;}
	.st71{fill:#030200;}
	.st72{fill:#1B1814;}
	.st73{fill:#00AAE4;}
	.st74{fill:#00AAE3;}
</style>
  <path d="M261.5,0c2.9,0,5.8,0,8.7,0c6.9,0.8,11.5,4.7,15.1,10.3c1,1.7,2.8,2.1,4.5,2.7c8.2,2.8,13.6,8.2,14.4,17.2 c0.2,2.6,1.5,4.2,3.6,5.7c10.6,8,10,24-1,31.5c-1,0.7-2.8,0.7-2.5,2.4c0.3,1.4,1.7,1.8,2.9,2.2c1.5,0.6,3.1,1,4.8,1.1 c5.3,0.3,6.2-0.8,4.1-5.8c-2.8-7-1.1-13.5,5.1-17.6c3.2-2.1,5.8-4.9,8.7-7.4c5.4-4.6,11-4.5,15.9,0.5c2.8,2.8,5.2,6,7.7,9.1 c5,6.2,5.3,12.8,1.4,19.7c-2.5,4.4-1.4,6.2,3.6,6.1c3.1-0.1,6.1-0.8,8.9-2.2c-0.6-1.6-2.2-2-3.2-3c-4.5-4.5-6.4-9.7-4-15.8 c1.3-3.3,1.8-6.6,1.1-10.1c-0.4-2.3-0.2-4.7-0.2-7.1c0.3-7.1,4.2-12.1,11-13.6c4.6-1,9.1-2.3,13.5-3.9c10.3-3.7,17.6-1.2,23.4,7.9 c2.5,4,5,7.4,9.6,9.7c6.7,3.3,8.3,14.9,3.8,21.3c-0.9,1.3-2.1,2.5-3.1,3.8c-1.7,2.1-1,4.9-2,7.2c-2.6,5.8-7.4,8.5-13.9,9.3 c2.1,3.4,4.6,5,7.6,5.9c2.1,0.6,4.4,1.5,6.2-0.2c1.8-1.7,0.2-3.8-0.6-5.5c-2.1-4.6,0.2-8.4,2-12.3c3.4-3.9,7.5-6.8,11.6-9.8 c9.5-7,21.8-2.8,25.4,8.4c0.9,2.8,2.1,5.3,4,7.6c6.1,7.1,5.5,14.3-1.2,20.7c-1.4,1.3-4.4,2-3.9,4c0.5,2.5,3.6,2.6,5.8,3.4 c1,0.4,2.1,0.8,3.1,0c-1.8-13,7.5-21.8,20.9-20.1c20.9,2.6,36.1,13,45.2,32.2c1.2,2.4,2.9,5.1,0.5,7.6c-2,2.1-4.7,1-7.2,0.3 c-6.4-1.9-7.1-1.2-5.9,5.2c1,5.5,2.2,11,0.7,16.7c-2.6,9.7-9.4,15.8-19.3,17.4c-6.2,1-12.2,0.8-18.1-1.4c-3.5-1.3-5.1,0-5,3.8 c0.1,2,0.8,3.9,1.8,5.7c1.5,2.7,3.6,5,5.9,7c3.4,2.9,7.3,5.8,5.5,10.8c-1.8,4.8-6.9,3.9-10.8,4.5c-3,0.5-6.1,0-9.2-0.5 c-3.2-0.5-3.4,1.1-2.2,3.5c1.2,2.3,3,3.6,5.5,4c2.1,0.4,4.3,0.8,6.4,1.4c12.2,3.5,15.9,15.5,8.2,25.7c-7.9,10.4-23.7,12.7-32.6,5.9 c-0.6-0.4-1.2-0.9-2.3-0.3c-0.2,5,2.3,8.7,6.3,11.6c2.1,1.5,4.5,2.3,6.9,3c2.3,0.7,5.6,0.2,6.2,3.4c0.6,3.2-1.7,5.4-3.9,7.4 c-5.7,5.1-12.3,6.5-19.6,3.5c-0.1,7.6,4.1,10.5,10.1,7.5c13.4-6.9,23.8-2.7,28.3,11.6c0.7,2.1,1.7,3.5,3.8,4.1c1,0.3,2.1,0.7,3.1,1 c9.7,2.8,14.6,9.5,15.8,19.3c1.4,12-0.1,23.3-8.6,32.5c-3.3,3.5-0.7,5.4,1.4,7.6c11.6,12.2,18,26.7,19.3,43.3 c1.4,17.4-2.8,33.8-10.2,49.5c-4.7,10-10.8,19.3-14.9,29.6c-6.1,15.3-9.7,31.1-10.7,47.5c-0.4,6.5-2.8,8.4-9.2,7 c-9-2-16.2-6.3-18.8-16.7c-1.6,2-2.2,4-3.2,5.8c-2.8,5-6,9.6-11.7,11.6c-2.9,1-2.5,2.3-1.2,4.4c2.4,3.9,3.8,8.2,3.9,12.9 c0,2.8,1.3,4.7,3.3,6.5c8.2,7.9,8.6,17.7,1.3,26.7c-6.5,7.9-14.4,12.3-25,11.6c-15.8-1.2-29.3-7.1-39-19.7c-4-5.2-8.7-4.4-13.6-4 c-4.8,0.4-7.9,3.3-9.4,7.9c-1,2.9-1.3,6-2.1,9c-2.5,10-8.4,16.5-19,17.4c-4.4,0.4-5.2,2.4-5.3,6.3c-0.4,16.7-8.4,27.1-22.7,29.4 c-4.8,0.8-9.6,1.8-14.6,0.7c-3.1-0.7-5.2,0.6-6.3,3.7c-4.8,13-16.8,18.2-30.7,16.7c-10.5-1.1-17-6.7-19.6-16.7c-0.9-3.5-3.1-4.1-6-4 c-6.2,0.1-12.3,0-18.4-1.4c-4.1-1-8-2.5-11.6-4.6c-8.3-5-11.8-12.9-9-22.3c1.3-4.4-0.1-6-4-6.9c-4.6-1.1-9.1-2.3-13.4-4.4 c-5.3-2.5-8.6-6.4-10.4-11.9c-1-3.1-1.7-6.3-2.6-9.4c-1.7-5.6-8.9-10.8-14.5-10.7c-2.4,0-3.4,1.7-4.6,3.3 c-8.3,11.1-19.1,18.8-32.3,22.8c-16.3,5-30-1.7-36.7-17.5c-3.1-7.3-2.4-14.1,1.9-20.7c1-1.5,2.6-3,2.4-4.8c-0.8-7.3,2.7-12.5,9-16.9 c-8.7-4.7-13.5-11.8-17.3-20.3c-4.2,9.5-11.5,14.4-21.1,16.1c-5.6,1-7.3-0.4-7.5-6.2c-0.3-9.6-0.1-19.2-1.3-28.8 c-1.9-14.9-10.4-26.5-18-38.6c-6.8-11-13.2-22.1-15.5-35.1c-3-16.2,0.7-31.3,7.2-46c3.6-8,8-15.5,14.7-21.4c2.4-2.1,2.6-3.9,0.3-6.3 c-11.2-11.9-11.1-25.7-6.3-40.1c2.4-7,6.6-12.5,13.8-15.2c2.7-1,4.4-2.9,5.9-5.3c7-11.7,16.1-14.3,28.6-8.5c2.2,1,4.3,2.5,6.2-0.3 c1-1.5,2.3-3.2,1.4-5c-0.8-1.5-2.6-0.5-4-0.5c-7.7,0.1-14.2-2.5-19.3-8.3c-3.8-4.2-3.5-5.4,1.9-6.5c6.7-1.3,11.5-5.2,15.4-10.3 c1-1.2,2.5-2.8,1.3-4.3c-1-1.3-2.7-0.1-4,0.3c-7.1,2.2-14.2,4.2-21.8,1.8c-7.9-2.5-12.9-9.4-12.8-18.1c0.1-7.6,4.7-13.1,13-15.3 c1.9-0.5,3.9-0.6,5.9-1.1c2-0.5,3.8-1.4,4.8-3.2c0.8-1.4,1.5-3.1,0.6-4.6c-1-1.6-2.6-0.9-4-0.5c-5.6,1.5-10.8,0.4-15.6-2.6 c-4.8-2.9-4.9-5.1-0.5-8.5c2.9-2.2,5.6-4.6,7.7-7.6c1.6-2.2,2.8-4.7,3-7.5c0.3-4.9-1.5-6.2-6.1-4.5c-13.8,5-27.3,0.6-34.8-11.8 c-3.8-6.3-3.3-13.2-1.5-20c0.4-1.6,1-3.1,1.5-4.6c0.9-2.4-0.2-2.9-2.3-2.7c-2.3,0.2-4.6,0.9-7,0.8c-3.2-0.1-4.6-1.4-3.8-4.9 c1.3-5.3,4.4-9.6,7.7-13.6c10.7-13.3,25.4-19.5,41.8-22.1c7.1-1.1,15,5,16.7,12.1c1.1,4.6-1,7.6-5.2,9.6c3.6-0.2,7.1,0,10.1-2 c3.6-2.4,3.8-4.8,0.7-7.7c-7-6.7-7.5-13.7-1.3-21c1.8-2.2,2.8-4.6,3.7-7.2c3.8-11.3,13.3-14,22.3-6.4c2.2,1.9,4.6,3.6,7.2,4.9 c7.1,3.4,10.3,9.3,10.9,16.9c0.3,3.6,2.1,4.6,5.3,3.2c2.4-1.1,2.7-2.3,0.3-3.8c-6.3-4.2-10-9.8-9.9-17.6c0-0.9-0.4-1.7-0.8-2.6 c-4-9.6-2.5-16.5,5.3-23.2c1.7-1.4,3.2-2.8,3.7-5.1c2.9-12.3,14.6-14.6,24.7-10.8c5.2,1.9,10.1,4.7,15.4,6.6 c7.1,2.6,11.2,10.9,10.4,19.8c-0.3,3.7-0.3,7.1,0.9,10.7c1.4,4.3,1.1,8.6-1.1,12.7c-0.5,1-1.9,2.3-0.1,3.2c1.9,0.9,4,0.5,5.8-0.5 c1.6-0.9,0.5-2.1-0.2-3.2c-4.8-7.9-4.7-9.7,1-16.8c1.3-1.6,1.9-3.5,2.6-5.3C182.7,39,193.8,36.7,203,46c1.5,1.6,3,3.1,4.9,4.2 c8.5,4.8,10.4,12.7,5.4,21.1c-0.3,0.5-0.6,0.9-0.3,1.9c4,0.8,8.1,0.9,11.8-1.6c1.8-1.2,2.7-2.2,0.1-3.9 c-13.3-8.6-14.1-22.1-1.9-32.2c2.1-1.7,3.4-3.6,4.1-6.2c1.9-7.1,6.6-11.5,13.3-13.9c2.2-0.8,4.6-1.4,5.7-3.7 C249.2,5.1,254.6,1.5,261.5,0z" style="fill: rgb(231, 231, 231);"/>
  <path class="st0" d="M201.7,302.3c-1.9,0.5-2.8-0.5-3.9-1.1c-19.5-10.4-39-20.8-58.5-31.1c-2.3-1.2-3.5-2.5-3.4-5.4 c0.7-35-5.4-68.9-16.2-102.1c-1.5-4.6-0.3-5.8,3.7-7c84.8-26,170.4-30.4,257-9.5c9.2,2.2,18.2,4.7,27.4,6.8c3.8,0.8,4.3,2.4,3.5,6 c-5.5,26-12.5,51.8-16.4,78.2c-1.3,8.6-1.8,17.3-2.5,26c-0.2,2-0.1,3.9-2.6,4.7c-17.6,5.5-32,16.8-47.4,26.2c-0.9,0.5-1.8,1-3.3,1.8 c-0.6-12.6-1.3-24.6-3.1-36.6c-2.2-14.7-6.9-28.4-12.8-41.9c-7.1-16.1-15.4-30.9-30-41.8c-5.3-3.9-5.9-11.4-8.1-17.5 c-0.2-0.5-0.3-1.3,0-1.5c7.3-5.4-0.2-11.7,2-17.2c-1.6-0.6-2.2-0.1-2.6,0.5c-2,3.2-4.1,3.6-6.4,0.3c-1.7-2.5-3.5-3-5.2,0 c-1.5,2.6-3,2-4.5,0.1c-1.9-2.4-3.5-2-5,0.3c-1.3,2-2.7,2.8-4.8,1c-1.3-1-2.1-1.3-3.9,0.3c-1.6,1.4-6.3,1.7-7.6,0.5 c-2.6-2.6-2.4-0.5-2.9,0.9c-1,3-1.4,6,0.9,8.7c6.2,7.6,5.8,16.6-1.3,23.8c-5.6,5.7-10.9,11.7-15.5,18.2c-0.7,1-2.2,2.7-1.9,3.1 c3.6,4.7-1.4,6-3.3,8.4c-3.8,4.7-7.3,9.6-9.5,15.2c-3.2,8.2-19.4,10.7-26.1,9.3c-1.8-0.4-1.8-2.1-2.4-3.3c-3-7-6-14-9-21 c-1.7-4-3.9-7.6-1.9-12.7c1.6-3.9-0.8-8.4-5-10.4c-4.4-2.1-8.1-0.1-10.9,3.5c-2.8,3.7-4.1,8.3-0.4,11.3c5.1,4.1,6.2,9.8,8.2,15.3 c1.2,3.2,2.4,6.5,3.6,9.7c1.6,4.1,3.4,7.8,2,12.8c-1.7,6.3,3.2,11.5,6.4,15.8c3.2,4.3,5.3,8.8,7.4,13.6c1.5,3.5,2.7,7.1,5,10.2 c0.9,1.2,1.8,2.4,3.5,2.2c2-0.2,2.7-1.8,3-3.4c1.2-4.9,0.1-9.7-0.4-14.6c-0.2-2-2-5,0.4-5.9c2.9-1.1,6.4-0.6,9.6,0.6 c1,0.4,0.8,1.5,0.7,2.4C204.2,271.1,203.4,286.9,201.7,302.3z" style="fill: rgb(210, 206, 206);"/>
  <path class="st1" d="M45,105.8c1.7,6.2,6,8.9,11.6,9.3c7.5,0.6,14.8-0.4,21.9-3.2c9-3.6,12.4-8.8,11.9-18.4c-0.2-3.2-1-5.8-4.9-3.1 c-3.3,2.3-6.3,1.6-8.7-1.3c-2.7-3.4-0.3-5.6,2.3-7.6c2.3-1.8,3.1-4.3,3.8-7c1.6-5.9,6.1-7.5,11.1-4c2,1.4,4.1,2.2,6.4,2.7 c3.2,0.6,5.6,2.5,6.9,5.6c1.8,4.5-0.5,7.5-5.3,7c-2.2-0.2-5.1-1.7-5.7,1.9c-0.5,3.1,0.6,6.1,4,6.8c10.9,2.3,21.7,4.2,31.6-3.7 c4.9-3.9,6.9-8.6,6.7-14.6c-0.1-2.4-0.7-3.3-3.3-2.5c-3.3,1-6.7,1.7-10.2,1.3c-5.7-0.7-8.5-5.8-5.5-10.6c1.1-1.8,0.8-2.6-0.2-4.1 c-5.5-8.4-4.4-12.6,4.4-16.8c1.9-0.9,1.4-2.2,1.7-3.5c1.3-6.9,9.1-11.5,15.8-9.3c0.3,0.1,0.7,0.3,1,0.4c3.7,1.4,2.4,6.8,4.8,7.7 c2.5,1,6.1-1.6,9.1,0.9c3.6,3,5,7.4,2.3,11c-1.8,2.4-1.3,3.5,0.5,5.3c3.4,3.5,3.1,7.5,0.7,11.5c-2.5,4.2-6.2,5.3-10.8,4.1 c-1.3-0.3-2.7-1.9-3.8-0.1c-1.1,1.7-0.9,3.7,0.4,5.1c4.7,4.8,9.3,10.1,16.4,11c9.7,1.4,18.7-1.1,26.4-7.5c1.1-0.9,2.1-2.1,2.7-3.3 c1.9-4.2,0.5-6.5-4.1-6.9c-5.1-0.5-9-4.3-7-8c2.5-4.6,6.5-8.6,10-12.6c2.4-2.8,7.4-0.2,7.8,3.9c0.3,2.9,1.3,3,3.7,2.9 c4-0.1,5.2,2.7,5.1,6.2c-0.1,3.3-1,6.1-5,6.5c-4.9,0.5-6.4,4.3-3.4,8.3c1.8,2.5,4.6,3.5,7.4,4.2c16.5,3.8,35.7-5.8,42.4-21.2 c0.9-2.2,1.8-4.4,1.8-6.8c0-1.4,0.2-3.1-1.9-3.3c-1.8-0.1-3.3,0.4-3.7,2.4c-0.4,1.6-0.5,3.2-0.9,4.8c-1.5,5-5.4,6.7-10.1,6.5 c-4.5-0.2-7.8-2.2-8.9-7.2c-1.9-8.6-0.2-12.3,8.2-15.4c2.1-0.8,2.6-1.9,2.8-3.9c1-8.9,5.4-14.3,14-16.3c2.5-0.6,2.6-2,3.1-3.6 c1.4-4.4,3.5-8.3,8.7-8.3c5.7,0,11.5,0.6,14.3,6.8c0.7,1.6,1.5,2.5,3.4,2.9c9.1,2.4,15.1,10.6,14.5,20c-0.2,2.8,1.4,2.3,2.9,2.6 c7,1.5,9.8,5.3,8.4,12c-0.7,3.8-1.9,7.9-6.6,8.3c-4.9,0.4-8.6-2.5-9.9-6.9c-1-3.5-2.3-5.4-5.8-4.3c-3.8,1.3-2.3,4.3-1.6,6.9 c2.2,7.9,7,13.9,14,18c8.5,4.9,17.9,7,27.7,6.5c7.4-0.4,11-4.6,10.3-11.1c-0.3-2.9-0.9-4.9-4.6-3.9c-2.9,0.7-5.1-0.5-5.2-3.8 c-0.1-2.9-0.1-6.4,3.6-6.9c2.7-0.4,3.5-1.2,3.8-3.9c0.4-3.7,3.2-5,6.6-5.1c3.3-0.1,5.7,1.3,6,4.9c0.1,1.9,0.7,2.9,2.6,3.4 c4,1.2,4.5,4.4,3.7,7.9c-0.9,3.9-3.3,6.2-7.4,5.4c-3.3-0.7-3.8,1-3.9,3.4c-0.3,4.9,2,8.3,6,10.8c8.7,5.5,26.5,4.8,34.9-1.2 c1.9-1.4,3.6-3,4.7-5.2c1.1-2.2,2-4.7,0.8-6.8c-1.2-2-3.2,0.2-4.8,0.3c-8.8,0.6-15.9-8.5-12.4-16.4c0.9-2.1,0.4-3.9,0.3-5.8 c-0.4-7.1,2.1-10.6,9-11.6c1.9-0.3,2.8-1.1,3.6-2.6c2.8-5.3,7.3-6.6,12.9-5.2c5.3,1.4,9.7,3.6,8.9,10.2c-0.3,2.7,1.4,2.6,3.3,3 c5.1,0.9,9.3,7,8.6,12.2c-0.1,0.5-0.1,1.4-0.4,1.5c-5.5,2.8-3.9,7.7-4.1,12.4c-0.1,3.7-3,6.7-6.8,7.6c-3.8,1-6.1-1.4-7.8-4.4 c-0.4-0.7-0.5-2-1.7-1.7c-1.2,0.2-1.7,1.3-2,2.4c-1.2,5.3,0.1,10.1,3.5,14.3c7.5,9.3,25.1,12,35,5.3c1.4-0.9,2.5-2.1,2.7-4 c-1.1-1.5-3-0.4-4.4-1.2c-3.3-1.8-5.2-4.6-5.2-8.3c0-3.9,2.7-5.8,5.9-6.9c2-0.7,3.8-1,5.1-3.3c2.4-4.2,6.3-3.5,10-1.7 c3.8,1.8,7.2,4,5.7,9c-0.6,2-1.2,3.6,1,5.2c2.8,1.9,3.6,4.6,1.5,7.5c-2.1,3-4.7,5.1-8.7,3.2c-0.8-0.4-1.5-1.1-2.7-0.5 c-1.1,7.5,1.2,14,7.5,18.4c9.9,6.9,20.8,7.8,32.1,4c2.2-0.7,4-1.9,3.8-4.6c-0.2-2.6-2.1-3.6-4.3-4.2c-1.6-0.5-3.2-0.7-4.6-1.4 c-2.5-1.3-3.7-3.5-2.7-6.4c0.8-2.5,2.7-3.6,5.4-3.7c15.1-0.7,26.1,6.8,35.5,17.6c-1.6,2-3.5,1.4-5.1,0.7c-6.2-2.6-11.6-0.8-17,2.4 c-6.8,4.1-14,6.8-22,7.1c-14.4,0.5-25.7-5.4-34-16.9c-2-2.7-3.8-3.8-7.1-3.5c-3.2,0.3-6.5,0.2-9.8,0.2c-11.4,0-20.8-4.2-28.1-13 c-1.9-2.3-3.3-2.9-6.3-1.1c-15,9.3-30.1,7.1-45-0.4c-2.3-1.1-3.8-1.8-6.3-0.4c-5.6,3-11.7,3.8-17.9,2.7 c-16.9-2.9-32.1-8.5-38.4-26.7c-0.7-2.2-1.8-2.7-4.1-2c-2.8,0.9-6,1.2-8.6,0.1c-4.2-1.8-5.6-0.5-7.4,3.4 c-10.3,22.1-36.5,31.6-58.5,21.4c-2-0.9-3.3-0.9-4.8,0.5c-1.5,1.3-3.2,2.4-4.8,3.5c-14.1,9.2-27.1,9-41.1-0.4 c-1.3-0.8-2.9-4-4.5-0.4c-5.8,13.2-17.2,16.9-29.9,16.2c-9.5-0.5-15.8,1.1-22.8,8.8c-9.7,10.5-24.1,11.5-38,9 c-3.4-0.6-6.1-2.9-8.8-5.2c-6.3-5.3-13.2-7.3-21.1-3.6c-1.3,0.6-2.7,1.1-4.2,0.6c-1.9-0.6-2.6-1.6-0.7-2.9 c9.3-6.6,18.9-12.9,30.1-15.9c3.3-0.9,7-1.3,9.5,2c1.9,2.5,1.1,5.2-0.3,7.7c-2.2,3.7-5.7,3.3-9.2,2.3C46.4,105.6,46,105.7,45,105.8z " style="fill: rgb(231, 231, 231);"/>
  <path class="st1" d="M254.1,93.1c70.5-0.1,132.5,9.7,193.3,28.2c3.9,1.2,5.6,3.3,6.5,7c1.3,5.5,1.4,10.8-1.1,15.9 c-4.3,8.8-10.8,11.6-20.1,8.9c-58.4-17.2-117.6-28.8-178.8-26.5c-56,2.1-111,11.3-164.7,27.4c-4.7,1.4-7.2,0.6-9.5-3.7 c-3-5.6-6-11.1-6.5-17.7c-0.3-3.9,0.9-6.2,4.8-7.8c26.9-11.3,54.9-18.4,83.6-23.4C194.5,95.5,227.7,92.9,254.1,93.1z" style="fill: rgb(211, 211, 211);"/>
  <path class="st0" d="M214.8,385c-4.2-5.1-8-10.3-6.6-17.4c0.3-1.8-1-3-2-4.3c-1.5-2-2.2-4.1-0.8-6.5c1.7-3,0.2-5.2-2.3-6.8 c-0.8-0.5-1.6-0.8-2.4-1.3c-8.9-5.8-8.9-5.8-13.7,3.7c-0.5,1-1.6,2.2-0.6,2.9c3.8,2.8,2.8,7.3,4.5,10.6c2.8,5.4,3.2,11.9,7.8,16.4 c0.3,0.3,0.4,1.3,0.1,1.5c-3.8,3.2-2.3,6.1-0.1,9.7c1.4,2.4-1,3.9-3.4,4.2c-1.5,0.2-2.9-0.4-4-1.4c-6.2-5.9-13.3-10.4-20.5-14.9 c-6.6-4-7.5-12.1-3.6-19.2c1.7-3,2.4-6.2,1.1-9.4c-0.8-2-1.3-7-5.3-2c-1.2,1.5-2.4,0.4-3.2-0.5c-2.6-3-4.3-1.4-5.7,1.1 c-1.5,2.6-3.3,3.8-6,1.5c-1.9-1.6-3.3-0.9-4.2,1.2c-1,2.2-2.5,3.3-5.2,2.8c-3-0.6-5.6-1.1-7.9,2.4c-1.8,2.6-3.5-2.2-6.6-1.5 c-0.8,3.4-0.1,6.8,1.9,10.1c0.8,1.4,1.8,2.7,2.7,4.1c2.8,4.2,2.3,9,2.9,13.6c0.9,8-6,5.7-9.6,7.2c-9.5,3.8-11.9,5.6-17.8,16.4 c-1.9-0.2-1.9-2-2.4-3.1c-7.5-18.1-10.5-37.2-12.5-56.6c-0.2-2.1,0.3-3.2,2.5-3.9c13-4.4,22.3-13.1,28.5-25.2 c3.8-7.4,7.4-15,10.1-22.9c1.6-4.6,3.5-4.4,6.9-2.3c3.3,2,6.2,4.3,9.1,6.8c3.3,2.8,6.5,5.8,10.1,8.2c7.9,5.2,12.7,12.2,14.8,21.3 c0.3,1.1-0.1,2.9,1.6,3.1c1.6,0.2,2.7-1,3.5-2.3c1.7-2.7,1.8-5.8,1.8-8.9c0-1.3-1-3.2,1.2-3.6c1.7-0.3,3.2,0.7,3.9,2.4 c0.5,1.2,0.7,2.4,1.1,3.6c1.4,4.1,3.6,7.8,8.3,8.5c4.3,0.6,8.8,0.8,10.7-4.8c0.6-1.7,2.2-1.9,3.6-0.8c2.3,1.8,2.4,4.3,0.7,6.2 c-3.8,4.4-3.3,8.9-1.3,13.7c3.2,7.5,6.8,9.6,15.5,8.3c3.2-0.5,4.6,0.3,5.6,3.2c5.5,15.8,9.8,31.9,10.9,48.6 c0.7,11.1,4.1,21.3,8.9,31.2c6.5,13.4,6.9,27.6,6.4,42c-0.1,2-0.7,4.1-2.5,5.2c-1.5,0.9-4.1,1.8-4-1.1c0.2-10.1-7.5-12.1-14.4-14.3 c-6.4-2-10.3,2.8-14.2,7c-0.2,0.2-0.6,0.4-2,1.2c0-5.5,0-10.5,0-15.4c0-3.8,0.5-7.8-0.4-11.4c-2.2-8.6-2.2-16.5,1.7-24.8 c2.2-4.7,1.2-10.4-2.2-15c-1.1-1.5-1.8-2.7-0.7-4.4C221,400.7,219.3,392.8,214.8,385L214.8,385z" style="fill: rgb(204, 204, 204);"/>
  <path class="st0" d="M346.3,317.7c1.2,5.1,1.8,8.9,4.7,11.7c1.9,1.9,3.6,3.1,5.1-0.6c2.8-6.7,7.7-11.7,13.2-16.3 c9.3-7.7,18.6-15.5,28.4-23.8c1.5,5.8,2.8,11,4.2,16.1c5.1,18.7,17.5,30.9,34.7,38.6c1.5,0.7,2.2,1.1,2.4,2.9 c1.2,16.9-12.9,67.4-23.3,82.6c-3.2-4.8-6.2-9.4-9.3-13.9c-7.5-10.9-15.2-21.7-27.2-28.4c-3.7-2.1-3.9-8.4-0.5-11.3 c3.7-3.2,7.8-5.9,12.2-9.2c-4.4-2-8.7-4-7.5-9.9c0.1-0.3-0.3-0.9-0.4-0.9c-5.8,1.1-8.4-6.3-14.2-5.1c-4,0.8-6.1-0.7-6-5 c0-1.5,0.1-3.8-2.2-3.6c-6.2,0.7-11.2-1.4-15.6-7.9c-0.3,6.2-0.5,10.7-0.8,15.2c-0.2,3.7,0.5,7.6-2.1,10.9c-0.6,0.8-0.6,2.6-0.2,3.7 c1.6,4.4,0.3,6.7-4.3,7.8c-2.8,0.7-3.1,3.4-2.8,5.8c0.5,4-1.5,5.4-4.8,7.2c-8.5,4.5-15.3,11.2-18,20.8c-2.1,7.4-4.9,14.5-9.3,20.7 c-7.4,10.6-10,22.8-12.8,35c-1.8,7.8-3.3,15.6-5,23.4c-0.3,1.5,0,3.7-2.3,3.8c-2.3,0.1-3.6-1.7-4.1-3.7c-2.2-8.5-3.7-17.4-0.4-25.7 c5.7-14.4,10.5-28.9,13.4-44.1c2.7-14.1,2.8-28.5,6.9-42.4c1.5-5.1,3.1-10,5.8-14.6c1.2-2.1,2.6-2.8,5.3-2.4 c9.9,1.5,16.8-6.8,14.3-16.6c-0.5-2-1.4-4-3.4-4.6c-5-1.4-2.6-3.3-0.6-5.3c1.6-1.5,3.5-2.6,6-3.1c1.4,1.5-0.4,4.5,2.1,5.5 c2.5,0.9,4.5-0.8,6.7-1.5C340,327.8,343.2,323.7,346.3,317.7z" style="fill: rgb(194, 194, 194);"/>
  <path class="st1" d="M116.3,482.2c8.1-0.5,15-0.8,21.8-1.4c3.1-0.3,4.5,1.8,6.3,3.6c23.6,23.8,50.7,42.3,80.9,57 c30,14.6,58.3,12.5,86.6-3.7c28.2-16.1,54.6-34.3,76.1-59c1.6-1.9,3.2-2.6,5.6-2c6.4,1.8,13,2.6,19.1,3.3 c-7.1,7.5-13.6,15.7-21.4,22.5c-22.8,19.9-47.2,37.9-73.3,53.4c-30.3,17.9-61.8,17.9-94,4.9c-30.9-12.5-57.2-31.7-82.2-53.3 C133.1,499.9,124.7,492,116.3,482.2z" style="fill: rgb(190, 190, 190);"/>
  <path class="st2" d="M444.8,461.5c-17.6,11.1-35.9,13.2-56.2,6.1c4.5-2.6,8.3-4.7,12-6.9c2.9-1.7,3.8-3.5-0.3-4.9 c-0.5-0.2-1-0.4-1.4-0.8c-1.8-1.6-5.3-2.6-4-5.6c1.4-3.4,4.9-4,8.4-3c1.5,0.5,3,1.3,4.5,1.9c2.9,1,5.9,2.8,5.3-3.1 c-0.3-3,2.4-3.8,5.1-2.8c1.6,0.7,3,2,4.6,2.9c2.5,1.4,5.5,1.7,7.7,0.3c2-1.3-0.2-3.6-0.4-4.8c8.5-4.7,18-4.1,26.8-6.2 c10.8-2.6,20.8-8.6,26.8-19c0.7-1.2,1.1-3.8,3.3-2.7c1.6,0.8,0.8,2.9,0.4,4.5c-2,8.1-5.6,15.4-12.1,20.8 c-8.6,7.4-15.9,15.8-22.6,24.9c-9.1,12.3-20.1,22.8-30.6,33.8c-8.3,8.7-12.4,19.1-14.5,30.4c-1.9,10.2,6.3,19.9,15.9,19.7 c1.6,0,3.5,0.3,4.2-1.7c0.6-1.7,0-3.2-1.3-4.5c-0.1-0.1-0.3-0.3-0.4-0.4c-1.6-2-4.9-3.2-3.1-6.7c1-1.9,2.9-2.8,5-2.6 c3.6,0.2,6.2,2.2,7.7,5.3c3.1,6.7-2.1,14.9-9.5,15.3c-20,1.1-28.9-9.6-24.3-29.4c0.3-1.2,0.5-2.4,0.8-3.7c-7.8,2.4-11.8,19.1-8,32.3 c3.6,12.4,22,20.2,38.7,16.1c-0.8-2.3-3.6-3.8-3-6.6c0.6-3.1,1.2-6.4,4.4-7.6c3.6-1.4,6.6,0.6,9.3,3c2.8,2.7,3.8,6,2.1,9.4 c-2.9,6.1-7.6,10.2-14.8,10.2c-7.4,0-14.9-0.7-22.1-2.5c-10.8-2.8-17.1-10.7-20.2-20.9c-2.2-7.3-2.8-15-2.3-22.6 c0.6-8.1,3.8-15,9.7-20.7c13.4-13,28.3-24.3,41.2-37.8C440.3,468.2,443.2,465.6,444.8,461.5z" style="fill: rgb(231, 231, 231);"/>
  <path class="st2" d="M142.8,468.6c-21,7.2-39.4,5-57.6-7.5c1.2,3.8,3,5.6,4.7,7.4c10.2,11.1,21.9,20.6,33,30.7 c2.7,2.4,5.2,5,8.1,7.2c12.6,9.7,14.7,23,12.8,37.6c-0.4,2.7-0.5,5.5-1.3,8c-3.8,11.8-10.7,20.6-23.7,22.7 c-5.7,0.9-11.5,1.5-17.2,1.9c-7,0.6-12.1-2.6-15.7-8.6c-1.7-2.9-2.4-5.7-0.5-8.7c2-3.2,4.7-5.6,8.7-5.7c4.9-0.2,8.4,6.7,5.8,11.3 c-0.6,1.1-1.5,1.9-2.3,2.9c13,4.6,32.2-1.7,37.6-12.2c5.6-10.7,2.3-30.7-6.7-36.8c1.4,5.3,2,10.2,1.8,15.2c-0.5,12-7.8,19-19.6,18.9 c-2.5,0-5.1,0.1-7.6-0.3c-4.8-0.7-6.9-4.3-7.8-8.6c-0.9-4.6-0.2-8.7,4.6-11c2.9-1.3,5.6-1.4,7.9,1.2c2.6,3,0,4.5-1.8,6.2 c-1.8,1.8-3.4,3.8-2,6.1c1.3,2,3.8,1.6,6,1.3c7.9-1.1,13.9-8.1,13.5-16.5c-0.6-13.4-6-24.9-15.4-34.4 c-13.7-13.8-26.4-28.3-38.3-43.7c-4.4-5.7-10.1-10.4-15.3-15.4c-5.8-5.6-9.2-12.5-10.8-20.3c-0.3-1.4-1-3.1,0.7-3.8 c1.6-0.7,2.1,1.1,2.6,2.1c4,7.8,11.2,12,18.3,16.4c7.3,4.4,15.1,4.3,23.1,4.3c2.3,0,4.8-1,5.9,2.8c0.7,2.4,4.4,0.3,6.4,1.6 c0.5,2-2.7,4.6-0.1,5.8c2.4,1.1,5.6,1.2,8.1-0.9c0.8-0.7,1.7-1.4,2.7-1.9c4.1-2.1,6.3-1.1,6.4,3.4c0.1,3,1.1,3.4,3.6,2.5 c2.5-0.9,5-2.1,7.7-2.7c2.9-0.6,5.8,0.3,6.9,3c1.2,2.8-1.7,4.1-3.5,5.4c-5.6,4.1-5.7,4.2,0.3,7.7C135.7,465,138.6,466.4,142.8,468.6 z" style="fill: rgb(190, 190, 190);"/>
  <path class="st3" d="M335,290c0.8,5.3-0.6,11.6-8.4,15.6c-3.6,1.8-6.3,5.4-9.7,7.8c-2.3,1.6-5.1,2.5-6.6-1.3 c-0.3-0.6-0.8-1.5-1.4-1.6c-7.1-1.6-5.2-7.2-5.3-11.9c-0.1-9,1.2-18.4-0.7-27.1c-3.3-15.3-6.1-30.9-13.9-44.8 c-2-3.6-1.3-4.8,2.4-5.9c6.3-1.7,12.5-3.8,18.5-6.1c3.6-1.4,5.3-0.3,6.7,2.9c4.5,10.5,8.2,21.3,11,32.3 C330.9,262.4,335.1,274.6,335,290z" style="fill: rgb(231, 231, 231);"/>
  <path class="st2" d="M447.3,206.8c-1.5,15.3-5.5,30.8,3.5,45.7c-7.2-0.7-8.6-6.4-11.9-12c-0.6,14.2-0.5,27.1,3.2,39.6 c1.6,5.2,9.4,10.3,14.8,10.5c4.3,0.1,5.7-2.4,4.6-5.9c-1.1-3.6,0-6,2.9-7.9c2.1-1.4,4.4-1.7,6.6-0.2c2.9,2,3.6,4.8,3.4,8.1 c-0.8,8.5-3.9,11.3-12.6,11.5c-14.5,0.2-21.8-5.5-25.2-19.6c-4.1-17-3.5-33.9,0.7-51c5.7-22.9,11-45.8,18.9-68 c5.6-15.6,16-27.4,30.6-35.4c9.5-5.2,15.9-1.9,22.7,5.9c1.6,1.8,1.3,4.1,1.1,6.3c-1.3,13-16.6,20.2-27.5,12.8c-3.9-2.6-2.9-5.8-1-9 c2.6-4.4,7.3-6,10.5-3.2c3.7,3.2,6.3,2.1,8.4-1.4c2.4-4.1-0.8-5.9-3.9-7.3c-2.7-1.2-5.9-2.1-8.3-0.2c-8.4,6.7-18.1,12.7-20,24.6 c-1.4,9-1.2,18,0.4,27.1c0.5,2.8,2.5,4.7,4.5,6.9c-6.2,0.1-10.5-3.5-10.8-9.2c-0.3-6.7-0.1-13.4-0.1-21c-4.2,5.1-4.8,10.5-5.2,15.7 c-0.6,7.4-0.2,14.9-0.4,22.3c-0.1,2.3,0.9,3.6,2.8,4.7c1.5,0.9,2.4,2.5,1,4.1c-1.7,2-3.3,0.5-4.5-0.8c-3.1-3.3-2.4-8.1-4.3-13.2 c-1,9.8-1.1,18.2,2.5,26.2c3.8,8.5,10.9,11.8,17.4,8.4c-0.3-1.3-1.6-1.4-2.4-2c-2.1-1.5-4.6-3.1-3.1-6.1c1.5-3.1,4.2-4.9,8-4.3 c5.8,0.9,9.1,5,8.9,11.1c-0.1,5.5-3.3,8.5-9.4,9.1c-11.1,1-22.1-6.6-25.3-17.4C448.2,210.2,447.8,208.5,447.3,206.8z" style="fill: rgb(190, 190, 190);"/>
  <path class="st2" d="M92.2,242.1c-6.1,9.8-6.1,9.8-12.6,11.8c10.5-15.1,5-30.7,4.6-46.2c-2.8,13.5-10.8,21.1-24.3,22.5 c-4.2,0.4-8.5-0.2-11.2-4.1c-2.3-3.3-1.9-7-0.2-10.4c2.1-4.2,5.9-5.9,10.3-5.4c2.8,0.3,5.3,1.9,5.8,5c0.7,4.3-3.5,4.9-5.8,6.9 c4.5,3.3,10.3,2.4,14.3-2.9c6.9-9.3,7.8-19.8,5.2-30.8c-0.8,4-0.7,8.1-2.8,11.8c-0.9,1.5-2,2.7-3.8,2.7c-1.2,0-2-0.8-2.3-2 c-0.4-1.8,0.9-2.8,2.2-3.4c1.6-0.7,2.1-1.9,2.2-3.4c1-12.3,1-24.6-3.4-36.4c-0.3-0.8-0.9-1.5-1.8-3.2c-0.9,3.1-0.4,5.3-0.1,7.4 c0.7,5.4,0.7,10.8-0.4,16.2c-1,4.6-4.9,7.6-9.3,7.7c6.7-13.3,6.9-27.3,1.4-40.8c-3.2-7.8-10.4-13.3-17.8-17.8 c-3.7-2.3-7.5-0.8-10.7,1.5c-2.7,1.9-2.7,4.6-0.7,7.1c1.8,2.2,3.7,3,6.5,1.1c5.4-3.7,11.9-0.8,12.9,5.7c0.3,1.8,0.2,3.6-1.3,5 c-3.1,2.8-14.6,4.6-18.1,2.7c-6.1-3.2-11.4-12.3-10.5-17.9c1.4-8.4,13.4-14.2,21.7-10.2c16.1,7.8,27.4,20.4,33.1,37.2 c9.4,27.4,17,55.4,21.7,84.1c2.1,12.8,0.3,25.8-3.5,38.1c-3.8,12.1-17.7,18.7-29.8,14.7c-5.7-1.8-9.1-12.2-5.5-16.9 c1.9-2.6,4.6-3.5,7.7-2.2c2.9,1.3,4.5,3.6,4.1,6.9c-0.8,7.4,1.5,9,8.4,6.4c6.9-2.6,11.2-7.1,12.2-14.5 C91.8,265.1,93.5,254.4,92.2,242.1z" style="fill: rgb(190, 190, 190);"/>
  <path class="st2" d="M117.1,270.2c-2-34.2-5.4-68.2-16.5-101c-1.7-5,0.9-9,6.2-9.8c2.5-0.4,2.5,1.8,2.9,3.1 c4.8,12.9,8.5,26.2,10.3,39.9c2.3,16.9,5.6,33.6,5.9,50.7c0.4,22.5-1.5,44.7-13.1,64.7c-14.6,25.1-39,29.9-63.8,18.8 c-11.3-5-16.4-17.1-13.8-28.5c1.8-8,8.6-13.5,16.2-13.3c5.2,0.2,8.2,3.7,7.6,9c-0.6,5.3-5.6,9.8-10.1,8.1c-4-1.5-3.7,0.5-3.8,3 c-0.3,8,4.3,14.2,12.5,17.1c16.8,5.9,37.4-1.3,48.6-16.6c9.4-12.9,11.2-27.6,10.8-42.9C117.1,271.6,117.1,270.9,117.1,270.2z" style="fill: rgb(231, 231, 231);"/>
  <path class="st2" d="M485.1,310c-7.1,1.8-11.6-0.2-12.6-5.9c-0.7-3.5-0.8-7.2,2.7-9.3c4.3-2.5,8.8-1.8,12.8,0.9 c9,6.1,11.1,18.7,5,29.2c-6.6,11.3-17.6,14.1-29.5,15.5c-27.4,3.2-43.8-15.4-50.9-35.3c-7.5-21.2-9.2-43.2-6.8-65.4 c2.4-22.1,4.9-44.3,11.2-65.7c1.3-4.5,3.1-8.9,4.5-13.4c0.8-2.4,1.7-2.5,4.3-1.6c5.8,2.2,6.2,5.2,4.2,10.6 c-9.7,26.8-12.5,55-15.4,83.1c-1.4,14.1-2,28.2,1.2,42.2c5.3,22.8,24,38.2,45.6,37.8c3.8-0.1,7.6-0.7,11.2-1.9 C482.9,327.6,486.8,320.8,485.1,310z" style="fill: rgb(190, 190, 190);"/>
  <path class="st1" d="M379.2,542.7c1.2,4.1-1.1,5.5-5.5,6.4c-15.2,3-25.5,11.2-28.5,27.4c-1.4,7.5-7.6,9.9-14.6,6 c-5.5-3-11.2-5.2-17.5-4.8c-12.1,0.7-20,14.4-14.8,25.4c1.3,2.8,3.5,4.2,6.6,3.6c2.7-0.5,5.4-0.5,5.8-4.9c0.3-3.7,4-5.8,7.7-5.4 c4,0.5,4.1,4.3,3.6,7.3c-1,6.6-5,11.3-11.4,12.4c-17.2,3.1-28.5-4.8-26.4-23.4c1.9-16.7,19.1-28.4,37.3-26.5c2.7,0.3,5.5,0.5,8,1.4 c3.9,1.4,5.2-0.3,5.6-3.8c1.7-17.3,23-29.8,41.3-28.6C379.1,535.5,379.1,535.7,379.2,542.7z" style="fill: rgb(231, 231, 231);"/>
  <path class="st1" d="M209.1,581.2c-5.9-0.3-11.5,0.1-16.9,2.9c-4.4,2.3-7,1-8.8-3.8c-1.6-4.2-2.6-8.7-4.4-12.8 c-4.5-10.4-11.7-17.6-24-16.9c-3.7,0.2-3.5-2.4-4-4.5c-2.4-9.6-2-10.1,8-8.6c6.1,0.9,11.4,3.3,15.9,7.6c3.4,3.3,6.7,6.6,10.2,9.8 c3.5,3.2,5.8,7.1,6.3,11.7c0.4,3.4,1.4,4.2,4.8,3.1c6.9-2.2,14.1-3.1,21.5-2.8c8.8,0.4,15.7,3.8,20,11.8c4.6,8.5,7.7,17.2,5.5,27.1 c-1.9,8.1-8.4,14.1-16.6,15.2c-9,1.3-18-7-17.1-16c0.4-3.6,1.7-7,5.9-7.3c4.1-0.3,6.5,2,6.7,6.1c0.1,2.2,1.4,2.9,3.1,3.1 c2.5,0.3,4-1.2,5-3.3c4.1-8.3-0.3-18.3-9.2-21.1C217.1,581,213.1,581.4,209.1,581.2z" style="fill: rgb(231, 231, 231);"/>
  <path class="st2" d="M505.5,376.9c6,19.3,5.9,38.1-4.6,55.5c-8.9,14.7-15.1,30.4-21.3,46.3c-3.6,9.3-8.1,18.3-7.7,28.8 c-5.3-7.3-4.9-15.6-4-24.4c-2.7,0.3-3.9,3.3-7.1,3.1c0.9-4.3,3.4-7.5,6.5-10.1c6-5.1,8.9-12.2,12.5-18.8c0.6-1.1,1.7-2.8,0.3-4 c-1.3-1.1-2.8,0.2-3.9,0.9c-4.7,2.8-8.9,6.2-11.9,10.9c-5.2,8.1-9.8,16.4-13.4,25.4c-4.8,12-10.6,23.6-23.3,29.5 c-1.7,0.8-3.7,2.5-5.5,0.8c-1.8-1.7-0.2-3.8,0.4-5.6c3.5-10.8,9.5-20.1,18-27.4c7-6.1,12.4-13.2,17.3-20.7c5.9-9,13-16.8,21.7-23.3 c6-4.5,8.2-12.2,12.1-18.4c8.5-13.4,9.9-28.9,12.4-44.1c0.2-1.1,0.2-2.2,0.4-3.2C504.5,377.6,504.9,377.5,505.5,376.9z" style="fill: rgb(231, 231, 231);"/>
  <path class="st2" d="M70.1,487c-2.7,0.3-3.8-2-6.4-2.2c-0.8,8,1.4,16.8-4.2,24.1c-0.5-0.4-0.9-0.6-0.9-0.8 C55.9,481.4,43.9,458,31,435.2c-10.5-18.6-10.9-37.6-4.8-57.5c1.2,6.8,2.6,13.7,3.5,20.5c1.7,11.9,6.1,22.6,12.4,32.8 c4.3,7.1,8.5,14,15.7,18.9c5.1,3.4,9.1,8.3,12.3,13.7c6.9,11.4,16,20.9,25.3,30.3c6.4,6.5,10.9,14.5,13.5,23.3 c0.5,1.5,1.2,3.3-0.2,4.6c-1.3,1.1-2.8,0.1-4.1-0.5c-6.4-2.6-11.5-6.9-15.3-12.6c-4.3-6.5-7.6-13.5-10.7-20.7 c-5.1-12.2-10.8-24.2-22.3-32.1c-1.6-1.1-3.4-3.2-5.2-1.6c-1.7,1.5-0.2,3.8,0.8,5.5c3.8,6.5,6.9,13.6,13.1,18.5 C67.6,480.5,69.6,483.3,70.1,487z" style="fill: rgb(231, 231, 231);"/>
  <path class="st4" d="M325.3,518.2c-0.7-9.4-1.3-18-1.9-26.6c0-0.7,0.2-1.7,0.6-2c6.1-3.9,3.2-9,1.8-13.9c-0.4-1.3-1.6-3.1,0.2-3.8 c4.6-2,2.9-5.6,2.6-8.8c-0.5-4.5,2.9-9.3,7.4-10.1c3-0.6,5,0.5,5.5,3.6c0.3,1.8,0.8,3.7,0.5,5.4c-0.8,3.9,0.5,5.1,4.4,5.2 c5.6,0.2,11.5,0.6,13.1,7.8c0,0.2,0.2,0.3,0.3,0.5c2.9,4.1,8.4,6.5,11,4.8c3.2-2.1,2.7-5.9-1.3-11.3c-0.9-1.1-1.7-2.3-2.6-3.4 c0.5-0.3,0.8-0.7,1.1-0.7c1.9-0.1,2.6,3.3,4.5,2c2-1.4,0.4-3.6,0.3-5.4c-0.2-4.2,0.5-8.4,0.5-12.7c0-1.6,5.5-3.8,8.7-4.8 c2.4-0.7,1.6,2.6,2.6,3.8c0.3,0.4,0.2,1.1,0.5,1.5c4.7,7.3,4.7,7.3-3.1,9.9c-2,0.7-5.3-0.1-4.9,3.6c0.3,2.8,1.5,4.6,5,5.2 c4,0.7,2.8,4.6,1.2,6.3c-9.4,9.6-18.8,19.2-30.1,26.6c-2.4,1.6-3.7,0.6-4.2-1.9c-0.7-3.2-0.5-6.5,0.1-9.7c0.8-4.6,0-9-0.7-13.5 c-0.5-2.9-1.8-4.2-4.7-3.7c-3.1,0.5-2.2,2.7-1.9,4.6c1.2,6.6-1.7,13.2-0.5,19.5C343.7,509.1,334.2,512.5,325.3,518.2z" style="fill: rgb(231, 231, 231);"/>
  <path class="st2" d="M420.3,263.1c0.5-32.5,6.4-64,16.9-94.7c0.6-1.7,0.4-5.3,3.8-3.3c2.7,1.6,7.7,1.5,5.7,7.2 c-5.3,15-10,30.2-14.2,45.6c-5.7,20.7-6.8,41.8-5.6,63c0.7,11.9,5.8,22.3,15.4,30.1c5.8,4.6,7.9,4.1,10.7-2.5c1.1-2.6,2.3-5.2,5.6-5 c4.1,0.2,7.3,2.2,9.3,5.6c1.8,2.9,0.6,5.6-1.3,8c-5,6.3-14.6,8.2-22.2,4.9c-15.5-6.8-22.1-19.4-23.3-35.6 C420.9,278.7,420,270.9,420.3,263.1z" style="fill: rgb(231, 231, 231);"/>
  <path class="st2" d="M110.5,263.7c0.1,12.3-0.4,24.6-3.4,36.7c-3.2,12.9-12.8,19.3-24,23.8c-6.2,2.5-15.4-1.3-19.4-6.6 c-1.8-2.4-2.2-5.2-0.8-7.7c2-3.5,5.5-5.2,9.5-5.3c3.1-0.1,4.2,2.3,5.2,4.7c2.8,6.7,5.5,7.2,11.2,2.5c11.3-9.4,15.5-22.1,15.8-36.1 c0.4-25.7-3.1-50.9-11.5-75.2c-3.1-9.1-5.8-18.3-8.9-27.3c-2.1-6,3.8-5,6-6.9c2.3-2,2.9,0.9,3.4,2.5 C103.9,199.4,110.5,231,110.5,263.7z" style="fill: rgb(190, 190, 190);"/>
  <path class="st4" d="M277.3,288.8c-0.1-0.9-0.1-0.8-0.1-0.6c0.2,4.3,1.9,9.5-0.5,12.7c-2.5,3.4-7.6,0-11.6,0.4 c-2.9,0.3-5.7,0.6-8.5,1.5c-2.4,0.8-4.7,1.8-7.2,2.5c-7.7,2.3-9.4,1.2-10.2-6.7c-0.7-6.3-1.6-12.6,2.5-18.3c1.3-1.8,0.9-4.1,0.7-6.3 c-0.3-4-0.6-7.9-0.7-11.9c0-2,0.7-4.1,2.6-5.1c2.1-1.1,3.3,0.9,4.5,2.1c1.9,2.2,3.8,1.8,5.6,0.1c2.6-2.6,5.8-2.7,9-3 c3.1-0.2,4.3,1.2,6.4,3.8c3.4,4.3,3.8,9.5,6.4,13.9C278.3,277.4,277,283,277.3,288.8z" style="fill: rgb(231, 231, 231);"/>
  <path class="st3" d="M235.5,244.7c5.5,10.1,1.5,20.6,2.5,30.8c0.1,1.1,0.3,2.5-0.2,3.2c-5.6,6.5-1.7,13.8-1.7,20.7 c0.1,5.8-1.9,8.7-7.6,7.9c-3-0.5-3.4,1.4-4.2,3.1c-2.1,4-4.4,5.1-7.6,1.1c-0.7-0.8-1.4-1.8-2.3-2.2c-7.5-3.1-7.2-8.8-5.8-15.5 c2.4-11.9,2.3-24.1,2.5-36.2c0.1-5.3,2.9-7.1,6.5-5.6c7.2,3,11-1.5,15.6-5.2C234,246,234.6,244.6,235.5,244.7z" style="fill: rgb(231, 231, 231);"/>
  <path class="st2" d="M445.5,416.3c5.7-1.7,11.1-3.4,16.3-7.4c-4.5-1.7-8.7-1.8-11.3-5.2c-1-1.3-2.1-2.9-1.4-4.5 c0.9-2,2.5-0.3,3.7-0.1c1.6,0.2,3.5,0.8,4.5-0.7c1-1.4-1-2-1.5-3.1c-1.3-2.8-1.5-5.5,0.5-8.6c1.9,3.9,3,8.8,7.7,8.3 c7.4-0.8,16,0.5,21.1-6.3c5.5-7.2,8-15.8,5.8-25.1c-1.1-4.7-4.3-7.6-8.2-10.3c-0.3,0.7-0.6,1-0.6,1.3c-0.1,14.5-8.1,12.8-18.1,9.8 c-4.6-1.4-5-7.9-1.5-11.9c6-6.8,19.4-7.1,25.3-0.2c7.7,9.1,10.8,19.6,8,31.4c-1.6,6.9-3.6,13.6-3,20.9c0.3,4.1-3.5,4.4-5.7,3.1 c-3.3-1.9-4.4-0.3-6,1.8c-6.9,9.1-16.5,11.9-27.3,11.7C450.5,420.9,447.1,420.4,445.5,416.3z" style="fill: rgb(231, 231, 231);"/>
  <path class="st2" d="M69.5,409.9c4.5,3.4,8.7,5,12.9,6.6c0.9,0.3,2.4-0.1,2.6,1.4c0.2,1.5-1.1,2.3-2.2,2.8c-1.9,1-4,1.5-6.3,1.5 c-10.4,0-19.6-2.9-26.3-11.5c-1.6-2.1-2.9-4-6.6-2.2c-2.7,1.4-6.1,0.7-5.4-4.3c0.9-6.2-1.3-12.2-2.9-18.1c-3-11.1-0.6-21.1,5.6-30.5 c6-9,20.1-10.1,27.3-2.1c4.7,5.2,3,11-3.8,12.7c-2.1,0.5-4.3,0.7-6.4,0.7c-5.9,0.2-8.2-1.9-8.8-7.7c-0.2-1.5,0.5-3.2-0.9-5.1 c-5.3,3.2-8.5,7.5-8.9,13.9c-0.4,6.3,1.1,12.2,3.8,17.9c2.1,4.5,5.4,7.6,10.6,8.3c2,0.3,3.9,0.6,5.9,0.9c10.2,1.7,10.4,1.6,15-7.1 c2.4,2.3,1.7,4.7,0.8,7.3c-0.5,1.4-2.9,2.5-1.3,4.1c1.4,1.4,3.4,0.7,5.1,0c0.7-0.3,1.4-0.5,2.7-0.9 C82.2,407.2,75.5,407.6,69.5,409.9z" style="fill: rgb(231, 231, 231);"/>
  <path class="st3" d="M212.2,471.7c0,4.7,0.4,9.4-1.2,14c-1.1,3.1,0.2,6.1,1.9,8.7c2.3,3.6,2.9,7.6,4,11.6c1.7,6.6-1.9,9.6-6.6,12.4 c-2.1,1.3-9.9-4.1-10.5-7.3c-0.1-0.5-0.1-1.1-0.1-1.6c1.3-13.8-3.7-26.7-6.1-40c-0.3-1.6-1-3.3-0.8-4.8c1.2-7.4-3.6-13.8-3-21 c0-0.3-0.4-0.6-0.5-1c-0.4-2.6,13.9-18,16.5-17.7c2.2,0.3,1.4,2.3,1.5,3.5C209.1,443,210.6,457.3,212.2,471.7z" style="fill: rgb(231, 231, 231);"/>
  <path class="st3" d="M317,515.1c-5.4-2-10-4.8-14.9-7.7c1.5-1.7,2.9-3.2,4.1-4.8c8.4-10.6,1.2-25.6-8.8-30.4c-3-1.4-2.3-3.2-1.9-5.3 c2-8.3,4.5-16.4,7.6-24.3c3.6-9.4,8.2-18.5,9.8-28.7c0.4-2.8,1.7-4,4.2-1.4c1.1,1.1,2.6,2,3.9,2.9c5.9,3.7,6.4,7.3,1.3,12 c-2.4,2.2-3.6,4.3-3.6,7.4c0,1.9-0.8,3.4-2.1,4.8c-5.3,5.8-2.7,13.6,5.1,15.5c1.4,0.4,1.8,1,1.7,2.2c-0.1,3.9,0.8,8-1.8,11.6 c-0.6,0.9-1.2,2-1.2,3c0.1,13.4-7,26.2-3.3,40C317.3,512.6,317,513.5,317,515.1z" style="fill: rgb(231, 231, 231);"/>
  <path class="st5" d="M276.8,215.6c-5-2.3-10.5,0.3-15.9,0.1c-9.5-0.4-16.7-6.2-23.4-12.4c-1.3-1.2-2.3-3.2-3.9-3.7 c-6.8-2.1-3.2-4.4-0.4-6.9c2.9-2.5,5.5-6.1,8.8-7.1c3.3-1,6,3.3,9.1,4.9c14.3,7.4,27.7,5,40.5-3.5c2.7-1.8,4.6-2.3,7.1-0.4 c1.2,0.9,2.4,1.6,3.5,2.5c9.9,8.3,9.6,11.8-1.6,17.6C293.3,210.8,285.8,214.5,276.8,215.6z" style="fill: rgb(231, 231, 231);"/>
  <path class="st6" d="M169,386.4c2.9-0.2,5.3,0.4,6.9,2.1c2.8,3.1,4.6,6.9,8.9,8.6c1.8,0.7,1.8,2.9,1,4.8 c-2.3,5.6-6.4,11.3-11.2,12.6c-4.6,1.3-8.7,3-12.9,5.1c-1.1,0.6-2.6,0.5-3.6,1.1c-5.2,3-10,2.8-15.8,0.8c-5.2-1.7-11.2-0.5-16.9-2 c-5.7-1.5-8.8-5.3-12.2-9.2c-1-1.1-0.8-2-0.1-3.3c3.3-6.2,8.8-10,14.3-13.7c2.1-1.4,3.7-0.6,5,1.4c1.8,2.5,3.6,5,5.6,7.3 c1.9,2.2,3.7,4.5,7.2,4c0.6-0.1,1.9,0.3,1.9,0.4c-0.2,2.8,0.4,4.6,3.8,5.1c4.1,0.6,8.2,1.8,12.2-0.3c4.8-2.7,9.8-6.8,8.6-12 c-0.8-3.4-1.4-7.1-2.4-10.6C169.1,388,169.1,387.5,169,386.4z" style="fill: rgb(231, 231, 231);"/>
  <path class="st6" d="M314.6,403.2c6.3-6.1,10.7-12.3,17.5-16c0.5,0.7,0.8,1,0.8,1.3c-1.7,10.9-1.7,10.9,9.7,11.2 c3.4,0.1,6.8,0.5,10.3,0.8c2.8,0.2,5.5-0.2,7.8-1.7c2.9-2,5.8-3.3,9.6-2.3c2.4,0.7,4.5-0.9,6.3-2.5c3.3-2.9,6.1-2.5,8.8,0.8 c1.3,1.5,2.7,2.9,4.1,4.3c4.7,4.9,4.6,6.2-1.9,8.8c-9.4,3.7-18.6,7-29.2,7c-6.9,0-14-1.3-20.9,0.3c-0.5,0.1-1.4,0.3-1.6,0.1 c-3-5.1-10-3.5-13.3-7.9C320.8,405.2,318.7,403.8,314.6,403.2z" style="fill: rgb(231, 231, 231);"/>
  <path class="st2" d="M171.7,313.9c-11.4-11.6-24.4-19.8-36.9-28.5c-2.7-1.9-1.3-4.3-0.6-6.4c0.9-2.8,2.8-0.6,3.9-0.1 c23.4,11.2,46.9,21.9,69.3,35.1c5.8,3.4,11.2,7.4,15.7,12.4c3,3.3,5,7.1,4.6,11.8c-0.6,7.4-7.9,11.8-14.6,8.6 c-1.9-0.9-3.3-2.4-3.6-4.5c-0.3-1.7,0.9-2.7,2.3-3.3c1.9-0.8,3.8-1.4,5.5,0.5c0.7,0.8,0.8,2.8,2.7,1.7c1.5-0.8,1.6-2.4,1.4-3.9 c-0.9-5-3.2-9.3-6.8-12.7c-5-4.8-10.9-8.4-17.2-11.3c-1.1-0.5-2.4-1.5-3.5-0.4c-1.4,1.4-0.2,2.7,0.5,3.9c1.4,2.6,4.9,5.7,1.1,7.8 c-3.2,1.7-4.3-2.9-5.6-5.1c-4.3-7-10.5-11.9-17.4-16c-0.9-0.5-1.9-1.5-2.9-0.6c-0.9,0.8-0.4,2-0.1,3.1 C170,308.3,172.1,310.2,171.7,313.9z" style="fill: rgb(190, 190, 190);"/>
  <path class="st2" d="M359.8,312.3c-1.2-3.4,1.2-5,1.8-7.1c0.3-1.2,1.5-2.4,0.2-3.5c-1-0.8-2,0.1-2.9,0.7c-7.1,4.5-13.9,9.3-18,17 c-0.5,1-1,1.9-1.7,2.8c-0.9,1.1-1.8,2.6-3.5,1.7c-1.7-1-1.5-2.7-1.1-4.3c0.1-0.5,0.5-1,0.7-1.5c1-1.8,3.7-3.8,1.9-5.7 c-1.9-1.9-4.4,0.2-6.3,1.3c-7.8,4.6-15.9,9-19.7,18c-0.8,1.8-1.7,3.6-1.6,5.7c0.1,1.3,0.6,2.6,1.9,3.1c1.5,0.6,1.7-0.8,2.2-1.7 c1.2-2.1,3-1.7,4.8-1.1c1.6,0.5,3,1.4,2.9,3.4c-0.1,2.2-1.3,4-3.3,4.6c-3.9,1.1-8.1,1.5-11.5-1.1c-3.2-2.5-4-6.4-3.3-10.3 c1.2-6.3,5.4-10.5,10.3-14.2c15.3-11.6,32.7-19.3,49.7-27.9c9.5-4.8,19.3-9.2,29-13.7c1.4-0.7,3.5-3,4.6-0.8 c1.1,2.2,1.7,5.3-1.3,7.3c-3.5,2.3-6.8,4.8-10.3,7.1C376.4,298.1,367.6,304.3,359.8,312.3z" style="fill: rgb(190, 190, 190);"/>
  <path class="st1" d="M480.6,372.2c1.2,7.7-2,12.9-8.5,14c-8.4,1.4-13.7-2.4-14.7-10.4c-0.1-1.1,0-2.2-0.3-3.2 c-0.6-1.9-1.9-3.4-3.9-3.1c-1.8,0.3-1.7,2.2-1.6,3.6c0.4,6.4-0.5,11.9-7.8,14.1c-1.7,0.5-2.3,2.4-2.1,4.1c1,7.8-2.7,14.4-5,21.4 c-1.3,3.8-3,7.6,1,10.9c0.9,0.8,0.8,1.5-0.1,2.2c-3.5,2.7-7.2,4.9-11.9,4.4c-0.8-0.1-2.1-0.4-1.9-1.5c0.3-1.4,1-2.7,1.7-3.9 c9-17.5,15.6-35.9,17.9-55.5c0.5-4.5,0.7-9,0.8-13.5c0.1-7.1,1.6-8.8,8.9-10.2c3.5-0.7,4.7-0.2,3.4,3.7c-2.2,6.8-2.6,13.3,2.9,19.3 c5,5.5,10.7,7,17.6,4.7C478.2,372.9,479.4,372.6,480.6,372.2z" style="fill: rgb(231, 231, 231);"/>
  <path class="st1" d="M84.4,360.1c0.8,21.8,7.7,43.7,18.3,64.6c0.9,1.8,3.4,3.9,1.7,5.7c-1.6,1.7-4.5,0.8-6.7,0 c-1.7-0.6-3.3-1.5-4.8-2.5c-1.8-1.1-3.4-2.1-0.9-4.4c2.5-2.3,1.7-5.3,0.7-8.1c-2.5-7.7-6.6-15-5.5-23.5c0.3-2.2-1.2-3.9-3.3-4.5 c-6-1.7-6.7-6.5-6.8-11.5c-0.1-2.2,1.4-5.5-2.1-5.6c-2.9-0.1-3.5,2.9-3.7,5.7c-0.7,8-4.5,11.3-12.4,11.1 c-6.6-0.1-10.9-4.2-11.3-10.8c-0.2-2.5,0-3.6,3.2-2.7c16.2,4.3,26.1-6,21.8-22.5c-1.4-5.5-1-5.9,4.6-4.4 C83.8,348.5,84.4,349.4,84.4,360.1z" style="fill: rgb(231, 231, 231);"/>
  <path class="st7" d="M187.6,427.5c0,8.5-1.1,9.5-8.1,7.7c-1.8-0.5-2.7,0.3-2.7,1.5c0,8-6.5,9-11.8,10.5c-6.6,1.9-18.8-7.1-19.6-14 c-0.4-3.3-2.7-3.9-5.1-4.7c-1.4-0.5-4.2,0.7-3.3-2.6c0.7-2.7,2.7-3.1,5-2.5c0.7,0.2,1.6,0.4,2,0.9c3.7,4.6,7.4,3.4,11.8,0.8 c5-2.9,8.7-0.9,9.8,4.9c0.3,1.6-0.4,4.1,2.5,3.7c2.8-0.4,2.5-2.7,2.4-4.7c-0.2-2.5-0.1-5.1-3.2-6.3c-1.6-0.6-2.5-1.8-0.2-2.9 c5.5-2.6,11.2,0.2,12.1,6.2c0.2,1.2-0.1,2.7,1.8,2.7c2.1,0,2.1-1.6,1.9-3.1c-0.2-2.2-0.5-4.3-0.7-6.5c-0.1-1-0.1-2.5,1.1-2.8 c1.6-0.4,2,1.2,2.5,2.3C187.3,421.8,187.8,425,187.6,427.5z" style="fill: rgb(231, 231, 231);"/>
  <path class="st3" d="M387.1,446.4c-2.6-9.5-4.8-18.1-7.2-26.7c-0.6-2.1,0.4-2.5,1.9-2.9c5.6-1.5,11.4-2.3,16.3-5.6 c1.4-1,2.1,0.1,2.5,1c2.9,5.8,7.8,10.5,10.1,16.6c1.8,4.7-4,12.6-8.8,11.6C395.8,439.3,391.4,441.8,387.1,446.4z" style="fill: rgb(231, 231, 231);"/>
  <path class="st7" d="M283.3,260.7c3.1,4.2,5.9,6.2,10.2,6.2c3.6,0,5.9,2.4,6.3,6.2c1.1,9.8,0.5,19.6,0.6,29.3c0,1.8-0.7,3.1-2.6,3.6 c-1.5,0.4-3,0.9-3.9-0.7c-1.8-3.1-4.6-3.2-7.5-2.8c-3.6,0.5-4.4-0.8-4.4-4.5C282,286.2,281.9,274.1,283.3,260.7z" style="fill: rgb(231, 231, 231);"/>
  <path class="st1" d="M272.3,308.8c4,0.1,11.9,0.9,19.6,3.1c1.6,0.5,3.2,0.9,4.6,1.7c2.7,1.5,7.1,2.2,5.6,6.5 c-1.5,4.2-5.2,2.7-8.4,1.8c-18.4-5.3-36.9-4.3-55.3-0.3c-1.1,0.2-2.1,0.5-3.1,0.8c-2.4,0.7-4.4,0.1-5.2-2.4c-0.8-2.6,0.6-4,2.9-5 C244.2,310.1,255.9,307.7,272.3,308.8z" style="fill: rgb(211, 211, 211);"/>
  <path class="st7" d="M214.8,228.3c6.7-0.7,6.8-4.4,5.8-9.5c-0.9-4.8,3.2-9.3,7.4-9.6c4.4-0.3,8.4,4,8.5,9.2c0.1,2.7-0.3,5.5,0.1,8.1 c1.8,10.6-5,16.6-13,19c-4.4,1.4-10.5-0.9-15.8,1.3c-1.2,0.5-1.9-1.3-1.9-2.7c0-1.9-0.3-3.5-1.8-4.9c-1.7-1.6-4.1-3.8-1.1-5.7 c2.3-1.5,5.6-0.6,7.1,2c1,1.7,1.9,2.9,3.8,3.3c1.7,0.3,3.6,1.5,3.7-1.8c0.1-2.2,2.3-1.7,3.9-2c1.9-0.3,4.6-0.6,3.9-3.3 c-0.6-2.4-2.7-3.8-5.6-2.4C218.4,230,216.9,230.9,214.8,228.3z" style="fill: rgb(231, 231, 231);"/>
  <path class="st7" d="M180.4,458c4.1,11.6,4.1,24,8.1,35.6c4.1-12-1.6-23.7-0.9-35.6c2.9,2.2,1.9,5.3,2.6,8c3.3,14,5.1,28.1,3.9,42.5 c-0.1,1.7,0.6,4.1-1.4,4.9c-2.2,0.9-2.8-1.6-4.1-2.8c-2.1-2-4-4.5-6.5-5.7c-5.5-2.8-6.1-7.2-5.9-12.5c0.3-8.7,0-17.4,0.1-26 C176.5,463,179.1,460.9,180.4,458z" style="fill: rgb(231, 231, 231);"/>
  <path class="st4" d="M273.6,251.2c-3.6-1.7-6.6-1.1-9.5-0.1c-5.7,1.9-11.5,0.9-17.2,0.3c-3-0.3-5.1-2.1-5.1-5.3 c-0.1-7.4-0.1-14.8,0.1-22.2c0.1-2.8,4.6-3.9,7.5-1.1c3.5,3.5,7.9,6.2,9.6,11.4c1.6,4.9,5.6,8.3,10,11.1 C270.8,246.4,273.1,247.3,273.6,251.2z" style="fill: rgb(231, 231, 231);"/>
  <path class="st8" d="M254.9,597.1C254.9,597.1,255,597,254.9,597.1c0-3.5,0-6.9,0.2-10.3c0.2-5.8,4.6-10.6,9.9-11 c5.3-0.4,9.5,2.6,10.8,8.6c1.8,8.2,0.5,16.6,0.4,24.9c0,1.7-1.5,2.3-2.9,2.9c-2.9,1.2-5.8,2.1-8.9,1.9c-7.5-0.5-10-1.5-9.7-9.8 C254.6,601,254.8,597.5,254.9,597.1z" style="fill: rgb(231, 231, 231);"/>
  <path class="st9" d="M266.9,331.6c-7.8-0.1-15.5,0.6-23.1,2.7c-0.7,0.2-1.4,0.5-2.1,0.5c-2.3,0.3-4.6,0.1-5.5-2.3 c-1-2.9,1.4-3.8,3.5-4.5c7.7-2.8,15.6-4.7,23.8-4.5c9.6,0.2,19.1,1.4,28.3,4.3c2.4,0.7,5.3,1.8,4.1,5.1c-1,2.9-3.6,2.2-6,1.5 C282.4,332,274.7,331.5,266.9,331.6z" style="fill: rgb(231, 231, 231);"/>
  <path class="st10" d="M129.9,443.8c-2.5-0.5-5.8,1.1-5.4-3.8c0.3-3-2.8-2-4.6-1.7c-3.9,0.6-6.7,0.4-6.3-4.9c0.2-2.7-1.6-5.1-3.1-7.3 c-1.4-2-2.1-4.2-1.4-6.6c0.9-2.8,2.8-4.2,5.1-1.5c6,7.2,14.1,10.3,22.8,12.5c1.1,0.3,2.4,0.5,2.5,1.7c0.3,2.7-5.8,3.1-2.1,8.1 C139.1,442.4,132.7,443.1,129.9,443.8z" style="fill: rgb(231, 231, 231);"/>
  <path class="st8" d="M258.9,405.2c-1.7-0.9-1.7-2.7-1.9-4.2c-1.7-14.2-3.4-28.4-5-42.6c-0.4-3.2,0.5-6.2,4.2-6.3 c3.2-0.1,4.2,2.5,4.2,5.3c0,14.9,0,29.7,0,44.6C260.3,403.2,260.2,404.5,258.9,405.2z" style="fill: rgb(190, 190, 190);"/>
  <path class="st11" d="M165.8,491.7c-5.5-2-7.3-7.1-11-9.9c-3.2-2.5-4-5.1-4.2-8.6c-0.3-4.1,1.2-7,5.2-8.4c4.1-1.4,7,2,10.6,2.8 c0.4,0.1,0.5,2.3,0.4,3.5C166.4,477.8,166.1,484.5,165.8,491.7z" style="fill: rgb(231, 231, 231);"/>
  <path class="st12" d="M349.6,349.9c0.5-1.6-1.6-4.3,1.2-5c2.2-0.6,3.4,1.6,4.4,3.3c2,3.4,5.8,3.3,9,4.3c1.9,0.6,4.3,0.4,5,2.7 c1.3,4.2,2.9,7.5,8.2,5.2c0.3-0.1,1.2,0.3,1.3,0.6c0.9,2.9-1.9,5.9,0.4,8.7c-1.4,1.1-2.7,2.3-4.2,3.3c-1.9,1.1-2.5-0.8-3.4-1.7 c-2.5-2.8-4.9-5.8-7.4-8.6c-2.5-2.8-5.6-4.6-9.3-5.1C350.3,356.8,347.5,355.2,349.6,349.9z" style="fill: rgb(231, 231, 231);"/>
  <path class="st12" d="M274.6,631.3c0.1,4.9-4.1,8.6-9.8,8.8c-5.5,0.1-8.9-3-9-7.9c0-5.7,4.6-11.9,8.9-12.1 C269.3,619.8,274.6,625.9,274.6,631.3z" style="fill: rgb(231, 231, 231);"/>
  <path class="st13" d="M264.6,337.2c7.9,0,15.5,1.4,22.8,4.2c1.3,0.5,3.2,1,2.8,2.7c-0.5,2.1-2.4,1.7-4,1.4 c-13.1-2.6-26.1-3.7-39.1,0.5c-2.2,0.7-5.3,0.9-6-2c-0.7-2.8,2.5-3.2,4.3-3.9C251.5,337.8,258,337.3,264.6,337.2z" style="fill: rgb(190, 190, 190);"/>
  <path class="st13" d="M271.1,406.5c-1.4-0.7-1-1.9-1-2.8c-0.2-15-0.3-30.1-0.3-45.1c0-2.3-0.3-5.4,3-5.4c3,0,5.1,2.4,5.1,5.4 c0,3.6-0.7,7.2-1.1,10.8c-1.3,11-2.7,21.9-4.1,32.9C272.5,403.7,272.9,405.5,271.1,406.5z" style="fill: rgb(190, 190, 190);"/>
  <path class="st14" d="M327.3,433c1.5-0.1,3.1,0.4,4.5,2.7c1.4,2.2,3.8,4.5,6.9,4.6c2.7,0.1,3.6,1.7,3.8,3.7c0.2,2.2-1.9,3.2-3.4,3.6 c-4.9,1.1-10.1,0.6-14.7,3c-0.6,0.3-1.8-0.1-2.5-0.6c-2-1.4-3.4-3.1-2.6-5.9C322.2,432.9,322.2,432.8,327.3,433z" style="fill: rgb(231, 231, 231);"/>
  <path class="st15" d="M376.6,426.9c-0.1,3-2.4,2.5-4.3,2.8c-2.2,0.3-4.8-0.5-6.3,1.9c0.8,1.3,2,0.8,3,1c1,0.2,2.5-0.1,2.4,1.4 c0,1.4-1.2,1.5-2.4,1.5c-3.6,0.1-5.9,3.3-9.4,3.9c-2.5,0.4-5,0.9-7.5,0c-3.8-1.5-4.7-4.6-1.6-7.3c4.1-3.7,9.4-5.7,13.3-9.9 c2.1-2.2,5.9-1.4,8.8-0.3c2,0.7,0.9,1.9-0.2,2.7c-1.1,1.2-2.5,1-3.9,1C371.3,425.8,374.1,425.4,376.6,426.9z" style="fill: rgb(231, 231, 231);"/>
  <path class="st13" d="M242.5,501.8c-6.4,0-10.7-2.4-14-6.6c-3.6-4.6-2.3-11.8,2.7-14.8c3.3-2,5.7-0.3,7.1,2.6c1.2,2.6,1.6,5.2-2.6,6 c-3.9,0.8-2.8,3.3-0.7,5c3.9,3.1,8.1,4.7,13.1,2.1c3.9-2.1,7.3-4.7,10.4-7.7c0.8-0.8,1.9-1.4,2.8-0.3c0.3,0.3,0,1.5-0.3,1.9 C255.7,495.8,250.1,501.2,242.5,501.8z" style="fill: rgb(231, 231, 231);"/>
  <path class="st11" d="M191,419.7c-0.6-4.8-1.4-9.4,5.4-10.7c2.4-0.4,3.7-3.3,5.2-5.3c2.4-3.5,4.2-2.5,5.9,0.6 c2.8,5.2,1.8,8.4-3.3,11.7c-3.5,2.2-5,6.1-7.6,9.1c-1.3,1.5-2.3,4-4.4,3.5c-2.5-0.6-0.8-3.4-1.2-5.2 C190.8,422.2,191,420.9,191,419.7z" style="fill: rgb(231, 231, 231);"/>
  <path class="st16" d="M346.2,364.5c6.8-2.5,18.6,2.4,21.4,8.4c0.7,1.4,0.6,2.5-0.8,3.2c-1.2,0.6-1.5,1.6-1.1,2.7 c1.4,3.9-0.9,4.2-3.9,5.7c-4.7,2.3-8.1,2.2-10.8-2c-1.2-1.9-3.4-1.6-4.7-3C355,374.7,355,370.2,346.2,364.5z" style="fill: rgb(231, 231, 231);"/>
  <path class="st17" d="M251.7,395.3c0.1,2.8,0.3,4.5-1.5,5c-2,0.5-3-1.2-3.4-2.7c-2.8-12-5.4-24-8-36c-0.4-1.8-0.2-3.9,2-4.5 c2.5-0.6,3.8,1.4,4.1,3.3C247.4,372.4,249.7,384.5,251.7,395.3z" style="fill: rgb(231, 231, 231);"/>
  <path class="st18" d="M256,531.8c-0.1-2.5,0.2-4.6,1.2-6.6c2.4-4.5,8.4-7.2,12.3-5.4c4.1,1.9,6.8,9.2,4.9,13.7 c-1.6,3.8-3.6,5.3-6.9,1.2c-1.9-2.4-4.3-3.1-7.1-0.9c-1.2,0.9-2.1,3.2-3.8,2.3C255.1,535.2,256.2,533.1,256,531.8z" style="fill: rgb(231, 231, 231);"/>
  <path class="st19" d="M365.8,454.4c0.1,4.1-2.4,6.3-6,7.4c-1.9,0.6-3.9,0.7-5.9,1c-5.4,0.8-8.2-0.8-7.7-5.6c0.2-1.9,0.3-2.4-1.1-3.4 c-1.2-0.9,1.1-2.9-0.7-4.1c1.1,0,2.2-0.1,3.1,0.2c1.2,0.4,2.9,1.2,3.6,0.3c3.9-5.2,8-0.5,11.9-0.3 C365.7,449.9,365.7,452.3,365.8,454.4z" style="fill: rgb(231, 231, 231);"/>
  <path class="st17" d="M162.3,362.1c-0.5,2.9-0.1,4.9-4.7,3.8c-5.9-1.3-12,1.3-17.6,3.9c-4.4,2.1-7.7,0.9-10.2-3 c-1.1-1.7-1.6-3.6,1.6-3.4c5.7,0.5,10.5-5.4,16.5-2.2c2.4-4.5,7.2-0.6,10.8-3.4C161.3,355.7,161.6,360.3,162.3,362.1z" style="fill: rgb(231, 231, 231);"/>
  <path class="st20" d="M262.3,220.9c1.8,3,2.5,5.8,5.2,6.9c3-1.4-0.2-6.3,3.4-6.5c2.9-0.2,1.9,4.4,4.2,5.7c3.7,2.1,6.3,4.8,5.8,9.5 c-0.5,4.8-2.8,6.3-6.9,3.8c-5.5-3.3-10-7.7-13.8-12.8C257.9,224.5,260.6,223.3,262.3,220.9z" style="fill: rgb(231, 231, 231);"/>
  <path class="st8" d="M268.8,486.8c4.4,2.4,8.1,5.8,12.3,8.4c5.1,3.1,9.6,2.2,14.2-0.6c2-1.2,3.3-3,3-5.4c-0.3-2.7-2.6-1.1-3.9-1.4 c-2.8-0.6-4.1-2.4-3.5-5.1c0.6-3.2,3.1-3.3,5.5-2.5c3.3,1.1,5.7,3.3,6.4,6.8c0.9,4,0.1,7.6-3.2,10.3c-3.4,2.8-7.5,3.4-11.7,3.3 C280.9,500.4,271.5,494,268.8,486.8z" style="fill: rgb(231, 231, 231);"/>
  <path class="st21" d="M292.5,360.8c-3.1,13.9-6.1,27.5-9.2,41c-0.4,1.7-1.2,4.2-3.2,3.7c-2.4-0.6-0.9-3-0.6-4.6 c2.4-13.5,4.9-27,7.4-40.4c0.3-1.7,0.4-4.1,3-3.6C292,357.4,292.8,359.2,292.5,360.8z" style="fill: rgb(231, 231, 231);"/>
  <path class="st22" d="M210.2,383.9c-0.6,3.5-1.8,5.9-3.7,7.9c-1.9,2-3.7,0.5-5.4-0.3c-2.2-1-0.4-2.1-0.1-3.4 c0.6-2.7,2.2-5.1-0.7-8.3c-2.3-2.5-1.4-7.4-4.8-10.2c-0.7-0.6,1.2-2.4,2.5-3c2-1,4.5-0.5,5.3,1.2 C206.1,373.2,208.2,378.9,210.2,383.9z" style="fill: rgb(231, 231, 231);"/>
  <path class="st23" d="M280.2,82.8c-10.5-0.6-19.3-1-29.6,0.1c5.7-4.9,11-8,13.2-14.2c0.5-1.5,3.9-2,5.1,0.8 C271.2,74.5,274.6,78.6,280.2,82.8z" style="fill: rgb(231, 231, 231);"/>
  <path class="st15" d="M158.7,383.6c-2.6,1.8-5.5,1.5-4.7,4.9c0.6,2.5-1.9,2.7-3.6,3c-1.9,0.4-4.1,1.2-5.3-1.1 c-1.5-2.9-2.7-5.9-4-8.9c-0.6-1.6-0.3-3.2,0.8-4.6c1.6-2,2.7,0.1,4,0.3c2.2,0.4,5.3,1.6,5.7-2.5c0.3-3.1,2.3-2.3,3.9-1.7 c2,0.7,2.2,2.4,0.9,3.9C153.8,379.9,153.1,382.3,158.7,383.6z" style="fill: rgb(231, 231, 231);"/>
  <path class="st11" d="M286.7,238.6c1.8,0.1,3.2,0.8,3.5,2.7c0.7,3.4,2,6.6,3.9,9.4c3,4.4-0.1,6.9-2.5,9.5c-1.3,1.4-3.1,0.9-4.1-0.8 c-2-3.6-4-7.3-5.7-11C281.1,246.5,285.2,238.6,286.7,238.6z" style="fill: rgb(231, 231, 231);"/>
  <path class="st24" d="M418.2,64.4c0.3,1.8-0.8,4,1.3,5.4c-3.1,7-3.1,7,1.1,17.8c-8.9,3.1-15.3,0.7-19.5-7.6c6.6,0,11.9-2,15.2-8.1 C417.6,69.4,416.3,66.5,418.2,64.4z" style="fill: rgb(231, 231, 231);"/>
  <path class="st25" d="M139.7,445.1c2.4-3.4,4.9-3.8,7.6-0.4c1.1,1.4,2.6,2.6,4.6,2.6c2.3,0,3.7,0.6,2.1,3.1 c-1.8,2.7,2.4,7.7-2.5,8.7c-3.1,0.6-6.3,1.1-9.5,1.5c-1.1,0.1-2.4,0.4-3-0.6c-0.7-1.1-0.2-2.5,0.8-3.5c0.5-0.5,1-1,1.5-1.6 C145.5,450.3,145.2,448.5,139.7,445.1z" style="fill: rgb(231, 231, 231);"/>
  <path class="st15" d="M160.7,450.5c2.2,1.1,4.5,0.5,6.7-0.4c3.5-1.4,5.5,0.9,7.5,2.8c1.4,1.4,1.8,4.5-0.2,5.2 c-4.1,1.3-7.6,4.5-12.1,4c-3.9-0.4-6.7-7.7-4.7-11.1C158.7,449.6,159.6,450.3,160.7,450.5z" style="fill: rgb(231, 231, 231);"/>
  <path class="st17" d="M180.1,229.5c-4.1,0.6-5.7-1-6.6-3.8c-1.8-5.9-3.8-11.7-5.5-17.6c-0.3-1.2-1.7-2.9,0.5-3.6 c1.7-0.6,3.5,0.1,4.2,1.6c3.1,7.1,6.2,14.3,9,21.5C182.6,230.1,180.3,229.4,180.1,229.5z" style="fill: rgb(231, 231, 231);"/>
  <path class="st8" d="M250.1,510.9c-0.1,1.8-1.2,2.7-2.6,3.4c-7.3,3.6-14.6,7.2-21.9,10.8c-1.4,0.7-3.3,1.5-4.3-0.5 c-1-2.1,0.5-3.5,2.2-4.3c7.5-3.7,14.9-7.3,22.5-10.8C247.8,508.7,249.6,508.4,250.1,510.9z" style="fill: rgb(231, 231, 231);"/>
  <path class="st26" d="M231.2,537.6c4-5.2,8.5-8.7,13.7-11.3c3.3-1.6,5.4-1,4.7,3.2c-0.4,2.6,0.4,5,0.7,7.5c0.3,2.5-1.2,4.6-3.3,3.1 C242.2,536.6,237.2,535.7,231.2,537.6z" style="fill: rgb(231, 231, 231);"/>
  <path class="st27" d="M341.8,434.4c-4.2-0.1-7.1-2-8.1-6.3c-1-4.4,1-7.1,5.3-5.9c3,0.8,7,0,8.8,3.9 C350.1,430.9,347.7,434.2,341.8,434.4z" style="fill: rgb(231, 231, 231);"/>
  <path class="st28" d="M282.8,510.5c3.3,0.1,6.3,1.6,9.2,3c5.9,2.7,11.7,5.6,17.6,8.5c1.1,0.5,2.5,1.2,1.9,2.8 c-0.5,1.3-1.9,1.2-2.8,0.8c-9.5-4-18.9-8.1-28.3-12.3c-0.6-0.3-1.3-0.9-0.9-1.7C280.1,510.1,281.6,510.6,282.8,510.5z" style="fill: rgb(231, 231, 231);"/>
  <path class="st29" d="M181.9,233.7c5.5,0.5,10.7,1.5,14.7,5.8c1.5,1.6,2.9,3.5,1.5,5.8c-1.3,2.2-3.5,2.2-5.7,2 c-2.5-0.2-3.7-1.6-3.7-3.8c0-3.4-1-5.1-4.8-4.4c-0.9,0.2-2.1-0.4-3-0.9c-1.3-0.8-3.5-1.6-3.2-3.2 C178.2,232.8,180.5,234.2,181.9,233.7z" style="fill: rgb(231, 231, 231);"/>
  <path class="st30" d="M265.4,150.3c-4.5,0-9,0-13.5,0c-1.5,0-3.4,0-3.6-1.6c-0.2-2,2-1.7,3.3-1.7c9-0.3,18-0.7,27.1-0.8 c1.9,0,5.1-0.3,5.1,1.7c0,2.9-3.3,1.8-5.2,1.8c-4.3,0.2-8.7,0.1-13,0.1C265.4,150,265.4,150.2,265.4,150.3z" style="fill: rgb(231, 231, 231);"/>
  <path class="st31" d="M299.8,534.8c-5.2,0.6-8.5,2.9-12.1,4.3c-3.3,1.3-5.3,0.4-5.3-3.4c0-0.2,0-0.4,0-0.5c-0.4-9.1-0.4-9.2,7.9-5.5 C293.1,530.9,296.3,531.6,299.8,534.8z" style="fill: rgb(231, 231, 231);"/>
  <path class="st32" d="M275.5,164.4c4.4-1.3,5,0.6,3.8,4.1c-0.3,0.8-0.2,1.8-0.4,2.7c-0.5,2-0.5,5.6-3,4.5c-2-0.8-6.2,0.6-6.5-5.1 c-0.1-3.3-2.7-7-1.6-11c0.2-0.8,0.1-1.9,1.4-1.8c1.2,0.1,1.4,1.1,1.1,2C268.5,165.7,272.7,164.3,275.5,164.4z" style="fill: rgb(231, 231, 231);"/>
  <path class="st33" d="M164.5,184.6c3.1,1.2,6.6,2.2,6.8,6c0.2,3.5-2.2,5.8-5.7,5.9c-3.9,0.1-6.9-2.5-7.2-6 C158.1,187.2,161.8,185.9,164.5,184.6z" style="fill: rgb(231, 231, 231);"/>
  <path class="st34" d="M361.3,444.5c3.9-1.7,6.7-5.5,11.3-5.4c2.7,0.1,3-2.7,4.3-4.4c1.7-2.2,2.8-1.6,3.8,0.6 c1.5,3.4-0.3,7.4-3.9,8.6C371.8,445.6,366.6,445.5,361.3,444.5z" style="fill: rgb(231, 231, 231);"/>
  <path class="st35" d="M273.5,497.3c2.8,6.9,1.4,12.5-2.9,15.6c-3.6,2.6-7.6,2.5-10.3-0.6c-3.2-3.5-3.4-8.2-1.6-14.3 c2.5,5.6,0.7,13.1,7.8,12.8C273.3,510.5,272.3,503.6,273.5,497.3z" style="fill: rgb(231, 231, 231);"/>
  <path class="st36" d="M261.1,178c-4.9-5-5-11.2-5.1-17.3c0-1.2,1-1.9,2.2-1.8c1.4,0.1,0.9,1.1,0.9,1.9c0.1,0.8,0.3,2,0.9,2.4 C267.3,167.7,262.1,173.1,261.1,178z" style="fill: rgb(231, 231, 231);"/>
  <path class="st37" d="M194.2,266.6c-0.2,1.2,0.9,3.4-1.1,4c-2.1,0.6-2.4-1.7-3-3.1c-1.3-3-2.6-5.9-3.5-9c-0.5-1.5-3-3.8-0.1-4.8 c2.3-0.8,5.1,0.2,6,3.2C193.4,259.9,194.3,263.1,194.2,266.6z" style="fill: rgb(231, 231, 231);"/>
  <path class="st38" d="M369.8,474.9c-0.4,1.2,0,3-1.7,3.6c-1.5,0.5-2.3-0.7-3.1-1.7c-1.8-2.2-3.7-4.4-5.4-6.8c-0.7-0.9-2.1-1.8-1-3.2 c0.8-1,2.3-1.1,3.5-1C364.5,466.1,369.8,472.4,369.8,474.9z" style="fill: rgb(231, 231, 231);"/>
  <path class="st39" d="M201.9,354.2c-1.3,2.7-3.6,4.1-6.1,4.2c-3,0.1-4.3-2.6-4.6-5.1c-0.3-2.5,1.3-5.2,3.9-4.8 C198.1,349,199.7,352.1,201.9,354.2z" style="fill: rgb(231, 231, 231);"/>
  <path class="st40" d="M214.8,385C214.8,385,214.8,384.9,214.8,385c0.2,2.3,0.5,4.6,0.8,6.9c0.3,2.5,0,4.8-2.3,6.1 c-2.3,1.3-3.4-1.2-5-2.1c-0.6-0.3-1.2-0.8-2.3-1.5c4.2-1.1,5.9-3.9,6.1-7.6C212.2,384.9,213,384.2,214.8,385z" style="fill: rgb(231, 231, 231);"/>
  <path class="st41" d="M277.1,249.1c2.8,5.3,5,10.3,0.8,15.8C277.7,259.7,269.1,255.4,277.1,249.1z" style="fill: rgb(231, 231, 231);"/>
  <path class="st42" d="M349.7,418.8c1.4,0.2,2.8,0.3,4.3,0.5c1.8,0.3,4.7-0.6,4.7,2.1c0,2.3-2.3,3.9-4.6,4.9 c-2.9,1.3-2.4-1.6-3.4-2.8c-1-1.2-2.2-2.4-3.2-3.5C347.3,417.9,348.6,418.5,349.7,418.8z" style="fill: rgb(231, 231, 231);"/>
  <path class="st41" d="M184.1,450c-0.2,0.9-0.2,3.2-2.7,2.8c-2.5-0.4-5.1-1.8-5-4.6c0.1-2.3,2-4.7,4.5-4.4 C183.3,444.1,184.6,446.4,184.1,450z" style="fill: rgb(231, 231, 231);"/>
  <path class="st43" d="M262,441.2c-3.7-4.2-2.5-8.8-2.4-13.2c0-1,0.5-2.2,1.9-2.2c1.3,0,2,1.1,1.9,2.2 C263.1,432.4,262.5,436.8,262,441.2z" style="fill: rgb(231, 231, 231);"/>
  <path class="st37" d="M345.2,436.2c1.2,0.1,6.7,8.5,6.2,9.4c-0.6,1.2-1.9,1.1-2.8,0.6c-3-1.7-5.6-4.1-6.3-7.6 C342.1,437,343.8,436.3,345.2,436.2z" style="fill: rgb(231, 231, 231);"/>
  <path class="st44" d="M276.7,441.3c0.4-4.9,0.7-9.8,1.1-14.7c0.1-1,0.6-1.9,1.6-1.8c1.2,0.1,1.9,1.1,1.7,2.3 c-0.5,4.9-1.8,9.7-3.1,14.4C277.6,441.4,277.1,441.3,276.7,441.3z" style="fill: rgb(231, 231, 231);"/>
  <path class="st45" d="M186.9,409.5c0.2-5.8,4.1-6.2,7.3-7.4c0.9-0.4,1.8,0.1,2.1,1.1c0.4,1.2-0.1,2.2-1.1,2.7 C192.6,407,190.1,408.1,186.9,409.5z" style="fill: rgb(231, 231, 231);"/>
  <path class="st43" d="M255.2,438.9c-3-3.9-3.7-6.9-4.5-9.9c-0.4-1.4-0.4-3.2,1.5-3.6c1.9-0.4,2.3,1.4,2.5,2.8 C254.9,431.3,255,434.3,255.2,438.9z" style="fill: rgb(231, 231, 231);"/>
  <path class="st46" d="M204,364.1c-3.3,1.3-6.5-1.2-9.6,0.4c-0.5,0.3-1.2-0.6-1.2-1.4c0-1.2,0.6-2.2,1.7-2.5 C198.6,359.7,201.9,360,204,364.1z" style="fill: rgb(231, 231, 231);"/>
  <path class="st47" d="M349.7,418.8c-0.9,0.2-1.8,0.2-2.3,1.2c-4.3,0-8.6,0-12.9,0C339.4,417.1,344.5,417.1,349.7,418.8z" style="fill: rgb(231, 231, 231);"/>
  <path class="st43" d="M270.4,436.5c-0.5-3.8-0.9-6.6-1.1-9.5c-0.1-1.2,0.4-2.7,2-2.6c1.5,0.1,1.3,1.6,1.1,2.5 C272,429.9,273.3,433.1,270.4,436.5z" style="fill: rgb(231, 231, 231);"/>
  <path class="st48" d="M162.2,387.6c-1.5,2.8,5.1,4.1,1.3,6.9c-1.2,0.9-2.7,0.1-3.4-0.9C158.3,391,160.4,389.4,162.2,387.6z" style="fill: rgb(231, 231, 231);"/>
  <path class="st49" d="M162.2,382.9c-2,0.1-2.9-0.9-3.1-2.8c-0.1-1.2,0.5-2.3,1.7-2.3c1.9,0.1,3.3,1.6,3.8,3.2 C165.2,382.9,163.3,382.6,162.2,382.9z" style="fill: rgb(231, 231, 231);"/>
  <path class="st50" d="M376.6,426.9c-4.2,0-8.5,0-13.8,0c3.4-3.2,6.6-2.4,9.6-2.4C373.3,426.2,376,424.7,376.6,426.9z" style="fill: rgb(231, 231, 231);"/>
  <path class="st51" d="M251.5,35c0-8.3,5.8-14.7,13.4-14.7c7.4,0,13.1,6.2,13.2,14.3c0.1,8.2-5.7,15-13.1,15.1 C257.6,49.9,251.5,43.1,251.5,35z" style="fill: rgb(231, 231, 231);"/>
  <path class="st52" d="M397.6,51.1c0,6.3-3.8,11.1-8.8,11c-4.8-0.1-8.7-5.3-8.6-11.3c0.1-5.7,4-10.6,8.6-10.7 C393.9,40.1,397.6,44.8,397.6,51.1z" style="fill: rgb(231, 231, 231);"/>
  <path class="st53" d="M147.5,55.1c-0.1,4.5-3.9,8.1-8.6,7.9c-4.4-0.1-7.9-3.7-8-8c-0.1-4.5,3.7-8.2,8.3-8.2 C143.9,46.9,147.6,50.6,147.5,55.1z" style="fill: rgb(231, 231, 231);"/>
  <path class="st54" d="M212.7,121.8c-8.9,0.1-14.7-3-15.5-7.2c-0.8-4.3,3.7-8.9,10.9-11.1c5.7-1.7,11.4-2.1,17,0.4 c6.3,2.8,7,8.5,1.7,12.8C222.3,120.5,216.9,121.7,212.7,121.8z" style="fill: rgb(231, 231, 231);"/>
  <path class="st55" d="M265.8,118.3c-5.1-0.3-9.9-1.1-14-4.1c-4.5-3.4-4.5-7.7-0.2-11.3c6.4-5.4,21.1-5.2,27.5,0.4 c4.1,3.6,4,7.5-0.2,10.9C274.9,117.3,270.3,118,265.8,118.3z" style="fill: rgb(231, 231, 231);"/>
  <path class="st55" d="M421.7,139.5c-5.6,0-10.7-1.6-15-5.2c-2.2-1.9-4.2-4.2-3.4-7.4c0.8-3.2,3.4-4.5,6.3-5.2c6.9-1.6,13.3,0.2,19,4 c2.9,1.9,5.6,4.5,4.4,8.5c-1.1,3.9-4.6,4.8-8.1,5.2C423.8,139.6,422.8,139.5,421.7,139.5z" style="fill: rgb(231, 231, 231);"/>
  <path class="st56" d="M161.3,126.4c-7.3,0.1-12.4-2.5-13-6.5c-0.5-3.9,3.9-8.1,10.6-10c5.4-1.5,10.7-1.8,15.9,0.7 c5.2,2.5,5.8,7,1.5,10.8C172.1,125.2,166.9,126.4,161.3,126.4z" style="fill: rgb(231, 231, 231);"/>
  <path class="st57" d="M321,120.6c-5.6-0.4-10.2-1.2-14.2-4c-2.7-2-5.1-4.4-4.6-8c0.5-3.6,3.3-5.6,6.5-6.5c7.2-2.2,14-1.3,20.1,3.1 c2.6,1.8,4.6,4.3,4.1,7.7c-0.5,3.5-3,5.3-6,6.3C324.8,119.9,322.5,120.3,321,120.6z" style="fill: rgb(231, 231, 231);"/>
  <path class="st58" d="M362.6,108.7c6.4,0.4,11.6,1.6,15.8,5.5c4.7,4.3,3.6,9.6-2.5,11.6c-7.5,2.5-14.7,1-21.1-3.4 c-2.4-1.7-4.5-4-3.9-7.2c0.6-3.2,3.2-4.7,6.1-5.4C359.2,109.1,361.3,108.9,362.6,108.7z" style="fill: rgb(231, 231, 231);"/>
  <path class="st59" d="M106.4,141.3c-3.9-0.5-8.4-0.6-9.8-5.2c-1.3-4.3,2-7.2,5.2-9.3c5.9-3.9,12.3-6.2,19.5-4.1 c5.8,1.7,7.1,6.2,3.1,10.7C119.7,138.8,113.3,140.6,106.4,141.3z" style="fill: rgb(231, 231, 231);"/>
  <path class="st60" d="M296.2,200.6c-1.4-0.2-3.4-0.2-3.2-2.4c0.3-2.1,2.2-3.2,4.1-3.6c1.7-0.3,1.9,1.3,2,2.5 C299.4,199.2,298.8,200.6,296.2,200.6z" style="fill: rgb(231, 231, 231);"/>
  <path class="st61" d="M257.6,201.1c1.5,0.1,1.9,1.1,1.7,2.2c-0.3,2-1.4,3.8-3.4,4.3c-1.2,0.3-1.8-1.1-1.6-2.1 C254.7,203.5,255.6,201.8,257.6,201.1z" style="fill: rgb(231, 231, 231);"/>
  <path class="st62" d="M279.7,207.1c-1.2-0.1-1.8-1.2-1.7-2.5c0.1-1.7,0.9-3.2,2.8-3.3c1.5-0.1,2.2,1.1,2.1,2.5 C282.7,205.5,282.2,207,279.7,207.1z" style="fill: rgb(231, 231, 231);"/>
  <path class="st63" d="M243.9,196c-0.2,1.2-0.7,2.1-2,2c-1.2-0.2-2.7-0.6-2.9-2c-0.1-1.7,1.7-1.5,2.8-1.8 C243.1,193.7,243.7,194.8,243.9,196z" style="fill: rgb(231, 231, 231);"/>
  <path class="st64" d="M124.7,402.6c-0.4,1.8-1.8,2.6-3.4,2.8c-1.6,0.2-1.5-1.2-1.3-2.2c0.3-1.7,0.9-3.2,3-2.8 C124.1,400.6,124.8,401.3,124.7,402.6z" style="fill: rgb(231, 231, 231);"/>
  <path class="st65" d="M175.8,409c-1.3-0.2-1.5-1.3-1.5-2.4c0-1.1,0.6-1.5,1.8-1.2c1.1,0.4,2.2,0.8,1.9,2.1 C177.8,408.5,177,409.1,175.8,409z" style="fill: rgb(231, 231, 231);"/>
  <path class="st66" d="M348.5,404.1c-0.6,1.1-0.7,1.7-1.1,2c-1.5,1.1-0.1,4.4-3.2,4.2c-0.9,0-1.4-0.7-1.3-1.4 c0.2-2.2,1.9-3.3,3.7-4.2C346.9,404.6,347.2,404.5,348.5,404.1z" style="fill: rgb(231, 231, 231);"/>
  <path class="st67" d="M368.6,403.6c0.1,2.3,0.9,4.5-0.9,6.2c-0.9,0.8-1.7-0.2-1.9-1.1C365.4,406.5,365.7,404.5,368.6,403.6z" style="fill: rgb(231, 231, 231);"/>
  <path class="st68" d="M326.4,404.3c1.6-2.4,2.5-4,4.6-3.7c0.2,0,0.6,1,0.5,1.3C330.9,404.2,329.2,404.5,326.4,404.3z" style="fill: rgb(231, 231, 231);"/>
  <path class="st69" d="M381.2,402.9c-1.9-0.4-1.5-2.2-1.9-3.4c-0.4-1.1,0.5-1.6,1.4-1.6c1.5,0.1,2.1,1.2,2.2,2.6 C383,401.7,382.3,402.4,381.2,402.9z" style="fill: rgb(231, 231, 231);"/>
  <path class="st70" d="M266.9,594.2c0-3.4,0-6.8,0-10.3c0-0.8-0.3-1.9,0.7-2.4c1.2-0.5,2,0.4,2.8,1.2c1.3,1.3,2.1,2.9,2.1,4.8 c0,5.8,0,11.5,0.1,17.3c0,2.2-0.6,3.4-3,3.3c-2.2-0.1-2.7-1.3-2.6-3.1C267,601.4,266.9,597.8,266.9,594.2z" style="fill: rgb(231, 231, 231);"/>
  <path class="st71" d="M261.6,581.4c0,8.2,0,16,0,23.7c0,1.5-0.1,2.9-2.2,3.1c-1.7,0.1-2.3-0.7-2.3-2.2c0.1-6.9,0.1-13.7,1.3-20.5 C258.8,583.7,259.6,582.1,261.6,581.4z" style="fill: rgb(231, 231, 231);"/>
  <path class="st72" d="M357.3,368.9c-0.5,4.3,7.2,1.2,5.3,6.3c-0.5,1.3-1.7,3.2-4.3,1.8C354.6,374.9,355.4,372.2,357.3,368.9z" style="fill: rgb(231, 231, 231);"/>
  <path class="st11" d="M265.1,47c-5.9-0.1-10.8-5.1-10.9-11.1c-0.1-6.4,4.9-11.8,10.9-11.8c6-0.1,11.2,5.3,11.2,11.5 C276.2,42,271.3,47.1,265.1,47z" style="fill: rgb(231, 231, 231);"/>
  <path class="st73" d="M395.3,51c0.1,5.2-2.7,9.1-6.4,9.2c-3.7,0-6.7-4-6.5-9.1c0.2-4.1,1.2-8.1,6.1-8.8 C392.3,41.7,395.2,45.8,395.3,51z" style="fill: rgb(231, 231, 231);"/>
  <path class="st74" d="M139.5,60.3c-3.6-0.2-6.4-1.4-6.5-5.3c-0.1-4.1,2.8-5.7,6.4-5.7c3.4,0,6.2,1.8,6.1,5.5 C145.5,58.5,142.8,60,139.5,60.3z" style="fill: rgb(231, 231, 231);"/>
  <path class="st74" d="M211.2,119.5c-4-0.6-9.3-0.4-9.9-5.9c-0.6-5,4.1-6.7,8.1-8c4.2-1.4,8.5-1.6,12.7,0.3c4.6,2,5.2,6.1,1.5,9.4 C220.1,118.4,215.9,119.2,211.2,119.5z" style="fill: rgb(231, 231, 231);"/>
  <path class="st7" d="M264.5,101.3c3.9,0,7.5,0.8,10.7,3c3.5,2.5,3.6,5.7,0.4,8.5c-4.8,4.1-17.1,4-21.9-0.2c-3.2-2.8-3.1-6,0.5-8.5 C257.4,102,260.9,101.4,264.5,101.3z" style="fill: rgb(231, 231, 231);"/>
  <path class="st7" d="M414.5,123.9c4.1-0.1,7.9,1,11.2,3.4c2,1.4,3.9,3,3.2,5.7c-0.7,2.7-3.2,3.3-5.5,3.6c-5.3,0.7-10-0.7-14.3-3.8 c-1.8-1.3-3.5-2.9-2.8-5.4c0.7-2.7,3.1-3.3,5.5-3.5C412.7,123.8,413.6,123.9,414.5,123.9z" style="fill: rgb(231, 231, 231);"/>
  <path class="st74" d="M160.2,124.3c-0.2,0-1.3,0-2.3-0.2c-2.7-0.6-5.5-1.4-6-4.6c-0.5-3.2,2-4.9,4.5-6.1c4.7-2.3,9.7-3,14.7-1.1 c4.5,1.7,5.1,5.7,1.3,8.7C169.1,123.6,165.2,124.5,160.2,124.3z" style="fill: rgb(231, 231, 231);"/>
  <path class="st10" d="M315.2,103.2c4.8-0.1,7.9,0.7,10.8,2.4c2.6,1.6,4.8,3.6,4.2,7c-0.5,3.1-2.9,4.4-5.7,5.2 c-4.8,1.4-9.4,0.7-13.6-1.6c-2.8-1.5-5.3-3.6-4.7-7.2c0.6-3.6,3.6-4.8,6.7-5.5C314.1,103.1,315.4,103.2,315.2,103.2z" style="fill: rgb(231, 231, 231);"/>
  <path class="st74" d="M369.2,125c-4.8-0.4-9.2-1.3-12.8-4.3c-3.8-3.2-3.2-6.9,1.6-8.5c5.8-2,11.4-0.8,16.7,2.1 c2.2,1.2,4.5,2.9,4.1,5.8c-0.4,3.3-3.4,3.9-6,4.5C371.5,124.9,370.2,124.9,369.2,125z" style="fill: rgb(231, 231, 231);"/>
  <path class="st7" d="M107.9,139.1c-3.1-0.3-6.6-0.3-7.8-3.7c-1.3-3.8,1.6-6,4.3-7.8c4.2-2.8,8.8-4,13.9-3.4c2.2,0.3,4.3,1,5.1,3.4 c0.8,2.3-0.2,4.2-1.8,5.8C117.8,137.2,113,138.5,107.9,139.1z" style="fill: rgb(231, 231, 231);"/>
  <path class="st32" d="M270.8,166.7c0,0-1.9,4.8-2.7,3.2c-0.8-1.6-0.7-3.8,0.1-4.4C269,164.8,270.8,166.7,270.8,166.7z" style="fill: rgb(231, 231, 231);"/>
  <path class="st64" d="M142.1,411.5c-4.1,0.6-4.7,3.6-2.4,3.6C141.9,415.1,142.1,411.5,142.1,411.5z" style="fill: rgb(231, 231, 231);"/>
  <path d="M264,166.4c0,0-3.4,4.1-2.9,5.5c0.6,1.4,3.3,1.8,4.1,1.3S264,166.4,264,166.4z" style="fill: rgb(231, 231, 231);"/>
</svg>