<?xml version="1.0" encoding="utf-8"?>
<svg xmlns="http://www.w3.org/2000/svg" version="1.1" width="823px" height="303px" style="shape-rendering:geometricPrecision; text-rendering:geometricPrecision; image-rendering:optimizeQuality; fill-rule:evenodd; clip-rule:evenodd">
  <g>
    <path style="opacity: 1; fill: rgb(231, 231, 231);" d="M 227.5,47.5 C 231.788,51.4837 234.288,56.4837 235,62.5C 236.679,75.7575 234.679,88.4242 229,100.5C 210.612,134.553 186.112,163.386 155.5,187C 151.147,189.367 146.813,191.7 142.5,194C 128.177,194.339 122.677,187.506 126,173.5C 127.665,170.349 129.498,167.349 131.5,164.5C 132.933,163.167 134.267,161.667 135.5,160C 136.448,159.517 137.448,159.351 138.5,159.5C 138.343,158.127 138.51,156.793 139,155.5C 140.676,154.939 142.009,153.939 143,152.5C 144.613,153.622 145.78,153.122 146.5,151C 146.167,150.667 145.833,150.333 145.5,150C 146.833,150 148.167,150 149.5,150C 149.043,149.586 148.709,149.086 148.5,148.5C 150.735,141.93 155.068,137.264 161.5,134.5C 162.386,133.675 162.719,132.675 162.5,131.5C 163.5,131.5 164.5,131.5 165.5,131.5C 165.205,133.735 165.539,135.735 166.5,137.5C 167.167,137.5 167.5,137.167 167.5,136.5C 170.75,134.757 173.584,132.423 176,129.5C 180.205,123.751 184.872,118.418 190,113.5C 193.592,106.646 197.925,100.313 203,94.5C 206.138,88.5608 208.972,82.5608 211.5,76.5C 213.755,74.2414 214.755,71.408 214.5,68C 213.191,63.5464 211.191,59.3797 208.5,55.5C 210.638,54.2557 212.638,52.7557 214.5,51C 216.025,49.9914 217.692,49.4914 219.5,49.5C 219.281,48.325 219.614,47.325 220.5,46.5C 222.767,46.3983 225.1,46.7317 227.5,47.5 Z"/>
  </g>
  <g>
    <path style="opacity: 0.929; fill: rgb(231, 231, 231);" d="M 154.5,64.5 C 153.972,65.7206 153.305,66.8873 152.5,68C 147.751,71.6295 142.751,74.7962 137.5,77.5C 138.625,75.8712 139.959,74.3712 141.5,73C 145.734,69.9178 150.067,67.0845 154.5,64.5 Z"/>
  </g>
  <g>
    <path style="opacity: 1; fill: rgb(231, 231, 231);" d="M 227.5,47.5 C 225.1,46.7317 222.767,46.3983 220.5,46.5C 219.614,47.325 219.281,48.325 219.5,49.5C 217.692,49.4914 216.025,49.9914 214.5,51C 212.638,52.7557 210.638,54.2557 208.5,55.5C 211.191,59.3797 213.191,63.5464 214.5,68C 214.755,71.408 213.755,74.2414 211.5,76.5C 212.331,72.5239 212.497,68.5239 212,64.5C 210.915,61.7495 208.915,60.0828 206,59.5C 200.967,60.6773 196.134,62.344 191.5,64.5C 188.671,66.2769 185.671,66.9435 182.5,66.5C 180.914,68.1727 180.247,70.1727 180.5,72.5C 169.243,81.6141 158.243,90.9474 147.5,100.5C 145.876,100.36 144.71,101.027 144,102.5C 143.586,102.043 143.086,101.709 142.5,101.5C 140.585,103.071 139.585,105.071 139.5,107.5C 134.561,107.746 132.894,110.079 134.5,114.5C 133.167,114.5 131.833,114.5 130.5,114.5C 130.5,116.5 130.5,118.5 130.5,120.5C 124.677,120.582 122.344,123.582 123.5,129.5C 108.068,148.445 95.4018,169.112 85.5,191.5C 86.7766,184.637 88.7766,177.97 91.5,171.5C 91.0305,168.45 90.1971,168.117 89,170.5C 85.8594,166.86 86.1928,163.86 90,161.5C 90.4828,160.552 90.6495,159.552 90.5,158.5C 89.1667,158.5 87.8333,158.5 86.5,158.5C 86.7361,161.226 85.9028,163.559 84,165.5C 82.1467,160.501 79.3134,156.168 75.5,152.5C 76.0253,151.808 76.6919,151.308 77.5,151C 76.8742,150.25 76.3742,149.416 76,148.5C 73.4781,152.949 70.8115,157.282 68,161.5C 65.3098,163.027 63.1432,165.027 61.5,167.5C 65.6438,160.555 69.8105,153.555 74,146.5C 77.0316,142.641 80.1983,138.974 83.5,135.5C 89.1359,131.325 93.1359,126.325 95.5,120.5C 99.4764,117.273 103.31,113.939 107,110.5C 109.698,105.749 112.864,101.416 116.5,97.5C 116.5,96.8333 116.833,96.5 117.5,96.5C 120.903,94.1002 123.57,91.1002 125.5,87.5C 129.498,84.177 133.498,80.8436 137.5,77.5C 142.751,74.7962 147.751,71.6295 152.5,68C 153.305,66.8873 153.972,65.7206 154.5,64.5C 166.496,55.0419 179.829,47.8752 194.5,43C 204.194,39.8614 213.86,39.8614 223.5,43C 225.192,44.3073 226.525,45.8073 227.5,47.5 Z"/>
  </g>
  <g>
    <path style="opacity: 1; fill: rgb(231, 231, 231);" d="M 191.5,64.5 C 188.403,67.8884 184.736,70.5551 180.5,72.5C 180.247,70.1727 180.914,68.1727 182.5,66.5C 185.671,66.9435 188.671,66.2769 191.5,64.5 Z"/>
  </g>
  <g>
    <path style="opacity: 0.208; fill: rgb(231, 231, 231);" d="M 125.5,87.5 C 123.57,91.1002 120.903,94.1002 117.5,96.5C 119.43,92.8998 122.097,89.8998 125.5,87.5 Z"/>
  </g>
  <g>
    <path style="opacity: 1; fill: rgb(231, 231, 231);" d="M 466.5,118.5 C 466.5,119.167 466.167,119.5 465.5,119.5C 463.581,121.522 461.414,121.856 459,120.5C 457.148,122.23 457.314,123.396 459.5,124C 455.047,126.43 450.38,126.93 445.5,125.5C 446.641,124.575 446.641,123.741 445.5,123C 443.846,122.392 442.179,121.892 440.5,121.5C 439.233,118.728 439.233,116.061 440.5,113.5C 442.084,111.471 443.417,109.138 444.5,106.5C 446.747,105.626 449.08,105.292 451.5,105.5C 451.67,104.178 451.337,103.011 450.5,102C 453.265,100.903 454.931,98.9029 455.5,96C 458.507,95.6987 461.507,95.8654 464.5,96.5C 464.343,97.8734 464.51,99.2068 465,100.5C 465.333,99.8333 465.667,99.1667 466,98.5C 467.487,99.1552 468.653,100.155 469.5,101.5C 467.516,105.054 467.183,108.72 468.5,112.5C 467.369,113.604 466.535,113.271 466,111.5C 465.982,113.797 466.149,116.131 466.5,118.5 Z"/>
  </g>
  <g>
    <path style="opacity: 1; fill: rgb(231, 231, 231);" d="M 555.5,122.5 C 555.5,121.5 555.5,120.5 555.5,119.5C 551.528,118.892 547.528,118.392 543.5,118C 542.692,117.692 542.025,117.192 541.5,116.5C 543.333,112.833 545.167,109.167 547,105.5C 547.333,106.167 547.667,106.833 548,107.5C 547.845,105.189 547.845,102.856 548,100.5C 549.011,99.6634 550.178,99.33 551.5,99.5C 551.128,96.9783 551.961,94.9783 554,93.5C 554.333,93.8333 554.667,94.1667 555,94.5C 555.483,93.552 555.649,92.552 555.5,91.5C 551.154,91.3343 546.821,91.501 542.5,92C 540.133,93.8448 537.467,95.0114 534.5,95.5C 537.04,92.3932 540.373,90.5599 544.5,90C 548.866,89.1145 553.033,89.6145 557,91.5C 558.654,94.275 558.321,96.9417 556,99.5C 551.592,104.652 547.425,109.985 543.5,115.5C 543.709,116.086 544.043,116.586 544.5,117C 548.991,117.145 553.324,117.979 557.5,119.5C 557.058,120.739 556.391,121.739 555.5,122.5 Z"/>
  </g>
  <g>
    <path style="opacity: 0.983; fill: rgb(231, 231, 231);" d="M 466.5,118.5 C 466.149,116.131 465.982,113.797 466,111.5C 466.535,113.271 467.369,113.604 468.5,112.5C 467.183,108.72 467.516,105.054 469.5,101.5C 468.653,100.155 467.487,99.1552 466,98.5C 465.667,99.1667 465.333,99.8333 465,100.5C 464.51,99.2068 464.343,97.8734 464.5,96.5C 461.507,95.8654 458.507,95.6987 455.5,96C 454.931,98.9029 453.265,100.903 450.5,102C 451.337,103.011 451.67,104.178 451.5,105.5C 449.08,105.292 446.747,105.626 444.5,106.5C 443.417,109.138 442.084,111.471 440.5,113.5C 441.781,106.447 445.447,100.947 451.5,97C 455.823,94.5421 460.49,93.8754 465.5,95C 469.84,97.353 471.507,101.02 470.5,106C 471.034,110.895 469.701,115.061 466.5,118.5 Z"/>
  </g>
  <g>
    <path style="opacity: 1; fill: rgb(231, 231, 231);" d="M 147.5,100.5 C 146.928,102.255 146.094,103.922 145,105.5C 139.936,110.395 135.103,115.395 130.5,120.5C 130.5,118.5 130.5,116.5 130.5,114.5C 131.833,114.5 133.167,114.5 134.5,114.5C 132.894,110.079 134.561,107.746 139.5,107.5C 139.585,105.071 140.585,103.071 142.5,101.5C 143.086,101.709 143.586,102.043 144,102.5C 144.71,101.027 145.876,100.36 147.5,100.5 Z"/>
  </g>
  <g>
    <path style="opacity: 0.992; fill: rgb(231, 231, 231);" d="M 116.5,97.5 C 112.864,101.416 109.698,105.749 107,110.5C 103.31,113.939 99.4764,117.273 95.5,120.5C 101.428,111.903 108.428,104.236 116.5,97.5 Z"/>
  </g>
  <g>
    <path style="opacity: 0.999; fill: rgb(231, 231, 231);" d="M 555.5,122.5 C 550.153,132.534 543.82,141.867 536.5,150.5C 528.893,150.607 521.226,150.941 513.5,151.5C 510.171,155.177 507.004,158.843 504,162.5C 503.405,163.899 503.572,165.232 504.5,166.5C 502.995,167.842 502.328,169.508 502.5,171.5C 501.325,171.281 500.325,171.614 499.5,172.5C 500.127,173.417 500.461,174.417 500.5,175.5C 500.204,177.403 499.537,179.07 498.5,180.5C 495.72,181.27 494.053,182.604 493.5,184.5C 492.914,184.291 492.414,183.957 492,183.5C 490.646,187.711 489.146,191.877 487.5,196C 488.145,201.847 488.812,207.681 489.5,213.5C 487.408,217.334 488.741,220 493.5,221.5C 494.386,222.325 494.719,223.325 494.5,224.5C 492.833,224.5 491.167,224.5 489.5,224.5C 489.884,222.335 489.217,220.668 487.5,219.5C 486.226,221.318 484.726,222.985 483,224.5C 481.887,223.24 481.72,222.073 482.5,221C 481.975,220.308 481.308,219.808 480.5,219.5C 479.833,220.833 479.167,222.167 478.5,223.5C 477.833,221.167 477.167,218.833 476.5,216.5C 475.021,218.678 473.688,221.012 472.5,223.5C 471.609,224.59 470.609,224.59 469.5,223.5C 468.186,220.1 467.186,216.6 466.5,213C 467.687,210.276 468.353,207.443 468.5,204.5C 469.096,202.602 469.096,200.935 468.5,199.5C 467.844,198.722 467.011,198.056 466,197.5C 463.341,199.734 461.174,202.401 459.5,205.5C 458.756,204.009 458.09,202.509 457.5,201C 459.167,199.167 460.833,197.333 462.5,195.5C 464.322,196.429 465.655,195.762 466.5,193.5C 467.474,191.257 467.808,188.924 467.5,186.5C 471.841,180.533 476.675,174.866 482,169.5C 485.548,162.901 489.714,156.735 494.5,151C 485.967,149.957 477.634,150.791 469.5,153.5C 468.28,153.113 467.613,152.28 467.5,151C 468.096,148.775 468.763,146.608 469.5,144.5C 472.72,141.585 474.72,137.918 475.5,133.5C 479.512,124.819 486.178,119.486 495.5,117.5C 504.833,117.5 514.167,117.5 523.5,117.5C 523.342,114.098 523.676,110.764 524.5,107.5C 525.809,104.222 527.642,101.222 530,98.5C 531.129,96.8588 532.629,95.8588 534.5,95.5C 537.467,95.0114 540.133,93.8448 542.5,92C 546.821,91.501 551.154,91.3343 555.5,91.5C 555.649,92.552 555.483,93.552 555,94.5C 554.667,94.1667 554.333,93.8333 554,93.5C 551.961,94.9783 551.128,96.9783 551.5,99.5C 550.178,99.33 549.011,99.6634 548,100.5C 547.845,102.856 547.845,105.189 548,107.5C 547.667,106.833 547.333,106.167 547,105.5C 545.167,109.167 543.333,112.833 541.5,116.5C 542.025,117.192 542.692,117.692 543.5,118C 547.528,118.392 551.528,118.892 555.5,119.5C 555.5,120.5 555.5,121.5 555.5,122.5 Z"/>
  </g>
  <g>
    <path style="opacity: 1; fill: rgb(231, 231, 231);" d="M 293.5,95.5 C 293.5,96.5 293.5,97.5 293.5,98.5C 295.981,98.3234 297.814,99.3234 299,101.5C 299.375,105.256 298.875,108.922 297.5,112.5C 295.025,114.77 293.025,117.437 291.5,120.5C 289.577,121.308 287.577,121.808 285.5,122C 286.308,122.308 286.975,122.808 287.5,123.5C 285.026,127.244 282.359,127.411 279.5,124C 279.833,123.667 280.167,123.333 280.5,123C 277.422,123.066 274.422,122.899 271.5,122.5C 270.954,121.228 270.621,119.894 270.5,118.5C 271.33,114.851 271.996,111.185 272.5,107.5C 274.497,102.988 277.497,99.1551 281.5,96C 285.563,94.2864 289.563,94.1198 293.5,95.5 Z"/>
  </g>
  <g>
    <path style="opacity: 1; fill: rgb(231, 231, 231);" d="M 524.5,107.5 C 523.676,110.764 523.342,114.098 523.5,117.5C 514.167,117.5 504.833,117.5 495.5,117.5C 503.312,116.169 511.312,115.169 519.5,114.5C 520.943,111.923 522.61,109.59 524.5,107.5 Z"/>
  </g>
  <g>
    <path style="opacity: 0.511; fill: rgb(231, 231, 231);" d="M 739.5,123.5 C 732.303,119.02 725.636,119.686 719.5,125.5C 721.714,120.797 725.548,118.464 731,118.5C 733.634,118.934 736.134,119.767 738.5,121C 739.252,121.671 739.586,122.504 739.5,123.5 Z"/>
  </g>
  <g>
    <path style="opacity: 1; fill: rgb(231, 231, 231);" d="M 130.5,120.5 C 128.542,123.792 126.209,126.792 123.5,129.5C 122.344,123.582 124.677,120.582 130.5,120.5 Z"/>
  </g>
  <g>
    <path style="opacity: 1; fill: rgb(231, 231, 231);" d="M 293.5,95.5 C 296.675,95.8399 298.841,97.5066 300,100.5C 301.406,107.141 300.073,113.141 296,118.5C 292.57,124.93 287.236,128.596 280,129.5C 268.078,125.33 265.578,117.997 272.5,107.5C 271.996,111.185 271.33,114.851 270.5,118.5C 270.621,119.894 270.954,121.228 271.5,122.5C 274.422,122.899 277.422,123.066 280.5,123C 280.167,123.333 279.833,123.667 279.5,124C 282.359,127.411 285.026,127.244 287.5,123.5C 286.975,122.808 286.308,122.308 285.5,122C 287.577,121.808 289.577,121.308 291.5,120.5C 293.025,117.437 295.025,114.77 297.5,112.5C 298.875,108.922 299.375,105.256 299,101.5C 297.814,99.3234 295.981,98.3234 293.5,98.5C 293.5,97.5 293.5,96.5 293.5,95.5 Z"/>
  </g>
  <g>
    <path style="opacity: 0.133; fill: rgb(231, 231, 231);" d="M 441.5,124.5 C 443.027,124.427 444.027,125.094 444.5,126.5C 442.973,126.573 441.973,125.906 441.5,124.5 Z"/>
  </g>
  <g>
    <path style="opacity: 0.982; fill: rgb(231, 231, 231);" d="M 465.5,119.5 C 463.679,123.485 460.679,126.319 456.5,128C 452.101,130.133 448.101,129.633 444.5,126.5C 444.027,125.094 443.027,124.427 441.5,124.5C 440.89,123.609 440.557,122.609 440.5,121.5C 442.179,121.892 443.846,122.392 445.5,123C 446.641,123.741 446.641,124.575 445.5,125.5C 450.38,126.93 455.047,126.43 459.5,124C 457.314,123.396 457.148,122.23 459,120.5C 461.414,121.856 463.581,121.522 465.5,119.5 Z"/>
  </g>
  <g>
    <path style="opacity: 1; fill: rgb(231, 231, 231);" d="M 639.5,157.5 C 637.254,155.351 635.754,152.684 635,149.5C 631.746,144.893 628.246,144.559 624.5,148.5C 625.842,151.456 627.508,153.456 629.5,154.5C 628.311,155.429 626.978,155.762 625.5,155.5C 625.318,157.591 625.652,159.591 626.5,161.5C 626,162.5 625.5,163.5 625,164.5C 624.311,163.643 623.478,162.977 622.5,162.5C 620.466,163.559 618.466,164.559 616.5,165.5C 617.321,162.337 618.988,159.67 621.5,157.5C 621,157.167 620.5,156.833 620,156.5C 613.962,158.77 608.128,161.437 602.5,164.5C 599.167,164.833 595.833,165.167 592.5,165.5C 592.5,166.833 592.5,168.167 592.5,169.5C 589.017,170.752 585.351,171.586 581.5,172C 582.833,173 582.833,174 581.5,175C 580.207,175.49 578.873,175.657 577.5,175.5C 577.5,176.5 577.5,177.5 577.5,178.5C 572.312,182.696 567.145,187.029 562,191.5C 556.68,198.441 555.013,206.107 557,214.5C 557.408,216.41 558.575,217.41 560.5,217.5C 563.534,216.433 566.534,215.266 569.5,214C 574.987,209.424 580.653,205.091 586.5,201C 591.84,194.107 597.507,187.607 603.5,181.5C 603.146,184.421 604.146,186.754 606.5,188.5C 605.975,189.192 605.308,189.692 604.5,190C 606.428,192.411 607.428,195.244 607.5,198.5C 601.975,211.245 599.808,224.578 601,238.5C 602,239.833 603,239.833 604,238.5C 604.5,239.667 605.333,240.5 606.5,241C 605.833,241.333 605.167,241.667 604.5,242C 605.167,243.333 605.833,244.667 606.5,246C 608.833,246.667 611.167,246.667 613.5,246C 613.167,245.667 612.833,245.333 612.5,245C 617.057,244.726 620.723,243.892 623.5,242.5C 623.281,241.325 623.614,240.325 624.5,239.5C 625.726,240.363 627.06,240.363 628.5,239.5C 624.618,243.277 619.951,245.777 614.5,247C 602.901,249.239 597.234,244.406 597.5,232.5C 598.825,223.058 600.325,213.725 602,204.5C 596.638,210.526 591.305,216.526 586,222.5C 581.926,227.079 577.426,231.079 572.5,234.5C 571.417,234.461 570.417,234.127 569.5,233.5C 568.756,234.991 568.09,236.491 567.5,238C 563.408,238.871 559.408,240.037 555.5,241.5C 551.25,240.251 548.25,237.584 546.5,233.5C 545.583,232.873 544.583,232.539 543.5,232.5C 539.571,225.296 536.738,217.63 535,209.5C 523.691,222.15 511.191,233.317 497.5,243C 492.833,245 488.167,247 483.5,249C 472.693,251.848 465.526,248.014 462,237.5C 460.54,225.692 462.707,214.692 468.5,204.5C 468.353,207.443 467.687,210.276 466.5,213C 467.186,216.6 468.186,220.1 469.5,223.5C 470.609,224.59 471.609,224.59 472.5,223.5C 473.688,221.012 475.021,218.678 476.5,216.5C 477.167,218.833 477.833,221.167 478.5,223.5C 479.167,222.167 479.833,220.833 480.5,219.5C 481.308,219.808 481.975,220.308 482.5,221C 481.72,222.073 481.887,223.24 483,224.5C 484.726,222.985 486.226,221.318 487.5,219.5C 489.217,220.668 489.884,222.335 489.5,224.5C 491.167,224.5 492.833,224.5 494.5,224.5C 494.719,223.325 494.386,222.325 493.5,221.5C 488.741,220 487.408,217.334 489.5,213.5C 488.812,207.681 488.145,201.847 487.5,196C 489.146,191.877 490.646,187.711 492,183.5C 492.414,183.957 492.914,184.291 493.5,184.5C 494.053,182.604 495.72,181.27 498.5,180.5C 496.588,185.058 494.755,189.724 493,194.5C 490.705,200.997 490.039,207.664 491,214.5C 492.562,216.91 494.729,218.244 497.5,218.5C 502.697,217.236 507.697,215.403 512.5,213C 519.548,206.951 526.881,201.284 534.5,196C 535.735,190.028 538.402,184.861 542.5,180.5C 547.806,175.86 552.806,170.86 557.5,165.5C 557.511,163.983 558.177,162.816 559.5,162C 564.569,158.805 569.235,155.138 573.5,151C 584.478,144.174 595.812,137.841 607.5,132C 615.306,129.339 623.306,127.505 631.5,126.5C 641.558,128.27 646.058,134.27 645,144.5C 642.084,146.041 639.251,147.707 636.5,149.5C 637.9,152.035 638.9,154.702 639.5,157.5 Z"/>
  </g>
  <g>
    <path style="opacity: 1; fill: rgb(231, 231, 231);" d="M 95.5,120.5 C 93.1359,126.325 89.1359,131.325 83.5,135.5C 86.7469,129.917 90.7469,124.917 95.5,120.5 Z"/>
  </g>
  <g>
    <path style="opacity: 0.718; fill: rgb(231, 231, 231);" d="M 475.5,133.5 C 474.72,137.918 472.72,141.585 469.5,144.5C 470.672,140.342 472.672,136.675 475.5,133.5 Z"/>
  </g>
  <g>
    <path style="opacity: 0.753; fill: rgb(231, 231, 231);" d="M 272.5,158.5 C 273.228,154.69 273.895,150.857 274.5,147C 274.541,141.54 271.874,139.04 266.5,139.5C 262.76,139.876 259.094,140.543 255.5,141.5C 261.499,137.231 267.832,136.731 274.5,140C 276.167,141.823 277.167,143.99 277.5,146.5C 276.59,150.92 274.923,154.92 272.5,158.5 Z"/>
  </g>
  <g>
    <path style="opacity: 1; fill: rgb(231, 231, 231);" d="M 272.5,158.5 C 269.929,163.305 267.096,167.972 264,172.5C 254.886,180.608 246.886,189.608 240,199.5C 238.347,205.378 239.847,210.212 244.5,214C 249.718,215.563 255.051,215.896 260.5,215C 269.886,209.612 278.719,203.446 287,196.5C 293.497,176.002 304.664,158.502 320.5,144C 325.746,142.494 331.079,142.161 336.5,143C 340.407,142.942 342.74,144.775 343.5,148.5C 340.548,160.19 335.048,170.524 327,179.5C 321.419,185.15 315.752,190.816 310,196.5C 307.901,203.68 307.235,211.014 308,218.5C 310.593,220.837 313.426,221.004 316.5,219C 321.661,215.334 326.661,211.501 331.5,207.5C 333.827,207.753 335.827,207.086 337.5,205.5C 338.478,205.977 339.311,206.643 340,207.5C 339.341,201.642 340.341,201.309 343,206.5C 344.011,205.663 345.178,205.33 346.5,205.5C 346.716,207.681 345.883,209.347 344,210.5C 342.982,209.294 342.482,209.627 342.5,211.5C 342.608,212.442 342.941,213.275 343.5,214C 345.044,214.29 346.377,214.956 347.5,216C 345.893,217.049 345.227,218.549 345.5,220.5C 343.94,220.481 342.44,220.148 341,219.5C 338.369,222.927 335.202,225.76 331.5,228C 332.406,229.699 332.739,231.533 332.5,233.5C 325.848,242.826 316.848,246.659 305.5,245C 301.136,243.235 297.636,240.401 295,236.5C 291.007,229.507 288.007,222.174 286,214.5C 281.189,218.98 276.689,223.813 272.5,229C 267.602,232.745 262.602,236.245 257.5,239.5C 253.696,241.274 249.696,242.608 245.5,243.5C 244.287,243.747 243.62,244.414 243.5,245.5C 231.088,244.929 223.255,238.596 220,226.5C 218.953,220.67 217.787,215.004 216.5,209.5C 213.679,209.684 212.012,208.351 211.5,205.5C 212.838,203.136 214.171,200.802 215.5,198.5C 217.312,193.36 218.812,188.027 220,182.5C 221.582,178.106 224.082,174.439 227.5,171.5C 229.438,168.483 232.105,166.317 235.5,165C 234.483,163.951 234.316,162.784 235,161.5C 236.586,160.624 238.086,159.624 239.5,158.5C 242.736,152.926 246.736,147.926 251.5,143.5C 252.514,142.326 253.847,141.66 255.5,141.5C 259.094,140.543 262.76,139.876 266.5,139.5C 271.874,139.04 274.541,141.54 274.5,147C 273.895,150.857 273.228,154.69 272.5,158.5 Z"/>
  </g>
  <g>
    <path style="opacity: 1; fill: rgb(231, 231, 231);" d="M 167.5,136.5 C 166.833,136.5 166.5,136.833 166.5,137.5C 165.539,135.735 165.205,133.735 165.5,131.5C 164.5,131.5 163.5,131.5 162.5,131.5C 162.719,132.675 162.386,133.675 161.5,134.5C 155.068,137.264 150.735,141.93 148.5,148.5C 148.709,149.086 149.043,149.586 149.5,150C 148.167,150 146.833,150 145.5,150C 145.833,150.333 146.167,150.667 146.5,151C 145.78,153.122 144.613,153.622 143,152.5C 142.009,153.939 140.676,154.939 139,155.5C 138.51,156.793 138.343,158.127 138.5,159.5C 137.448,159.351 136.448,159.517 135.5,160C 134.267,161.667 132.933,163.167 131.5,164.5C 140.515,150.313 151.849,138.146 165.5,128C 166.793,127.51 168.127,127.343 169.5,127.5C 169.244,130.598 168.578,133.598 167.5,136.5 Z"/>
  </g>
  <g>
    <path style="opacity: 1; fill: rgb(231, 231, 231);" d="M 85.5,191.5 C 84.5041,191.414 83.6708,191.748 83,192.5C 81.8512,195.393 81.3512,198.393 81.5,201.5C 77.3982,215.906 77.5649,230.239 82,244.5C 84.8073,249.302 88.3073,253.469 92.5,257C 104.333,261.198 116.333,261.532 128.5,258C 139.606,253.944 150.273,249.11 160.5,243.5C 163.81,243.539 166.476,242.206 168.5,239.5C 169.167,240.5 169.833,241.5 170.5,242.5C 175.913,239.744 176.579,240.578 172.5,245C 170.307,244.43 168.307,244.764 166.5,246C 168.864,247.012 170.198,248.345 170.5,250C 168.963,251.11 168.297,252.61 168.5,254.5C 167.127,254.343 165.793,254.51 164.5,255C 165.711,255.893 165.711,256.726 164.5,257.5C 163.914,257.291 163.414,256.957 163,256.5C 162.29,257.973 161.124,258.64 159.5,258.5C 159.5,259.833 159.5,261.167 159.5,262.5C 157.876,262.36 156.71,263.027 156,264.5C 155.667,263.833 155.333,263.167 155,262.5C 153.951,264.107 152.451,264.773 150.5,264.5C 150.5,265.833 150.5,267.167 150.5,268.5C 148.549,268.227 147.049,268.893 146,270.5C 145.667,269.833 145.333,269.167 145,268.5C 144.51,269.793 144.343,271.127 144.5,272.5C 142.833,272.5 141.167,272.5 139.5,272.5C 139.5,273.5 139.5,274.5 139.5,275.5C 137.5,275.167 135.5,274.833 133.5,274.5C 133.5,275.5 133.5,276.5 133.5,277.5C 130.267,278.609 126.934,279.442 123.5,280C 119.679,282.355 116.012,284.855 112.5,287.5C 98.0687,290.483 83.7353,289.983 69.5,286C 51.1329,277.46 41.6329,262.96 41,242.5C 39.6172,215.163 46.4505,190.163 61.5,167.5C 63.1432,165.027 65.3098,163.027 68,161.5C 70.8115,157.282 73.4781,152.949 76,148.5C 76.3742,149.416 76.8742,150.25 77.5,151C 76.6919,151.308 76.0253,151.808 75.5,152.5C 79.3134,156.168 82.1467,160.501 84,165.5C 85.9028,163.559 86.7361,161.226 86.5,158.5C 87.8333,158.5 89.1667,158.5 90.5,158.5C 90.6495,159.552 90.4828,160.552 90,161.5C 86.1928,163.86 85.8594,166.86 89,170.5C 90.1971,168.117 91.0305,168.45 91.5,171.5C 88.7766,177.97 86.7766,184.637 85.5,191.5 Z"/>
  </g>
  <g>
    <path style="opacity: 0.992; fill: rgb(231, 231, 231);" d="M 251.5,143.5 C 246.736,147.926 242.736,152.926 239.5,158.5C 238.086,159.624 236.586,160.624 235,161.5C 234.316,162.784 234.483,163.951 235.5,165C 232.105,166.317 229.438,168.483 227.5,171.5C 232.967,160.03 240.967,150.697 251.5,143.5 Z"/>
  </g>
  <g>
    <path style="opacity: 0.999; fill: rgb(231, 231, 231);" d="M 437.5,212.5 C 441.018,211.406 444.185,209.739 447,207.5C 447.368,208.91 448.201,209.91 449.5,210.5C 451.098,209.515 452.765,209.349 454.5,210C 452.543,211.746 451.543,213.912 451.5,216.5C 450.178,216.33 449.011,216.663 448,217.5C 447.505,219.473 447.338,221.473 447.5,223.5C 440.105,232.389 431.105,239.222 420.5,244C 406.595,247.798 397.095,242.964 392,229.5C 389.546,222.686 387.88,215.686 387,208.5C 377.043,217.144 365.877,219.144 353.5,214.5C 346.779,221.225 339.779,227.558 332.5,233.5C 332.739,231.533 332.406,229.699 331.5,228C 335.202,225.76 338.369,222.927 341,219.5C 342.44,220.148 343.94,220.481 345.5,220.5C 345.227,218.549 345.893,217.049 347.5,216C 346.377,214.956 345.044,214.29 343.5,214C 342.941,213.275 342.608,212.442 342.5,211.5C 342.482,209.627 342.982,209.294 344,210.5C 345.883,209.347 346.716,207.681 346.5,205.5C 345.178,205.33 344.011,205.663 343,206.5C 340.341,201.309 339.341,201.642 340,207.5C 339.311,206.643 338.478,205.977 337.5,205.5C 335.827,207.086 333.827,207.753 331.5,207.5C 335.13,203.369 338.963,199.369 343,195.5C 347.273,175.116 357.107,157.95 372.5,144C 385.135,138.622 389.969,142.789 387,156.5C 385.655,162.038 383.821,167.371 381.5,172.5C 380.504,172.414 379.671,172.748 379,173.5C 377.39,175.939 376.556,178.606 376.5,181.5C 373.057,186.878 369.724,192.378 366.5,198C 367,201.167 368.833,203 372,203.5C 374.856,202.744 377.689,201.911 380.5,201C 382.388,198.81 384.555,196.977 387,195.5C 391.257,179.638 399.09,165.971 410.5,154.5C 414.167,151.5 417.5,148.167 420.5,144.5C 427.656,138.302 435.656,136.802 444.5,140C 447.875,143.762 448.375,147.928 446,152.5C 442.822,157.523 440.155,162.857 438,168.5C 430.946,175.554 423.946,182.554 417,189.5C 410.638,195.744 408.971,203.077 412,211.5C 413.214,213.049 414.714,214.215 416.5,215C 423.785,216.149 430.785,215.315 437.5,212.5 Z"/>
  </g>
  <g>
    <path style="opacity: 0.122; fill: rgb(231, 231, 231);" d="M 420.5,144.5 C 417.5,148.167 414.167,151.5 410.5,154.5C 412.833,150.167 416.167,146.833 420.5,144.5 Z"/>
  </g>
  <g>
    <path style="opacity: 1; fill: rgb(231, 231, 231);" d="M 602.5,164.5 C 594.336,169.417 586.003,174.083 577.5,178.5C 577.5,177.5 577.5,176.5 577.5,175.5C 578.873,175.657 580.207,175.49 581.5,175C 582.833,174 582.833,173 581.5,172C 585.351,171.586 589.017,170.752 592.5,169.5C 592.5,168.167 592.5,166.833 592.5,165.5C 595.833,165.167 599.167,164.833 602.5,164.5 Z"/>
  </g>
  <g>
    <path style="opacity: 0.553; fill: rgb(231, 231, 231);" d="M 557.5,165.5 C 552.806,170.86 547.806,175.86 542.5,180.5C 543.072,178.745 543.906,177.078 545,175.5C 549.06,171.93 553.227,168.596 557.5,165.5 Z"/>
  </g>
  <g>
    <path style="opacity: 0.92; fill: rgb(231, 231, 231);" d="M 741.5,141.5 C 746.444,152.674 747.611,164.341 745,176.5C 744.156,180.229 742.656,183.563 740.5,186.5C 741.97,178.382 743.303,170.215 744.5,162C 743.362,155.198 742.362,148.365 741.5,141.5 Z"/>
  </g>
  <g>
    <path style="opacity: 0.992; fill: rgb(231, 231, 231);" d="M 536.5,150.5 C 536.441,152.722 535.275,153.722 533,153.5C 527.319,152.884 521.652,152.217 516,151.5C 515.5,151.833 515,152.167 514.5,152.5C 510.059,160.397 505.392,168.064 500.5,175.5C 500.461,174.417 500.127,173.417 499.5,172.5C 500.325,171.614 501.325,171.281 502.5,171.5C 502.328,169.508 502.995,167.842 504.5,166.5C 503.572,165.232 503.405,163.899 504,162.5C 507.004,158.843 510.171,155.177 513.5,151.5C 521.226,150.941 528.893,150.607 536.5,150.5 Z"/>
  </g>
  <g>
    <path style="opacity: 0.553; fill: rgb(231, 231, 231);" d="M 381.5,172.5 C 380.59,175.992 378.924,178.992 376.5,181.5C 376.556,178.606 377.39,175.939 379,173.5C 379.671,172.748 380.504,172.414 381.5,172.5 Z"/>
  </g>
  <g>
    <path style="opacity: 1; fill: rgb(231, 231, 231);" d="M 739.5,123.5 C 739.377,129.6 740.043,135.6 741.5,141.5C 742.362,148.365 743.362,155.198 744.5,162C 743.303,170.215 741.97,178.382 740.5,186.5C 737.547,191.565 734.213,196.399 730.5,201C 725.5,205.333 720.5,209.667 715.5,214C 713.259,215.522 710.926,216.855 708.5,218C 715.732,218.777 722.732,217.777 729.5,215C 739.39,209.109 748.723,202.443 757.5,195C 758.448,194.517 759.448,194.351 760.5,194.5C 760.666,198.514 760.499,202.514 760,206.5C 746.853,219.483 732.353,230.649 716.5,240C 698.94,248.301 683.94,245.134 671.5,230.5C 668.772,226.322 666.272,221.988 664,217.5C 663.047,214.568 662.547,211.568 662.5,208.5C 660.04,208.699 657.707,209.365 655.5,210.5C 656.523,212.895 655.523,213.895 652.5,213.5C 652.5,214.833 652.5,216.167 652.5,217.5C 645.762,226.204 637.762,233.537 628.5,239.5C 627.06,240.363 625.726,240.363 624.5,239.5C 623.614,240.325 623.281,241.325 623.5,242.5C 620.723,243.892 617.057,244.726 612.5,245C 612.833,245.333 613.167,245.667 613.5,246C 611.167,246.667 608.833,246.667 606.5,246C 605.833,244.667 605.167,243.333 604.5,242C 605.167,241.667 605.833,241.333 606.5,241C 605.333,240.5 604.5,239.667 604,238.5C 603,239.833 602,239.833 601,238.5C 599.808,224.578 601.975,211.245 607.5,198.5C 607.428,195.244 606.428,192.411 604.5,190C 605.308,189.692 605.975,189.192 606.5,188.5C 604.146,186.754 603.146,184.421 603.5,181.5C 607.083,175.581 611.416,170.248 616.5,165.5C 618.466,164.559 620.466,163.559 622.5,162.5C 623.478,162.977 624.311,163.643 625,164.5C 625.5,163.5 626,162.5 626.5,161.5C 625.652,159.591 625.318,157.591 625.5,155.5C 626.978,155.762 628.311,155.429 629.5,154.5C 627.508,153.456 625.842,151.456 624.5,148.5C 628.246,144.559 631.746,144.893 635,149.5C 635.754,152.684 637.254,155.351 639.5,157.5C 642.564,161.116 643.064,165.116 641,169.5C 634.752,178.328 628.752,187.328 623,196.5C 619.222,211.724 624.722,216.891 639.5,212C 642.059,210.223 644.726,208.723 647.5,207.5C 651.177,206.738 653.844,204.738 655.5,201.5C 656.5,200.833 657.5,200.167 658.5,199.5C 662.368,195.289 666.368,190.955 670.5,186.5C 675.47,180.698 680.97,175.365 687,170.5C 687.483,169.552 687.649,168.552 687.5,167.5C 688.167,166.167 689.167,165.167 690.5,164.5C 692.587,163.415 693.92,161.749 694.5,159.5C 701.106,152.723 707.606,145.723 714,138.5C 715.164,133.829 716.997,129.496 719.5,125.5C 725.636,119.686 732.303,119.02 739.5,123.5 Z M 713.5,157.5 C 714.725,158.152 715.392,159.319 715.5,161C 717.707,171.831 717.874,182.664 716,193.5C 712.055,201.28 706.221,207.28 698.5,211.5C 695.057,207.464 691.724,203.297 688.5,199C 684.952,197.059 681.286,195.393 677.5,194C 690.371,182.629 702.371,170.463 713.5,157.5 Z"/>
  </g>
  <g>
    <path style="opacity: 0.294; fill: rgb(231, 231, 231);" d="M 670.5,186.5 C 666.368,190.955 662.368,195.289 658.5,199.5C 661.109,193.891 665.109,189.557 670.5,186.5 Z"/>
  </g>
  <g>
    <path style="opacity: 0.478; fill: rgb(231, 231, 231);" d="M 687.5,167.5 C 687.649,168.552 687.483,169.552 687,170.5C 680.97,175.365 675.47,180.698 670.5,186.5C 675.118,179.216 680.785,172.882 687.5,167.5 Z"/>
  </g>
  <g>
    <path style="opacity: 0.129; fill: rgb(231, 231, 231);" d="M 694.5,159.5 C 693.92,161.749 692.587,163.415 690.5,164.5C 691.08,162.251 692.413,160.585 694.5,159.5 Z"/>
  </g>
  <g>
    <path style="opacity: 0.149; fill: rgb(231, 231, 231);" d="M 85.5,191.5 C 84.7333,195.149 83.3999,198.482 81.5,201.5C 81.3512,198.393 81.8512,195.393 83,192.5C 83.6708,191.748 84.5041,191.414 85.5,191.5 Z"/>
  </g>
  <g>
    <path style="opacity: 1; fill: rgb(231, 231, 231);" d="M 215.5,198.5 C 214.171,200.802 212.838,203.136 211.5,205.5C 212.012,208.351 213.679,209.684 216.5,209.5C 212.862,213.474 209.195,217.474 205.5,221.5C 202.5,222.5 200.5,224.5 199.5,227.5C 191.338,236.495 182.672,244.995 173.5,253C 165.137,259.688 156.471,266.021 147.5,272C 144.929,273.454 142.262,274.62 139.5,275.5C 139.5,274.5 139.5,273.5 139.5,272.5C 141.167,272.5 142.833,272.5 144.5,272.5C 144.343,271.127 144.51,269.793 145,268.5C 145.333,269.167 145.667,269.833 146,270.5C 147.049,268.893 148.549,268.227 150.5,268.5C 150.5,267.167 150.5,265.833 150.5,264.5C 152.451,264.773 153.951,264.107 155,262.5C 155.333,263.167 155.667,263.833 156,264.5C 156.71,263.027 157.876,262.36 159.5,262.5C 159.5,261.167 159.5,259.833 159.5,258.5C 161.124,258.64 162.29,257.973 163,256.5C 163.414,256.957 163.914,257.291 164.5,257.5C 165.711,256.726 165.711,255.893 164.5,255C 165.793,254.51 167.127,254.343 168.5,254.5C 168.297,252.61 168.963,251.11 170.5,250C 170.198,248.345 168.864,247.012 166.5,246C 168.307,244.764 170.307,244.43 172.5,245C 176.579,240.578 175.913,239.744 170.5,242.5C 169.833,241.5 169.167,240.5 168.5,239.5C 166.476,242.206 163.81,243.539 160.5,243.5C 169.072,236.202 178.072,229.368 187.5,223C 194.188,217.31 200.522,211.31 206.5,205C 209.397,202.59 212.397,200.423 215.5,198.5 Z"/>
  </g>
  <g>
    <path style="opacity: 1; fill: rgb(231, 231, 231);" d="M 467.5,186.5 C 467.808,188.924 467.474,191.257 466.5,193.5C 465.655,195.762 464.322,196.429 462.5,195.5C 460.833,197.333 459.167,199.167 457.5,201C 458.09,202.509 458.756,204.009 459.5,205.5C 461.174,202.401 463.341,199.734 466,197.5C 467.011,198.056 467.844,198.722 468.5,199.5C 461.99,207.797 454.99,215.797 447.5,223.5C 447.338,221.473 447.505,219.473 448,217.5C 449.011,216.663 450.178,216.33 451.5,216.5C 451.543,213.912 452.543,211.746 454.5,210C 452.765,209.349 451.098,209.515 449.5,210.5C 448.201,209.91 447.368,208.91 447,207.5C 444.185,209.739 441.018,211.406 437.5,212.5C 442.271,207.942 447.604,204.109 453.5,201C 457.653,195.68 462.32,190.847 467.5,186.5 Z"/>
  </g>
  <g>
    <path style="opacity: 0.337; fill: rgb(231, 231, 231);" d="M 655.5,201.5 C 653.844,204.738 651.177,206.738 647.5,207.5C 649.443,204.529 652.109,202.529 655.5,201.5 Z"/>
  </g>
  <g>
    <path style="opacity: 1; fill: rgb(231, 231, 231);" d="M 671.5,230.5 C 668.909,229.746 667.076,228.079 666,225.5C 663.098,220.562 661.432,215.229 661,209.5C 658.953,213.048 656.12,215.715 652.5,217.5C 652.5,216.167 652.5,214.833 652.5,213.5C 655.523,213.895 656.523,212.895 655.5,210.5C 657.707,209.365 660.04,208.699 662.5,208.5C 662.547,211.568 663.047,214.568 664,217.5C 666.272,221.988 668.772,226.322 671.5,230.5 Z"/>
  </g>
  <g>
    <path style="opacity: 0.035; fill: rgb(231, 231, 231);" d="M 205.5,221.5 C 203.833,223.833 201.833,225.833 199.5,227.5C 200.5,224.5 202.5,222.5 205.5,221.5 Z"/>
  </g>
  <g>
    <path style="opacity: 1; fill: rgb(231, 231, 231);" d="M 543.5,232.5 C 544.583,232.539 545.583,232.873 546.5,233.5C 548.25,237.584 551.25,240.251 555.5,241.5C 559.408,240.037 563.408,238.871 567.5,238C 568.09,236.491 568.756,234.991 569.5,233.5C 570.417,234.127 571.417,234.461 572.5,234.5C 561.87,247.115 552.203,246.448 543.5,232.5 Z"/>
  </g>
  <g>
    <path style="opacity: 0.263; fill: rgb(231, 231, 231);" d="M 257.5,239.5 C 253.487,242.844 248.821,244.844 243.5,245.5C 243.62,244.414 244.287,243.747 245.5,243.5C 249.696,242.608 253.696,241.274 257.5,239.5 Z"/>
  </g>
  <g>
    <path style="opacity: 1; fill: rgb(231, 231, 231);" d="M 139.5,275.5 C 131.415,281.372 122.415,285.372 112.5,287.5C 116.012,284.855 119.679,282.355 123.5,280C 126.934,279.442 130.267,278.609 133.5,277.5C 133.5,276.5 133.5,275.5 133.5,274.5C 135.5,274.833 137.5,275.167 139.5,275.5 Z"/>
  </g>
</svg>